<mxfile host="65bd71144e">
    <diagram id="a0_4uLiSetnk4dkCYU-A" name="Page-1">
        <mxGraphModel dx="672" dy="308" grid="1" gridSize="10" guides="1" tooltips="1" connect="1" arrows="1" fold="1" page="1" pageScale="1" pageWidth="850" pageHeight="1100" math="0" shadow="0">
            <root>
                <mxCell id="0"/>
                <mxCell id="1" parent="0"/>
                <mxCell id="3ND0S96goo_aaDMY6VBZ-2" value="" style="shape=image;verticalLabelPosition=bottom;labelBackgroundColor=#ffffff;verticalAlign=top;aspect=fixed;imageAspect=0;image=data:image/png,iVBORw0KGgoAAAANSUhEUgAABDgAAAHsCAIAAAC45YpGAAAAA3NCSVQICAjb4U/gAAAAEHRFWHRTb2Z0d2FyZQBTaHV0dGVyY4LQCQAAIABJREFUeNrsnXdcFEnz8HuAJcgCS5KMZFaSgESJAiIiKlER1MeA4ome3j2eyomn3okYuDOgqJzpFAEPzwNBEcGABBMoKigiBgRB4oKSw877R3+eefdHWDERtL5/DdM9XTXVO0PXdHcVQZIkQggh9ObNG1lZWdQXXV1dCCE+Pr7PXgpyQS7IBbkgF+SCXJA7CHILCwt1dXXBziAX5I4guTwIAAAAAADga0dSUhKMAAAjCz7swSCE2Gw2ddynl9Mfn1IKckEuyAW5IBfkglyQC3JBLsgFub2BGRUAAAAAAL5+6uvrwQgAMLLgo1aD8fDwcFmRhriuV/uUUpALckEuyAW5IBfkgtwvLbeurg7sDHJB7siSCzMqAAAAAAAAAAAMO8BRAQAAAADg60dKSgqMAADgqAAAAAAAAAwvIOoXAICjAgAAAAAAAAAAAI4KAAAAAADA+6irqwMjAAA4KgAAAAAAAMOL2tpaMAIAgKMCAAAAAAAAAADwSUBmepALckEuyAW5IBfkfv1yJSUlwc4gF+RCZnoAAAAAAIDhhYSEBBgBAEYWkJke5IJckAtyQS7IBbkgF+SCXJA77OTCjAoAAAAAAF8/EPULAEYc4KgAAAAAAPD1A1G/AAAcFQAAAAAAAAAAAHBUAAAAAAAA3oeUlBQYAQDAUQEAAAAAABheSEpKghEAABwVAAAAAAAAAAAAcFQAAAAAAAC4AlG/AAAcFQAAAAAAgGEHRP0CgBEHUVlZiY+amprodHqfldhsNkKIh4fns5eCXJALckEuyAW5IBfkDoLcJ0+eaGtrg51BLsgdQXL5ZGVl8dGbN2+o4x50dXWh/nNJfkopyAW5IBfkglyQC3JB7iDIraurAzuDXJA7suTC0i8AAAAAAL5+IOoXAIw4wFEBAAAAAAAAAAAcFQAAAAAAgEEHon4BwIiDD0wAAF89Tk5OGRkZYAcAAIYDSkpKr169Gny5QxX1y9vbOzs7G/od+Kawt7e/evUqOCoAALyfjIwMkiTBDgAADAcIgiAI4tt5KWVnZ8MbGPgGH/PP0g4s/QIAAAAAYFB5+/bt5xrHDBwpKSmwPACMLMBRAQAAAADg6/dVIOoXAIw4+HDcYoQQm82mjnvQ3/lPLwW5IBfkDq1cAACAofVVOjs7v+73MwB8m/R4ND7uOYIZFQAAAAAAhsxXodFogyOrvr4eDA4AIws+KgckDw8PlzyUiGuWyk8pBbkgF+QOglwAAIDh7Ktwbjf/Qu/Jurq6IXk/A8A362N8+nMEMyoAAAAAAAyxrzL4e+sBABj+gKMCAAAAAMDX76tA1C8AAEcFAAAAAADgY3yVL7pfBaJ+AQA4KgAAAAAAAMPRVwEAABwVAAAAAACAj/RVvtAasLq6OjAvAICjAgAAAAAAMLx8ldraWrAtAICjAgAAAAAAMOx8FQAARhaQmR7kgtxvWi4AAMBw9lU+V956hJCkpCRkpgeAQQMy0wMAAAAA8DX7Kp9xb72EhASYFABGFpCZHuSC3G9CLgAAwMj1VT5L3vqhej8DwDfrY3z6cwQzKgAAAAAADGtf5bPsVxk+Ub+KiooIgti0adMgy/3zzz8fPXr0KS10dXURBCEoKCgoKDhq1ChDQ8NLly59UAsMBqO8vJzzjJSUFN//4OXlxRNf4eHhAQEB8OMH4AMAAAAAAAAjwFfh3K/yEXyVUb/YbDYPz4A+OrNYrKCgoJiYGB0dnU9stqSkRFFRsaur699///X29n769KmMjMxn6Rc3NzdTU1OE0LJly967+ae7u5uXlxeejq8bmFEBAAAAAGAE+CojPRfkwYMH5eXlFRQUzp07R50sLS11dXUVExNTUVGJiorCJ5lMJpPJxMfXrl0bP368sLCwsbFxVlYWQmjv3r0EQURERDAYjJycnGfPnjk7O4uIiKirq6ekpOCroqKiVFRUhIWF7ezsnj9/Xl5eLiEh0dnZ6ePjs27dOoTQyZMndXR06HS6kZHRhQsXEEIPHjwgCOKXX37R1NTcunXrmzdvCIJYunRpf7fDx8fn4+OjpqZ269YthNCJEye0tbXV1NTs7e3LysoQQtu2baMu5zzuj/3799fX14eEhCCEIiMjf/zxR4RQcXGxvb09k8k0MTHJyclBCN29e9fQ0HDOnDlOTk4IofPnzxsYGDCZTFdX18rKSoTQ77//7ufn5+npaWZmZmtr22MCBwBHBQAAAAAAYHj5KlJSUkOo/IsXL4KCglRUVP7666/Lly9T5729vfPy8qKjox0dHQMDA7Eroqenp6enhxCqqqpyc3MTEhJKSEjg5eWdNm1aU1MTPz8/QujIkSNhYWGqqqre3t5Pnjy5cuWKnZ3d7Nmzm5ubCwsLly5damVllZycnJubu2bNGhkZmV27diGEtm/fvmLFisuXL8+bN8/AwODs2bMMBsPd3f3p06e42aioqMWLF7u4uNBotPHjx48ZM4b7fXV3d9NotPr6+sDAwJSUlOfPn2tra4eGhn6ofR4/fvzrr7+ePHmyxySJr6+vv79/UVHRgQMHfHx8Ojo6aDRaSUnJtGnTrl69+ubNmzlz5sTExBQVFTk6OgYFBSGEeHl5L168eOjQodu3b48fP37z5s3w7IxcYOkXAAAAAAAjxlchCIJzb/3AkZSUHELN09PT2Wz2mjVrnJycaDQa3trx9OnT3NzcVatWTZs2zc7OzsPDQ1ZWFiF05swZfNW5c+eam5t/+umnSZMmaWhoFBYWUuvfVq5cuWDBgqKiovz8/HXr1pmamtLp9GPHjqWkpEyfPr26ulpERERAQGDs2LEFBQU0Gk1DQwMhpKampqCggCdVIiIipKWlhYWFra2t//nnH3d3d4TQ5MmT16xZg0Xk5uZyuaPOzs74+PiKigoLCwtxcXEsESFkb29/7NixDzJOR0eHv7//tm3b1NXVOc+/evWquLh40aJFCCFTU1N5efkbN25ISkqy2WwfHx+E0KVLlywsLLBTFxgYuG7duu7uboSQjY2NtLQ0QsjNzW3lypXw4ICjAgAAAAAAMKx9lSEE78TAfoicnBw+WVFRgRDCGzxERUXd3Nx6XMVZQVVVVVVVlSpSU1NDCFVVVSGE/vjjj4iICHy+tLT03bt3CxcuzMzMbG1t7ejowDU5KS8v5+fnx0N5rAwWRDXLHezz8PLy6ujoJCQkiIuLs9nsnTt3pqamIoRYLJaysvIHGSckJERVVXXBggU9zldXV7e1tVEqNTc319TUSEpKiouL4y001dXVmZmZKioquAKdTq+pqUEIiYuL4zOioqIsFgueGnBUAAAAAAAAhq+vUldXh/2EIQHP57x58wYhhLdwUE4C3lnx9u3bEydOmJiYWFhYUFdxVnj8+PHly5dnzJiBi/ASKVxhyZIl1LyBhITEzp07k5KSLl++7ODgMHbs2N5BCBQVFTs6OmpqaqSlpfEWDkVFRc5muYM303OeOX369L///puZmclgMKKjo48fP46bovro3bt3/bV29erV2NjY/Pz83kWysrJ0Ov3ly5ecJwsKCqgocLKysk5OTgkJCb37Gh+wWKyhnUkDPtVRgcz0IBfkfstyAQAARq6vMvC89Qih2traIcxMP3HiRIIgduzYISQktHPnTnxSU1PT0NAwJibG0dExNTU1MjISLwnz9fVFCMXFxeENKjt27KDT6b/++uuDBw/8/Pw4m9XU1NTX179w4YK7u3tOTs6///4bHR3d0tKC3aGIiAjs5BQXFwsJCSGEkpOTdXR0FixYEB0dvWrVqv/85z+//vqrkJCQr68vvoqivr7e1dXV09OTWgnG3QlUUVFhMBgsFuv48eNNTU0IIQUFhcTERIRQa2vr+fPnOR0wChaLNX/+/CNHjvTpTigqKqqrq8fGxs6ePbumpmblypVUvAHMpEmTfvzxx6dPn2pqat65c+fkyZN79+5FCGVlZb148UJVVfXvv/+2tbWF52VIgMz0AAAAAAB8u77KCIoDpqmpGR4eXlxcvHjxYuxstLe3EwRx5swZY2Njf3//c+fOnThxYtKkSQih/Px8PMMgLy+fmJjY2to6ffr0t2/fXr16FacZoSAIIj4+fsyYMTNmzIiKipo3b56Ojs7y5cv19fW/++673NzckydPdnV1BQcHW1hYmJiYnD179syZMw4ODn/99dfdu3c9PT3b29svXLjQe7FWR0fHrVu3nj9/PpC7mzVrVk1NjZaWlpeXV2hoaGlp6fr1693d3YWEhIyMjHx9fadMmYJ3j/Tg3Llzr169cnV15eMgLy+PqhAbGxsVFaWhoWFlZWVra0un0zkvl5GROXbsmJeXl4aGxpIlS2bOnInPOzs7r1ixQlVVtaSkBIcRA0Yo/3/m9M2bN/1NiWIvp79ckp9SCnJBLsgdBLk98joDAAAM5ciDIN6+ffu5WhMVFcXvt/e+JwsLC3V1dQf//TwSd9SMaHbv3l1YWPjnn3+CKYb2Me/xs/+45whmVAAAAAAAGKkMPG897FX4dgDP8KsBHBUAAAAAAL4JXwUAgJEFRP0CAAAAAGDE+yo0Gq13eCtOhjbqFzBorFq1CowAjgoAAAAAAMAHY2dnJyoq+iVa1tDQ6BHKlhOcyQQAgBEELP0CAAAAAGDwuHbtGvllKC0t/ZoMdfDgQYIgsrKyhlX74eHhBEFcvHixvwqXL19WUlISEhLKzMz8oJZTUlI0NTXpdPqkSZNwIsuBl3Z1da1Zs4aHhwfcUXBUAAAAAAAARhhSUlLf5o33GRcYIeTs7BwfHz927NjPKy4uLq68vDw+Pt7AwGDgVzU0NMyZMycyMpLFYo0bN27FihUDL0UIeXt7jxo1CqerB8BRAQAAAAAAGEkMedSvO3fuWFtbi4iIaGho7NixgyRJHx8fDQ0NhFBVVRVBEDIyMgih1tZWPj6+LVu2cF7LZDKZTCZCyNTUVEZGBke1ysjIIAgiPDwcIRQeHq6qqiosLOzv79/a2ooQkpCQmD17touLy5QpUxBCO3bsUFZWFhISGj9+PJ5FuXTpko+Pz+PHj/vUDbfg7++/YsUKOp0+bty44uJiTpUePHhAEMT27dudnJyEhYWnT5/e0tKyevXqw4cPI4SmTZt2586dN2/ezJw5U0pKSk5OLiAgoLGxESH05s0bgiCWLl3K2dqlS5dMTU0nTZpEo9E2bNiQnJzc3t4+wFKE0KZNmzZt2gQ/cnBUAAAAAAAAgA+jrq7O2dn57du38fHxU6ZMWbt27V9//WVtbf3s2bOGhoaMjAwZGZmampri4uJ79+51d3fb2NhwXq6np6enp4cQ8vLyqq6uxikRk5OTEULe3t5nz5796aef5s6de/78+aSkpD/++AMhxM/Pn5KSoqqq+v333+fm5q5du3bJkiXXrl0TFxdfvXr1e3XDLSQlJSkpKe3du/fBgwcbN27kvIqfnx8hFBERsWzZsgULFiQlJZ08eXLVqlVubm4IoZs3b5qbm8+cOTM1NTUiImLTpk3Hjx9fuXIlQohGo40fP37MmDGcrT19+lRLSwsfi4mJiYmJvXr1aoClCCFDQ0P4jX2V8L158wYfNTU1Ucc9YLPZCKH+JtQ+pRTkglyQOzhyAQAAvgX6exMihCorK/sr+qLvZ0xCQkJDQ0NUVJSLi4uDg8PRo0fj4uJCQ0MRQvfu3bt+/bqdnV1+fn5WVlZzczM/P7+ZmRme68CcOXMGH3h5eQUHB6ekpJiYmCQnJ5uZmamoqKxbt44giODgYCEhoSlTpsTGxq5fvx4hxGAwDhw4gBC6ffs2QigvL2/8+PGJiYnCwsLv1W3+/PkIIQUFhTVr1iCEwsLCHj161Pu+pk2b5unpaW5uvn///kePHgUGBuKZq/Hjx5eWlmZmZi5btmz27Nn4Fk6fPn3s2DFJScnc3Nwe7bS0tAgKClJ/CgoKNjU1DbAUGBEP48c9R3xUqD7I5A1yQe5XLBcAAOBbgEsA4idPnhgZGQ3++xlTXl6OEFJUVEQI8fPzS0pKVlRUGBoa0un0u3fvXr9+ffHixaNGjcrKyuru7jYxMRESEuqzHU1NTX19/ZSUFH9//6KiIrzuq6qqiiRJaWlphFBHR4eAgACurKqqig9MTU03bty4e/fuhISEUaNG/fzzz9iT4aIbLlJQUMAHYmJiffoGuIKYmBhCqMdyLM5mEUJycnJtbW0sFktCQqJ3O8LCwpyTJI2NjXQ6fYClwIh4GCEzPQAAAAAAwHAEj9dfv36NB/S1tbWKioq8vLwWFhbXr18vLCy0sbGxtra+ceNGXl5ej3VfPfDy8rp9+3ZMTAxCyNvbG/sAPDw8ubm5+fn5jx49unfvHq7Jy8uLDwiC2LBhQ11d3a1btxwdHUNCQjgDZ/Wp2+e9Zey3jBo1SlxcvM/K2traRUVF+LiysrK9vZ1zbRj3UuArBhwVAAAAAAC+foY26pe7uzuDwQgNDU1NTV25cmVra+uCBQsQQtbW1ikpKSIiIgYGBtbW1sXFxY8fP+7tqPj6+vr6+lKOSnd3965du8zNzfF43cPDg81mnzx5sqysLCAgYP/+/T0uP3XqFJ1Oj4uLIwhCWlqaRqNRsy5cdPtE1NXVbWxsTp069ffff+/bty8jI2P+/PkEQdTX11tYWOzYsYOzsrOz8+PHj9PS0jo6OrZs2eLp6cnPz9/Y2Hj06NH3lgLgqAAAAHxBOjs7N2/e3NLSwnmyoKCg91e9kpISKur/8ePHB9h+aGjorl27EELZ2dkzZswY5Ltzc3OLjo7ur3TZsmViYmKJiYn9VZg0aRL1ffRL09HRoaSkxLmvKT8/H0cl+izk5uZyb43qqc8yKi0pKfm4a+l0Ol61MhB2794dEBDQ42R6evrAW+CsHx4e3ru19+Lv748Qqq2t/fHHH+F90h9DG/VLUlLy0qVLo0aN8vLyunLlSkREhI+PD0LIxsams7NzwoQJPDw82tra2JuysrLqcXl+fn5+fj4+1tPT09LSqq+vnzlzJj7j7e0dGhoaHR3t5uZGo9HwnnVOfHx8FixY8MMPP9jY2Ny6dev06dMMBuO9un06f//9t5OT03fffbd169Zly5bt3LkTv2du3br1/PlzzpoiIiKxsbFBQUESEhIvX77cvXs3QqiysnLJkiXvLa2rqxMUFBQUFOzu7lZUVBQUFOydaAUYqVBpkiorK/vLoNTZ2dnZ2fklSkEuyAW5gyCX80kfniQlJSGEampqOE8+fPhQQUGhR80//vgjLCyMJEk2m41jdA4Ee3v7+/fvkyS5adOmPXv2DPLdsVis1tbW/kolJCQePHjQX2lbW5uioiKbzR4cVa9du+bh4cF55t69e+rq6p+r/c7Ozh693F9PfTqSkpJPnz79uGurqqq6u7sHWHnXrl2LFi3qcXL69Ok3btwYuESqfnNzc2Nj4wdp29raunDhQtx9UVFR5DcM93fdUL2fh/8bGAAG4WH8uOcIZlQAAPji4HD7W7dutbCwGDVq1OrVq5OSkuTk5BQVFTMzM6Ojo6dNm4YQkpaWvnjx4sGDB52cnPCFNBpty5YtqqqqSkpKqampV65c2bJly+7du4ODgz09Paurq/X09MrKykRERLZv3+7g4MBkMqnv8bKysnjupaWl5dmzZ/r6+vi7NW78/PnzBgYGTCbT1dUVxwLy8PDYvHmzm5ubqqrqr7/+unPnzokTJzKZzPv377+3tL6+ftasWVpaWkwm89dff+1x+3PmzMERe8TFxQ8dOuTs7KyhobF161bcbENDg4+PT3Jy8sOHD62srLS0tAwMDLDnhhDKysqytLQkCKK4uNje3p7JZJqYmOTk5CCE7t+/b2hoGBwcbGVlpaOjk5GR4e7urqurGxQU9N5ShFB8fLyenp62tradnR21+JuyT1hYmLKysqGh4fnz53ERm80OCQnR1tbW1taeM2fO27dv8R3t37/fyclJRUUlISEhICDAwsLCxsYGb7q9c+eOiYmJurq6rq7u1atX8VdhCwsLhNCePXsWLVrk7+9vYWFhYmKCE4pTPbVnz54FCxb4+fkZGBhMnTo1OTl5ypQp6urqJ0+epCZemEzm2LFjly9f3tHRgRAqLCy0tLRUVFS0tbV98eIFrnbp0iU9PT1JSUlsbYTQiRMntLW11dTU7O3ty8rK+tNETU0Nbyb+559/mEymoqLi3Llz8Ubh3i30Zvv27ampqf7+/mfPnu1T2/DwcE1NTXV1dSsrq+fPn3PWj4yMxLMivX8tCKFt27YpKyubmJhERUWpqKjgk0VFRThy66NHj3R0dOCF0x91dXVgBACAGRX48g1yQS7MqPwfcJBNFRWV5ORkIyMjgiC8vb0TEhKEhITs7Ozq6urmzJmDR8mNjY0vXrzIzs7GMyoCAgInTpwgSfLQoUMTJkwgSTIoKAjPqNTU1AgICOD2xcTEQkJCSJKsqKgQFhYuLS0lSTIlJaWurg4f+Pr6kiT57t07ZWVlbC4Gg/Hw4UOSJMPDw/EcgpeXl6urK5vNfvLkCR8f37Fjx0iS3Lx5c2Bg4HtLAwMDlyxZQpJkY2Ojtrb2hQsXOG9/6tSpJ0+exN/4f/75Z5Iky8vL+fn5m5ubsfJlZWXd3d1jx46NiYkhSbKgoEBUVBTPPKxdu/bgwYMkSRoZGeGP5bdv35aXl29vb3/48CEvLy+21ezZs/X09FpbW1taWuh0ekVFBffS0tJSBoOBJxwOHTpkZmaGVTU3Ny8qKnr06BGDwaisrGSz2f7+/nhGJTY21sjIqKmpic1m+/n5rVmzBt/R9u3bcSOCgoK4wYkTJ8bGxpIkaWxs/Ndff5EkGRMTo62tTZLknTt3cGsRERGSkpL4dxsYGIjNQvVURESEnJwci8Xq6upSVFTE8xUZGRm4kYSEBB0dnYaGhq6uLnd39z179rDZbH19/bNnz5IkuX379smTJ2PdgoKC2Gx2UVERjUZrbm7G60OePXtGkuSSJUtw3/WpibCwcFlZ2evXr6WlpV+8eNHV1eXm5hYWFtZnC33OqOjq6uIZkt7a1tTUiIuLv337liTJY8eO7d+/n7P+zp07cWu9fy2PHj2SkJDAO4ldXV2xJRctWjR+/HgLC4sZM2aoqqq6urpeu3YNPuL2N2EIMyoAADMqAAAAfeDm5jZ16lQfHx+SJOfPnz9jxgxTU9Pi4mIJCQmcj3ncuHGioqIqKioTJkzAl/Dz88+dOxchZGFhwX3Fv6enJ0JITk7OyMgIZwxwcXHBQTCpWYJr167Z2triD+0WFhY4e1pgYGBSUlJ3dzdCyNXVlSAIdXX1rq4uV1dXhJC6ujqVe4FL6fnz5xcvXowQEhUV9fDwuHTpUn964hA9CgoKwsLCnKuoX7x4UVZWhjfL6urq6ujoZGdnU8q/evWquLh40aJFCCFTU1N5efkbN27gj+7YVnjTqqCgoJCQkKysLI5ez6U0LS3NysoKbxeZN2/e7du3GxsbGxsb37x5o62tnZGRYWtrKysrSxAEtj++Rz8/P2FhYYIg5s2bR93j1KlTsQhVVVXcIGWWrKwsvHfC3t6+x3p0hJCVlRUOXqmjo4M7l+opXMpgMHh5eVVUVJydnTmbTUxMnDdvnpiYGC8vb0BAwL///vvq1atXr155eHgghH744Qcq48TChQsJgtDW1qbT6VVVVRISEtXV1Wpqaj1U6q0JJi0tzdLSUkVFhZeX9/Tp0z/88EN/LXCht7bCwsIkSZ46daqurm7+/PnLli0b4K8Fp9qQlZWlnguE0OHDh+3s7M6ePZuQkGBmZnb+/Hk7Ozt42wAA8HXAR+VYYLPZ/eVb4J6H4VNKQS7IBblDK3cwwd6IiIgI5zFeCdMfoqKi+ICHhwf7Ev1BhbwUFRVlsVicRenp6cuXL8fjTkdHR4RQdXV1ZmYmtXKGTqfX1NQghHASNBzQc9SoUfiYksultLq6mtqnKyEhgdeD9Qm+/d53VF1dLSEhQRAE1UhNTU19fT2LxVJXV8/NzW1ra8PjY4RQc3NzTU2NpKQklbWNl5cXq0RpRaPRuJRyKiwoKDhq1KiampqHDx/a29sjhOrr6yl7UhkPetwjthinWXqIwGP0/fv3d3Z2dnV19U482tsUVE9RzXK2zGntc+fO4TR23d3dMjIy1dXVOI0DQohGo9FotD5/P2w2e+fOnampqQghFoulrKz83k6hNhxjHfprASGUl5c3efJkhJCjo+Pp06c5G+mhrZCQ0JUrV8LCwoKDg/EiLirZBXcT1dXVUd3BKfrNmzdycnJdXV3UjX/LcHnjSUpKDsn7GQDgYfzo5whmVAAA+BqgVp+zWCzO2D7V1dXNzc3YJ6E+2MvKyjo5Ob38HywWi0uSuIEwevRoauBeW1uL3bAPbaG+vp4azeNGLl++PHHiRKwwnU6nFK6pqcHf2j+Lwi0tLS0tLTIyMpR9xMXFGxoacCk17fOh9/j69esFCxZERUXdvHkzISHhvSpx9hR3ZGVlQ0JCsCnKyspyc3M5rdfR0UFtuenB6dOn//3339TU1Fu3bv3yyy8fZCUWi1VWVsalBQMDg4KCgoKCgoMHD3LXFiFkZGT0999/V1dXm5ub9w7Q1B9iYmKNjY34GG+Pefbs2YwZMzIzM93d3Z2dne/evevu7t7c3AwvhD7pM8/gkFBUVEQQxKZNmwZSOS0t7cKFC9RVW7ZsQQg9ffo0MjKS+o1RU5EDJD09nSAIvv8Ldb5HQEUmk2ltbf3eUvyYLFu2TF5eXkBAQEtLa+vWrf19YFq9erWEhATnLi9ra2t+fn5BQUE6nW5kZJSSkvIlLM8loN/HBdxDnzs0ItDTUaF+oDw8PHxDAcgFuSD3S8sd/m8inIM5Ojq6oqLi5cuXeLN4n9BoNDyGptFoXV1d1JgMb7N+/vz5/fv3LS0tEUIXL16sr69PT093cHBACFVUVODIlQihSZMm5eTkPH36FCF0586d77///hP1nzZt2pEjR/D/6X/++QeK57kKAAAgAElEQVSvhrp69SoVTvS9qKmpKSsrx8XF4X97JSUl1tbW1BSQoqKiurp6bGwsQqimpsbPz6/PFNEDZ/LkyTk5OTh675EjR2xsbERERNLT07G4CRMmXL9+vbKysru7mxqUTJs2LTY2tqWlhc1mHz16FN8jF1gsFp1OV1NT6+7u3rt3L5vNbm1t5T5ywj31XqZPnx4dHf3u3TuEUFRU1PHjx5WVlceMGXPixAmE0IEDB1atWtWfN6uiosJgMFgs1vHjx99rQycnp5ycnEePHnV3dy9ZsgQv1uqvBRqNJisrKysriyejqB9qb21v3rzp6enZ1tZGo9G0tLSwf0XV54KZmVlGRkZdXV1nZ+fhw4cRQurq6lu3bl26dGlCQsKsWbMiIyMTEhKoyahvk2H4fv7EOwoODsaOioKCQnx8PP5IcejQIcpR+TjwKlZO8HklJaVTp05R1e7du4d/ve8t7ejowOtUL126VFdXd+zYsbi4OLwmtgfd3d1JSUlr1qzpEbf96NGjbW1tjY2NK1eunDlzJt5g+Xl5/vy5vLx8n0XLli37448/wDEYnIfxA4Y3YEcAAIYcLy8veXn50NDQhw8fXrx4kcvXbldX18jISH9/fzExMQcHhzFjxuAdKQoKCvr6+vb29jt37pSTk0MIzZ8//9GjR9QsATUKRwjJyMgcO3bMy8tLQ0NjyZIlVC6CjyY0NLShoUFLS8vS0vK7777DA+5Dhw4lJycPsAWCIOLi4vbv36+trT1//vy4uDhxcfErV65QOsfGxkZFRWloaFhZWdna2tLp9E9RWFFR8fDhw+7u7lpaWomJicePHy8rK+Pj48OmGzdu3PLly42NjXV1da2trfEIxtvbe+rUqUZGRkwmU0xMbO3atdxF6Onpubq6amtrm5qauri4WFtbc//oy7lB5b2Oiqenp4mJiZqa2tmzZ52dnQmCiI2NPXDggKys7D///IPXWfVm1qxZNTU1WlpaXl5eoaGhpaWl69ev5yJIQUEhKirK3d0dZ2b44YcfBt6Ch4fHrFmzIiIiemtrZmamoqKCQ4cdOnQIp72j6nPRx9TUdN68eQYGBra2th4eHnihYHZ2Nt6JdOfOHXNzc3iZcGHIo34dPHhQXl5eQUHh3Llz1MnS0lJXV1cxMTEVFZWoqChqmoLJZCKENDQ08vLy9u/fb2Fh8fr1ax8fnzNnzgQEBPz++++FhYUEQbS1tfWYFlBVVRUWFvb398efBpYuXUoQBN63NhDGjh1bUlJC1Y+NjcXzuu8t/fvvv2tra8+ePaunp0en062srM6dOxcTE9N7hvPixYsWFhZz587l9HkoeHl5Z8+e3dTUVFtbixDqHQ7x999/p9JhOTs793DYuIcixAH9cFDEkJAQOzs7LS0tvJiTM+DeBwUzBL4sECUJ5IJciPo10hETEysvL4coK8BXD5Xd5erVq6ampmCQERT16/nz5zw8PJaWlmlpaTg+xMaNG0mSNDExGT169Llz5xYuXIgQyszMxGEGvby8SJK8desWQmjmzJmPHz/G4RN/++23ly9fjh07Vl1d/c6dOzijlKOjI0mS//zzD0Jow4YNV69eFRER2bJlC0mSW7duHT9+fG1tLadKaWlpfeZHwrO4q1at2rVrF0mSbDZbTU3t9OnTVlZW7y0NCAhYvnx5jwZtbW1xXDtOvL2909LSSJJ0cHC4ffs2PmllZYWjI3Z2dkZEROCfd5/hELu6uoyNjVNTUxMSEiwsLHqkPOIeihAH9MNBEVNSUnA8QxxSkjPg3gcFM/y8yaYg6hdE/QIA4Ov85gJGAL5uampqGAxGYWEhQujEiRN4iSMwUkhPT2ez2WvWrHFycvr555/xyadPn+bm5vr5+U2bNm3Xrl1JSUl4v9yZM2dw8DqcGEdaWhpPsGDGjBkzatQoQUFBExMTKgIHntMgCCI4ONje3n7KlCl4sWhwcHBubi7nzj3M8+fPBTnAbhLGz88vJiYGIZSTk6OhoTF69GjOC/srbWho6L11TU5OrsdEFovFysvLw9POc+bMwSs2MYGBgQwGg06nb9iwYcOGDaifcIi8vLx//vnnf//733Xr1kVFRfHw9BzKcglFSCEsLOzi4oJ6xfp7bwvcgxkCnx0+MAEAAAAADH+kpaXDw8Pd3Ny6u7uNjY137twJNvkgpKSkhlA6XsiE/RC8xhIhhPOK4vG9qKiom5vbp4ioqqoiSVJaWhoh1NHRISAgwKWympoa3qXWG1NT04aGhqdPn8bFxfn5+Q2wdPTo0a9fv+5RubKyEscSpIiNja2oqMCBDUiS5Ofn/+OPP3DAukOHDs2ZM4ckyeLi4unTp+Mu6x0OESFkbGwsKirKy8uLM/n2gEsoQor+Yv29twXuwQyBzw7MqAAAMOJpaGjAu+QB4OtmyZIlL168ePXqVUJCQu9v5AB3htZiWDre3UFFu8IeC/5U//bt23379t28efOjRcjJyfHw8OTm5ubn5z969OjevXsf3dTs2bPj4+OTk5NxeqKBlDo4OCQmJnLGzCgrK7t9+3aPvWd//fXXtWvXGhoaGhoaGhsbJ0yYcP78ec4KOPfRlClTUlNT+wyHiBA6f/48Hx9fe3t7j2u/NB8azBAARwUAAAAAAGC4M3HiRIIgduzYkZqaGhYWhk9qamoaGhrGxMScO3cuODh4xYoVOIiWr68vXu8kICBAEMSNGzcyMzM5WxMSEsL+ant7O3XSw8ODzWafPHmyrKwsICBg//79CKEdO3ZYWFjU19d/kLZ+fn6RkZF44mKApe7u7ioqKu7u7o8ePWpra7t9+7a7u/vChQs5Q/c+fvy4rKyMM+qDu7s75+ovTElJSUpKiqGhYZ/hEJubm1euXLlv3759+/YtX758MONxf2gwQwAcFQAAvgZ8fX05V1pjCgoKes+TlJSUZGVl4eMe4fy5EBoaumvXLoRQdnY2FS5mRNPV1YUD5uTm5n6WEP5fKBUAZfn+9O+Tffv2zZkzp8dJBoPRXwIETv25JEOgbMVd+u7du6kWYmJicGTYoKAgKocJMEIZ2qhfmpqa4eHhxcXFixcvxium2tvbCYI4c+aMsbGxv7//uXPnTpw4MWnSJPx7xsHNaTRaQEBAUVHR1q1bOVtbuHAhSZKrVq3iHKZ7e3uHhoZGR0e7ubnRaDScouf58+e3bt3qnVr32bNnPeLAZmdnU6Xa2toyMjKzZ8/u8176LOXl5U1NTdXW1nZ2dmYwGHPnzvX19e0RyO6vv/6aPn0659t+2rRpFy9exF2zcOFCvGHG0dHR19d30aJFfYZD3Lhxo5ubm76+vqmpqaOjY0hIyKB14ocGMwQ+HYIKU11dXd1jvxTnfxSEUH+xwD+lFOSCXJA7CHKFhISG+V5zX1/f06dP91CyoKDAxcWlx9h0165d7e3t69atI0lSTk5ugDE3J06cuGfPHgMDg82bN4uLi3964pQh5969e8HBwRcvXuzq6mpoaPj0xff5+fne3t79rVnnTnd3Ny8vL3fL96d/f47KzZs3e+RYYDAYffquPfRvaWnp6urq8zMwZSvu0nfv3l1QUIATlaxfvz4gIEBVVXXOnDk99AGG45iGILgk38jOzrayshr89zONRoNoHwA8jB/3HMGMCgAAg8GOHTuUlZWFhITGjx+Pp0SqqqqcnJyEhYVnzJjBmQqASiCA/8Fv2bJFVVVVSUkpNTX1ypUrW7Zs2b17d3BwsKenZ3V1tZ6eXllZmYiIyPbt2x0cHJhMJvX9XlZWFgtqaWl59uwZ3nOJk3UoKSnhEfnp06f5+flbWloQQn/88YejoyP1IX/s2LE4RQabzZaQkPDx8cEj16qqKoIg0tLSEEJ3797lHIK/fPnS1tZWU1NTTU2NWtoRGhrKZDLHjh27fPly/FHzQ4P09w75/+7duxkzZmRnZzs5OeXn51tYWCCESJLcsGGDqqqqsrLy77//XlJSoqSkhHX47rvvqNTR06dPP3v2bHFxsb29PZPJNDExodJrEgTx3//+V1lZWVNTs3d+gPj4eD09PW1tbTs7O5wY4Y8//liwYIGhoeEvv/zS1tbm7++voqLi6Oi4adOm+fPnc1q+h2U49UcInThxAicVsbe3p9bud3d3z5w5U15e3tjYuLS0tL/fVVhYmLKysqGhIbVUnUqGcOnSJS0tLR0dnT179igoKLx8+RLbaiDSOftURUUFnl8AAIChAfJOgFyQC3lUvjR37txBCP322283b950dHQ0NzcnSRKPZSMjIw8fPoyj0+DKVAKBhw8fCggInDhxAsezx6Hug4KCwsLCSJKsqakREBCg8qiEhISQJFlRUSEsLFxaWkqSZEpKSl1dHT7w9fUlSfLdu3fKysokSc6dOxc3GxQUZGZmdvXqVZIkPTw8Dh48qKamRpJkdXW1mZmZvb09SZLYTzhy5AheaxEfH29mZoYTIOzZs2fVqlXUbQYFBf32228kSTY0NHh5eTU0NCQkJOjo6DQ0NHR1dbm7u+/Zs+cjgvT3GfI/Pj5+8uTJ2LY4hP+ZM2fMzc1bWlrq6uoUFBRu3LihpKT06tUrnKjBxMSkra2NzWZLS0vX1dUZGRlFRUWRJHn79m15efn29vZ79+7x8fEdPXqUJMnjx49rampy9mBpaSmDwcCqHjp0yMzMjCTJvXv3SktLP3v2jCTJAwcO2NjYdHZ2vn79WllZGacjoCzf2zKU/nV1dYKCgriRJUuWBAYGkiQZEREhISHx6NEjkiRnz579888/414uKyvj1OrRo0cMBqOyspLNZvv7+2M74GQIXV1dCgoKFy9eJEly48aNfHx8ZWVllK24S9+1a9eiRYvS0tJmzJihoKAwY8YMFxcXdXX1pUuXQm6EEZ1HpaCgYAjzqAAA5FGBPCoAAAxHcMyWvLy8+vr6xMREHNbm0qVL48aN++677xYtWsSZEYJKIIAQ4ufnnzt3LkLIwsKCy/4EhJCnpydCSE5OzsjICOeqd3FxwREwqZTn165ds7W1RQhNnDjxxo0bCKGbN28uWbIEr8y+efOmr69vV1dXdXV1VlbWpEmTWCxWZ2dnVlaWo6MjdUlmZmZQUBC+BBdROsjJyaWnp9++fVtEROTMmTNiYmKJiYnz5s0TExPj5eUNCAj4999/cc0PDdLPPeQ/Jjk5edasWUJCQniIb2pqinWur68XEhIyMjLKzc19/PixsrJyU1NTcXHxokWLEEKmpqby8vL41gQEBObNm4cQ8vX1LSkpwdFUMWlpaVZWVljVefPm3b59u7GxkSAIY2NjNTU1hFBGRoa3tzcfH5+8vPyUKVPwVZTle1uGallCQqK6uho3wnnLVlZWY8eO5d71GRkZtra2srKyBEHg3wkFXgM2efJkhNDSpUvxooLe9CcdIeTk5HTixIlp06YlJCR8//33v/zyS38J74GRAsRJA4ARBzgqAAB8cUxNTTdu3Hj16lVXV9fRo0eHhoYihGpra3FKAcSRVaAH1E6DPkPdcyIuLk5dwmKxOIvS09OxO4HTKlOOSkNDAx8fn4ODQ3Z2dnFxsZKSkpiYGC66fv36hAkTxo0bd+/ePeyNqKqqtrW1sVisnJwcDw+PysrK7u7uW7duYc8Hs3btWhcXl4CAAHl5ebwCrbq6eufOnSoqKioqKkuXLsXxfND7gvTb29tbWFhMmzaNCsrJPeQ/prq6msFgUEbg5eXF95KZmWlhYWFpaZmdnY3vpbq6uq2tTU1NDSv28uVLnJpAUlISbzUREBAQEhLiNGN1dTU1yBMUFBw1ahR1CT5ZV1eH3UKEkLKycg/L97YMpxO7c+dOc3Nzc3PzjRs3UrfcX9fv3btXSkpKSkpq79699fX1VL9T0nvrIysry8/P358L3ad0zN27d42NjbGPjQ8AAAAAcFQAAPiqIAhiw4YNdXV1t27dwkFaqqqqJCUlqa3wvfcGfChUPB8Wi8X53bS6urq5uRlvM6A+8KuoqLx79+7ixYuWlpaqqqovX77MzMzk9GGys7MtLS3x4P727ds2NjYIITs7u0uXLpEkKSIioqenl5CQoKCgwLlpm4+Pb926dQ8ePMjMzPz999/v3r0rKysbEhLy8uXLly9flpWV5ebmcr+LTwnSP3r0aOw8IITKy8vr6+spR8XKyorTUZGVlaXT6S//R01Njbe3N0KooaEBz9d3dHS0trZympGz8ZaWlpaWFpzNgIreIyYmRgXFwr3JafnelqFaPn369L///puamnrr1q1ffvnlvbe5aNGigoKCgoKCRYsWiYuLNzQ04PNVVVWc1Tj1qaqq6h3y6L3SQ0NDV6xYERMT4+7uHhUV9fPPPx85cgSe5RHN0Eb9AgAAHBUAAIYjp06dotPpcXFxBEFIS0vTaDQBAQEHB4f79+9HRkYeOHAgLy+PqkwlEOgTGo2Gx6Y0Gq2rq4sKzXny5EmE0PPnz+/fv48Xkl28eLG+vj49Pd3BwQEhVFFR0d3dTcWMsrW13bNnDw4BxGQyjx49SjkqV65c6ejoEBcXnzBhwpkzZ+Tk5Oh0Oi7avXs33rk+YcIEvPkeIXT16lUcSHT27Nk4kJSSkpKoqCibzZ4+fXp0dDSeSImKinpvPOWBB+mn0WiNjY2coYRcXV1PnTr19u1bFotlZ2f35MmTMWPGNDY2Xr161crKSltbu7i4OC8vz9raWlFRUV1dPTY2FiFUU1Pj5+eH9/E3NTXhxWnx8fE6OjoSEhKNjY1Hjx5FCE2ePDknJwdHIDhy5IiNjQ01yYMxMzNLSEhgs9mvX78+d+4cdgux5fu0DKV/XV2diooKg8FgsVjHjx/HmnBBWFhYVlZWVlZWWFh4woQJ169fx7NbPWyroaHR3d19/fp1hNDevXt7RJIZiPT169cbGxunpaUlJCRYW1ufO3cOL5YDRi6cqxkBAABHBQAAACGEfHx8FixY8MMPP9jY2Ny6dev06dMMBmPbtm0TJkxYvXr11atXZ86ciRDCmcuoBAJ94urqGhkZ6e/vLyYm5uDgMGbMGLwjRUFBQV9f397efufOnXgh2fz58x89ekTNolDLkDATJ068efMmdlQsLS3z8vLwsbKycn19Pc5Hpqen9/DhQ2q03eOSnJwcXHTo0KHk5GSE0I8//hgSEqKqqqqrqztz5kwTE5Pp06d7enqamJioqamdPXvW2dmZu6EGHqTf3Ny8oqKCiuuFEPLy8po6daqurq6+vv7SpUuxtzZhwoSmpiYpKSmCINTU1KSlpfFis9jY2KioKA0NDSsrK1tbWzqd3t3dPXbs2OzsbG1t7d9+++3QoUMIocrKyiVLliCEFBUVDx8+7O7urqWllZiY2NvjWrJkCT8/v4qKyuLFi+fNm0cQBGX5Pi1D6T9r1qyamhotLS0vL6/Q0NDS0lIcbG0gjBs3bvny5cbGxrq6utbW1pwbUQQEBCIjI+fOnTtu3DhlZWVhYWHO1A0DlN7Z2cnHx/f8+fMvkWEGAAAAeC8E9UHuzZs31HrxHnzR+OIgF+SC3C8t96uP4s9gMAoLCxUUFOCdPoSw2WweHh6E0KZNm1paWnbs2DG0+uDfPEEQ3d3dAgICb9++pXYEAV/tmIYguLzrCgsLdXV1B//9zF0rAPhGHkbIowIAwLcLjAOGlnPnzjGZzJaWlqamprNnz3KGcRsqTE1N//zzT4RQdHS0rq4ueCkARP0CgBEHHzVXzmaz+wvg2N/5Ty8FuSAX5A6tXAD4LEydOvXixYva2tq8vLw+Pj7u7u5DrtLevXuXLl0aGho6evTo9+4OAr4auLzxhur9DADwMH70c8QHdgQAYKRDhX4ChgpeXt7IyMjIyMjho9KECRMePHgAXQNQ1NfXjx49GuwAACMIPmo1GA8PD5cVlojr+stPKQW5IBfkDoJcAACAb2RY019RXV3dkLyfAQAexo9+jmCPCgAAXwPe3t6HDx/ucTI9PR0nNS8pKcnKyhpgU5MmTbp37x5CKDQ0tEd2wkGATqf3l4i9ra3NzMxMSkqKyj/Tg46ODiUlpR5ZC78c2D5dXV2nTp36uGsHR8+P07AH+fn5nyX2V2BgII6pPWfOHHhsAQAAuAOOCgAAwx3uOem5EBERgQf9SUlJA3RU2tvbi4qKDA0NUa+IxoPD8+fP5eXl+yx6+vRpaWlpVVVVfxHebty4YWpqikNvDQLYPg8fPsRJbD7i2o8W/UHO2Mdp+IV49+6dsLAwjsUHj/YgIyUlBUYAAHBUAAAA/g8PHjwgCGLr1q0WFhajRo1avXp1UlKSnJycoqJiZmYmQqipqWnx4sXS0tJSUlJhYWH4KgkJidmzZ7u4uEyZMgUhdOfOHWtraxEREQ0NjR07duAwX76+vlu2bMH1y8rKJkyYIC0t7eHh0d3dvX379tTUVH9//82bN2/ZsmX37t3BwcF5eXm6urqrVq2ytrbW09O7du0aQqioqIiabs7KyrK0tCQIoqWl5dmzZ/r6+gih0NBQJpM5duzY5cuX4xzn4uLi+/fvd3JyUlFRSUhICAgIsLCwsLGxwRkDuZc+fPjQyspKS0vLwMAgKSmph63U1NQqKiru379vaGgYEhJiZ2enpaWVmpra0NDg4eHR0NAwbty4qqqq+Ph4PT09bW1tOzu7oqIiavSPU5ecP3/ewMCAyWS6urpWVlYihPbs2bNgwQI/Pz8DA4OpU6cmJydPmTJFXV0dj+C5l7LZ7JCQEG1tbW1t7Tlz5rx9+xYhhO2joqIyY8aM7OxsLLe3Vr///rufn5+np6eZmZmtrS32Gynbcpfbp+VFRUXDwsIkJSWbm5uLi4vt7e2ZTKaJiUlOTg6+pIcO7969+wgNufRRn9Z4+fLlhAkTNDQ0FixYMGvWrOPHj5uYmJw5cwZfkpSUZGRk1MPnhNwsgw9E/QKAkQf5PyorK8l+6Ozs7Ozs/BKlIBfkgtxBkMv5pA8Jjx8/RgipqKgkJycbGRkRBOHt7Z2QkCAkJGRnZ0eS5IoVK3h5eRMTE/Fu7KysLJIkZWRkxMTEli5dmpSUVFtby2Aw9PX1U1JSli9fjhA6duwYSZJ37tx58uQJSZJeXl4WFhaNjY0tLS1qamqXLl0iSVJXV/fGjRskSQYFBYWFhZEkee/ePYIgcGlCQoKmpiZJku/evUtMTMSqrl279uDBgyRJpqSk+Pr64mo6OjoNDQ1dXV3u7u579uwhSVJSUnL79u0kSR46dEhQUPDp06ckSU6cODE2NpZ7Kc6rGBMTQ5JkQUGBqKhoTU0Np62EhYXLysoePnzIy8ubkpJCkmRsbOyECROw8urq6iRJlpaWMhgM3OyhQ4fMzMzwtebm5kVFRZWVlQwG4+HDhyRJhoeHe3h4kCQZEREhJyfHYrG6uroUFRUXLVpEkmRGRoa2tvZ7S2NjY42MjJqamthstp+f35o1azjtEx8fP3ny5P602rVrl7i4eHV1NUmSq1atCggI4LyWu9w+LS8hIbF69Wo2m02SpJGRUVRUFEmSt2/flpeXb29v71OHD9Wwzz6ijN+nNWbNmrVu3TqSJNPT0wUEBE6ePPn7779jy5MkuWDBgrCwsF27dk2ePFlDQ2PGjBk45eW+fftI4LPC/V03VO/nIX8DA0NLU1PT48eP09LS4uLiIiMjw8PDf/vtt+Dg4FWrVgUGBs6dO9fb23vq1KkTJ060sLAYN26cpqamoqKipKSkpaWljIyMqqqqjo7O+PHjbWxsnJ2dZ8yYMXv27IULF3733Xc//fTTL7/8sm3btj179kRFRZ09e/b27dsVFRXD82H8uOcI9n4BADBIuLm5TZ069cGDB/fu3Zs/f/7UqVNNTU2Li4sRQn///bepqen06dMRQps2bYqNjcUJ4BkMxoEDBxBCR44caWhoiIqKcnFxcXBwOHr0aFxc3Pz5801MTKj2fXx8REVFEULjxo3rb5sH/iQ/adIkhNDUqVM9PDxqa2ulpKSwaDwpcfr0ac7ZicTExHnz5omJiSGEAgICwsPDv//+e3w5QkhdXV1VVRV/HVdXV8fTF1xKX7x4UVZW5uvrixDS1dXV0dHJzs6eMWNGbz2FhYVdXFwQQjo6Oj1uJy0tzcrKCjc7b968wMDAxsZGhNCbN2+0tbVPnDhhYWGhp6eHEAoMDFy3bh1eO2dlZcVgMLDH6Ozs3ENhLqXnz5/38/MTFhbG4tatW7d9+3bOxPPctbKxsZGWlsY/gJUrV3LalrvcPi1PEISXlxdBEK9evSouLl60aBFCyNTUVF5e/saNGyUlJX3q8EEa9tlHY8aMwY30aY2MjIyff/4ZIeTo6KiiooLn+jZs2NDY2Ein05OSkm7duqWmpqaurt7U1DR79uy1a9cGBQUpKyvDa2Ewqaur62/ZJAB8Iu3t7WUclJeXU8d496CioqKpqWlDQ8OoUaOEhIRERESkpKSEhITodLqQkJCQkBA+Tx3QaDQBAYH29vaWlpbW1tbW1tYeB1VVVXx8fK2trSwWq6KiorW1tbm5+enTp+Xl5dXV1YqKikr/F3xmxAW+A0cFAIBBQkZGBiEkIiLCedzR0UGSZE1NTW1tLZ1ORwi1traWlpbiS1RVVfEBHqkrKioihPj5+SUlJSsqKnp7IPiAh4eHy7YWPCxGCPHx8QkJCbFYLGrlen19PYvFUldXx4NpPHVTXV197tw57C91d3djzbEjgRDi5eWlMgny8vJScvsrra6ulpCQIAgCn5SQkKipqelTT2yoPm+nurqaWsQiKCg4atSompqahw8f2tvb49LMzEw8XEYI0el0LAKrxKlVb4X7LOUURylM2Ye7VgghcXFxqoNYLFaPa7nL7dPyWEp1dXVbW5uamho+2dzcXFNT058OH6Rhn31EOSp9WqOurk5CQgKfxO6HvLy8ubn52bNnVVRUVFVVsZ55eXn+/v4IodLSUvBSBp/a2lowAvDpsNns/Pz8/Pz88vLyvLy80tLSioqKt2/fcnoF48aNcwjVjd8AACAASURBVHNzk5OTU1JSwt9BejOQTO3UP6zevHnzpj/Hu729vby8vLKyEntKT548waFlysrKGhoasIZjx45VVFQ0NDQ0NDTsb2MkOCoAAACIIAgZGRlFRcWYmBh8RkhIiBq84gPsorx+/Rq/gmtra/GMwUdQX19PkiRBEPhLFeey9cuXL0+cOBEPRpubm/FYX1ZWNiQkZNWqVZ/lZkePHl1fX89ms/GW99raWmr8/UGN4L09CKGWlpaWlhYZGZldu3bhaQpZWVknJ6eEhITP1UGjR4+mhvtYYU77cNcKD+LxSRaLJSkp2ee1fdKf5bELISsrS6fTX758yVl05MiRPnX4IA2591FvayCExMTEGhsb8a+0rKwMl/r5+Z0+fVpLS2vWrFkIodmzZ2dnZ+PFh3l5ee7u7sHBwebm5vAGAIBhTl1dHfZM7t+/n5+fX1hYiMf3VlZWhoaGQkJChoaGfXojQ5UMlJeXd8yYMfijWw86OjpevHhRXl6OP2/t378/Pz+/s7PT0NBw3Lhx+L50dXWHj/FhMz0AAEOPh4dHfn5+bm7u3bt3vby88B53Ttzd3RkMRmhoaGpq6sqVK1tbWxcsWIAQys3NxYvH+oRGo+FckNQBHqH+888/CKH4+HhdXV0JCYmmpqZz584hhNLS0nAoqvT0dAcHB1x/+vTp0dHR7969QwhFRUV9Yo5zNTU1ZWXluLg4hFB+fn5JSYm1tTVCKCYmpqqqaoCNTJ48OScnp6SkBA/NbWxsREREqDhakyZNysnJefr0KULozp07eKHapzBt2rTY2NiWlhY2m3306NGpU6dy2odGozU2NpIk2adWCKGsrKwXL14ghP7++29bW1vOa7nD3fKKiorq6uqxsbEIoZqaGj8/v6ampj51+FAN++uj/qyBEDIzM8M/qgsXLlDzgV5eXjk5OWfOnPHx8UEIxcbG2traJiYmbt++PSAgICEhAbyUQQaifgEDpKSk5MyZMyEhIdOmTVNSUtLW1g4LC6usrJw0adKpU6e6u7vz8vKOHDmycOHC6dOn6+vr9zdnMgzh5+dXV1e3s7Pz9fUNDQ09f/7869evCwsLf/rpJxkZmZSUlFmzZtFoNFNT04CAgH379mVlZeEwMEMFHxWPv6mpqb/Y/DgQZH8hLz+lFOSCXJA7OHKHOWFhYc3NzcuXL+/u7vbx8fHy8upRQVJS8tKlS6tWrfLy8pKXl4+IiMCDv/DwcD09vZCQkP78n1mzZm3ZssXV1dXLy6usrOynn35SU1O7cePG+vXrCYI4cuQIQqi8vNzT07Orq+vKlSs4hlh6ejoONYaHywUFBSYmJp2dnVpaWkePHv2UOyUIIi4ubunSpZs3bxYSEoqLi8Prjn788cczZ84McHZFUVHx8OHD7u7uHR0dysrKx48fLysr4+Pjk5OTQwjJyMgcO3bMy8urpaVFREQkIiLiE3vH29v7wYMHRkZGJEna2tquXbt2xYoVlH3Mzc0rKiqUlJTKy8t7aIUrODs7r1ixorCwcMyYMXFxcT///DN17XsdFe6Wj42NDQwM3LBhAw8Pz48//kin0+l0em8dPlTDPvuIcj96WwMhtH37dj8/v+joaEdHRycnJzznIy4uPnHixNraWrzKq7i4GG+Pyc7OtrGxgbHgF6K/NyFCSEBAYEjez8Dwp62tLT09/ebNm1euXHnw4IGMjIyurq6uru7MmTM3btwoLy/P2b89fkVfx3hDX19fX19/zpw5bDa7q6vr8ePHhYWF9+7dO3XqVEFBwejRo11cXJhMpqOjo46Ozsc9jB93vwTemI+4rnUbyCq6jysFuSAX5A6CXBqNRj3p3zj5+fk+Pj54tgEYBHbv3l1YWPjnn39+9RpSS8Xs7e3XrFnj6uqKEAoMDBw3btyyZcvglzA4EATB5V03VO9n7loBQ0hGRsbly5cvX7589+5dJycnNzc3PT09Q0NDau8cjDcwz549e/z48aVLly5fvlxXV+fk5OTo6Ojo6Mhlr13vn/3HaQV7VAAA+LaAEQMY/LNruHr16srKyujo6OLi4vz8fGNjY4RQYWHhhQsXdu7cCb+BYQJE/QIQQnl5eZf/h7W1taOj47Zt2ywtLbm4BIC6urq6urqbmxtC6MGDBw8fPrx8+fKmTZv4+fkd/wcVUOTzAr0CAAAAAJ/ETz/9NGfOHGVlZUFBwcjISFlZ2XXr1h0/fvzQoUNUMDpgyIGoX98sT548oZwTDQ0NR0fH//73vxcuXMDxWoZqy/sIZfTo0f7+/jiAYUlJyeXLl+Pj45cuXaqsrEw5Lfz8/OCoAAAAfDCGhoZ4LzUwOHyuaGnDXEMZGZm0tDTOM9u2bdu2bRv8AABMZmYmbEwaZF6/fk05J3Q6feLEif7+/kePHsWpmYDPgoaGhoaGRmBgIEIoPz8/LS1t79697u7uZmZm4KgAAAAAAAAMlKGK+nX27Nn169ffvHkTf2x2cHDAiwOBz05DQwPlnDQ3N2ODb926FccpgcVdXxRDQ0M9Pb0ffviBj48vKyuLSzazDwKCVAAA8MUpKioiCAIH1Hovvr6++N/Je69KS0u7cOHCB7VfUFCAk11wUlJSkpWVhY8HHn04NDR0165dCKH+Ust/UcLDwwMCAvorXbZsmZiYWGJiYn8VJk2adO/evcFRFWdl5h59Ljc3F0fE4mT37t2975HBYJSXl+fn5/eu37t39u3bN2fOnPdqSLXGxao4Xdp7LR8TE4N/k0FBQTjtPTB84EyaNJhYWlpev369ubl55cqVVVVVixcvFhcX9/b2PnDgAJfo6sAA6ezsvHjx4k8//WRsbKyqqhobG6uvr5+UlFReXv7XX3/NmzdPQUEBrDTIWFtb29nZfZamwLkEAGCYoqCgEB8fzyWxY3BwsIWFhaur63trcicpKam9vd3a2pokyXXr1s2fP38gV6Wnp+/Zswcf4AQmg8myZcu4rKs+ffp0VlaWvr5+n6Xt7e1FRUWGhoaDo+qNGzdMTU25B281NDS8efPmZxSKe+f69eufy6oRERHBwcGKiorcLV9YWIjdmMbGRlhhAnBCo9FcXFxcXFwQx4f/3bt3Ux/+HR0dYUg9cDIzM69cuXL58mVqqmrbtm3Ozs5gma8MmFEBAGCQaG1tdXV1FRYWdnNza2lpQQi9efNm5syZUlJScnJyAQEBPb5Av3792sfH58yZMwihlJQUfX19ISEhVVXVqKgohJCGhkZeXt7+/fstLCw4a5aWlrq6uoqJiamoqOCaCCEmk8lkMqnhwpYtW1RVVZWUlFJTU3HulN27dwcHB3t6elZXV+vp6ZWVlYmIiGzfvt3BwYHJZOKZE4SQrKwsnntpaWl59uwZ9gTS09NxSvjz588bGBgwmUxXV9fKykqE0J49exYsWODn52dgYDB16tTk5OQpU6aoq6ufPHnyvaX19fWzZs3S0tJiMpm//vprD2NGRkb++OOPCCFxcfFDhw45OztraGhs3boVIeTh4dHQ0ODj45OcnPzw4UMrKystLS0DA4OkpCR8bVZWlqWlJUEQxcXF9vb2TCbTxMQkJycHIXT//n1DQ8Pg4GArKysdHZ2MjAx3d3ddXd2goKD3liKEsLuora1tZ2dXVFRE+QxOTk7cr83Pz7ewsEAItbW1+fn5jRkzxtra+vnz57iF1NRUTU1NJpP522+/4RQlnISGhjKZzLFjxy5fvryjo6NH73R3d8+cOVNeXt7Y2BjnQunTJj2sGh4erqmpqa6ubmVl9fz58+3bt6empvr7+589e5aqU1hYaGlpqaioaGtri/NFIoRevnypoqICD/vwpK6ubphowmAwvLy8IiMjCwsLs7OzHR0dL1++bG5urq2tvWzZssTExCdPnkB/9aCxsTEjI2P//v1Tpkzh5+dfv349SZKhoaEdHR0pKSmrV682MDAAK32FdP6P169fd/ZDa2tra2vrlygFuSAX5A6CXIQQOaQ8fvwYIaSgoLB9+3ZPT0+E0IEDB0iStLGxERUVjYmJOXjwIC8v73/+8x+SJGfNmsX7/9h787imju7xf0KIbAHCIgSIEQmSsIOyyiYIxYJCWBQEpFJ4BBGr2Cpq6WOxIkVpRVGr1K2KgogKIi6AVoqKClYUVBREaVAwYRUIe+7vj/k895cvhEjVUm3n/Qevy52555yZubl3zp2ZM0QiftV33303PDysoKDg6+t769at2NhYVVXVxsbGW7duAQAWLlz46NEjPCeGYRYWFmpqamfPnv3888/hVzcMw/z8/Pz8/DAMq6qqkpKSOnLkCIZh+/btmzVrFoZhy5cvT0pKwjCMx+NJSUlBmxUVFePj4zEMe/nypZycXENDA4ZhFy5caG1thQeBgYEYhnV1ddHpdAzDmpqaKBRKVVUVhmEpKSk+Pj4YhqWlpWloaLS3tw8NDdFotPDwcAzDSkpKmEzmG1MjIyOXLl2KYVhnZyeTyTx//rxwlW7btg3mV1FR2bBhA4ZhjY2NkyZN6unpgcZzOJzh4WF9ff3jx49jGFZdXa2goMDj8TAMi4uL27t3L4Zh5ubm6enpGIbdvn1bU1Ozv7+/qqqKSCRev34dw7BFixYZGRn19vby+Xwymfzy5UvxqQ0NDRQKpba2FtatlZUVNNXa2rqmpkb8teXl5QwGA8OwPXv22NvbDw4OdnR06Ovrh4eHDw0NaWpqXrx4EaZKSEhwOJy7d+/C/Lm5uQYGBh0dHUNDQ2w2e8eOHcKtk5aWpqys/PDhQ6h0w4YNIusElwZrlcfjKSkpvX79GsOwQ4cO7d69G8MwQ0PDsrIyPI9AIDA2Nj59+jSGYcnJye7u7kVFRd7e3lpaWt7e3nPnzmUwGFFRURhiYhHu1Yzm6tWrH/h74cGDB7t27VqxYgWTyZSWlraxsYmKitq7d29ZWVlvb++/rTWfPXt25syZb7/9ls1ma2trKyoqOjo6/ve//z137hyfz0fv/X+JXjT1C4FATBBubm5r1659/vz56dOnHz169PTp09LS0ujo6EWLFgEAcnJyTpw4cejQodEXwpdWbW1tXV3d2rVrf/zxRwAAnFczefJkFouFf7yvra2tqKhYtWrV/PnznZycfHx84LYJcLAFMmnSpMWLFwMAbGxsEhMTxRgMfSoNDQ1zc/Pbt2/T6XQ4bUN4FOXq1auOjo4AgMLCQhsbGzj9LDIyct26dXApoZ2dHYVCAQBoa2vDaQkMBgOOt4hPLSgoOHPmDABAQUHBx8ensLBwrA3d/f39oR8oJyf36tWradOmwfPPnj3jcDiBgYEAAENDQwMDA7icpri4+MSJE3/88ceTJ0/Cw8MBAJaWlpqammVlZSoqKkpKSrNmzYKWUCgUaWlpOJTU3NxMIpHEpP7+++92dnZwsUdoaGhkZCQcImtubmYymdXV1WKuxctSUlLi6+srKSmpqKjo7e3N4/Fqa2t7enrc3d0BAGFhYSM2T8zLywsNDYU3Q0REREpKyhdffIG3DqxhfX192Nx37twRWSdTp04VliknJ4dh2LFjxxYsWDDWPMA//vjjjz/+8PHxAQDExsZGR0eTyWQrK6u4uLiffvrpwoULPB4vNDQU/eoRfwo9PT09PT143NfXd+fOnfv379+5c+fw4cOVlZVTp041MzMzMzMzNTU1MzPT0ND4J5Udw7DKysrKysp79+7BAyUlJVNTUxMTk5CQkG3btsHlhWhB/L8NSbzJJSQkxDf/X5SK9CK9SO8E6P0Q0NHRAf8LvNPf3w+XJuNL2zU0NPr6+trb20dfSCQSf/nll9jY2ODgYAkJCT8/vyNHjohU8fLlSwAADPCioKAAd6caAb6vhYSEhPiwJEpKSvglIwwrLi6OiYkBABQVFcEFKlwut7S0FJ/2QyaTeTwe7PXipZCVlYUHuF4xqVwuF1/7q6ysfO/evbHslJeXF1kiLperrKyMz5VSVlbm8XhtbW3t7e0MBqOioqKvrw82CgCgp6eHx+OpqKiMNgm3ikQiiUkVNlhaWlpWVpbH41VVVc2ePXuswo6oDQBAW1sbXu24wdCXw8UKl53L5Z49e/ann34CAAwPD8Omx1tndHOLrJMRjoqMjMyVK1eSkpLWr19vYWGRnp6O+37CevElKCQSiUQiAQB+//13GM3pzp07bDYb9TD+rm7NWEmqqqof0XuBTCbb2dnZ2dnhqY8fP4Y9+LS0tMrKyuHhYei3GBsbU6nUKVOmTJkyZcQP5IOlqampsbGRw+G0tbWVlpZWVlZWVVXhPpiPj4+ZmdmIVV5v3Kkdvff/kXqRY4pAICaIEasLoIvy4sUL+G9jY6OsrCzeSR0Bm8329vauq6s7fPhwUlKSv7+/h4fH6GzwEyMckXj9+vWRI0csLCzg4oe3oLW1FToe7e3twvGCuFxuT08PTCouLl6zZg0AgEqlurq65ubmvq/qUlNT4/F4sIvc0tICu+B/VkJbW5tAIIAL2aGQy5cvOzs7Q4PJZPLz58+FL6murn4Xg0tLS+Exn8/n8/nq6urbt2/HBzfGg5KSUkdHBzx+9erViDPd3d1wdRMOlUqNj48X3gtFuHXGWSejs5mbm2dnZw8ODiYkJKxcufLs2bNi5AwMDNTX1586dSorK0tVVbWgoOD333+/ffu2t7c3HLBCfCD8XVG/3hdMJpPJZAYEBODfZe7du1dVVXXz5s3Hjx9zOBwOhyMtLU2j0aDTQqPR6HQ6fiwlJTXBBvN4PM7/gG4JjpqaGrTT3Nwcbr9oYmLyRlcE8W/89ICqAIFA/C0wGAwHB4djx445OjpyudySkpKoqKjRS6UBAPX19SYmJtHR0XBVNACATCZLSUkRCISysrLS0tLJkyfDnNOnTzczMzt+/PicOXMuXbq0Z8+ewsJCAACc6pOVlSXSEhKJBLvCJBJpaGiop6cHfvs/evTozJkz6+vr7927Z2trCwC4ePGilZVVcXGxi4sL7CgMDw9Dj8vNzW316tW1tbXTp08vLy8/evTozp0736V+5s+ff+DAASsrq/b29lOnTsHAAL/++quSktI4A3bp6OjQ6fSsrKygoKDKysq6ujp7e/u4uDg4BESj0RgMRmZm5qJFi3g83sqVK/HYA2+Hu7v7l19+WVdXp6ure+DAAQcHB3l5+eLi4vj4+PELsbW1PX36NIztm5eX5+TkpKurO2nSpIsXL86dOxeuZRLO7+XltWnTpvDwcHl5+fT09EmTJk2aNAm2zvjrBC6yx7l58+bWrVuPHz8uLS2tp6dXWVkpfJNA6HT61KlTjxw5smTJEjjX6+LFi0+ePDlw4ICkpGRQUNDx48fRbxzxl6Kmpubm5jZiRmhbWxvuEjx69Ah3YBobGxUUFKZMmTJ9+nRZWVkZGRkZGRl4MOLfEQdycnL9/f1w/QCfzxd/wOfzlZWVy8rKXr58yeFwoEbcUzIxMdHU1KTRaNOmTRvxQ0YgkKOCQCA+OLKzs1esWLFs2TIpKano6Ojk5OSxOpfJyck//PDDjh071NTUEhIS4HBKRETEsWPHtmzZgkflIhAIOTk50dHRwcHBFArlyJEjbm5uAADY1xwLDw8PPz8/Dodz7NgxFxeXqVOnwq0wtLS0jI2NOzs7t23bBsdqlixZkpOTU1xcDDsHwoGJ1dXVDx065Ofnx+fz5eXl09LS3rFyEhMTo6Ki9PT0JCQkli1bBjvf+/btMzIyGqejQiAQsrKyoqKiEhISZGRksrKylJSUYJQzmCEzMzMyMvKbb76RkJBYvXo1mUx+F4NpNNr+/fvZbPbAwACdTj98+DCHw5GUlPxTM+n/85//lJaW0ul0Op3u7+/f1NREIpF+/vnnZcuWYRgWERGhrq4uHB3Yy8ururrawsJicHBQT0/v4MGD8fHxYy3mGatORjgqVlZW2traTCaTSCRqaGj8/PPPAAAfH5+AgAC86ggEQmZmZkRExLp16/T09H755RcAwODgoKSkZH19vfg9XhB/F62trXDR2j8YZWVlZWVlGP+qublZuLxwfKOxsbG1tbWnp6e3t7evr6+rq+vVq1di3I9p06bV1tYKOzBwBuYIJ0dRUZFKpcrKyiorK1tZWZmYmEyZMmX0GA788SIvBTF+CDBKxugbevSNNdZg3LukIr1IL9I7AXpJJBL+S0eMEwqF8uDBA7StAQLxMfVpCAQxz7qSkpKxNqFD7yOkF+n9MPWifVQQCARCNMi7QyAQCATibwQ5KggEAoFAIP75wJCDCATiIwKtUUEgEAgRCK+cRiAQ/wA+9qhfCMS/0VHBVyUKBALhFYrCjHX+3VORXqQX6f179SIQCMQ/CTFPPPReQHqR3o9OL5r6hUAgPhpqamoIBAIeeWk0cOMLuNVGYGDgu8TjV1VVraurG3Hy8OHD8KC4uBhuWPlGBgYGpkyZIhAIAABubm53796dyBqrqKgQE4HqyJEjioqK69atGytDYmIiHlFtAhhP/ZDJ5BE1X1lZObqMqampERERAAAKhSKmpYRb5x1JSUmBGkWC3zmj7RdPZGRkT08PACAkJAQ9Ad6RtrY2VAkIxMcF2pke6UV6/xV6/xloaWmdPHnSyMhorAyXLl369ttvly9fLisrGxsbu3DhwveoHcOwdevWLVmyBACQlpa2fv16uIOKeMrKyiwtLSUkJPr7+2tqasYZWfh9YWZmdvPmzbFS8/LyNm/evGLFirEyFBcX79ixY2JMHWf91NfXv8eVBnjrvLuo6Ojosb4ICt85f9b+rq4uOTk5GLsPdVnG2a0ZK6m1tRW9F5BepPfj0otGVBAIxESwdetWOp0uIyMzc+bMa9euAQC6u7v/85//TJ48WVVVNSkpCWZTVlYOCgpasmSJjIzMnDlzqqurTUxMKBRKamoqAODFixcLFizIyckBADQ3Ny9cuFBVVVVDQyMiIqKzszMjI2P+/PkAgMmTJ1+8eHH79u24o3L16tWZM2fKycnNmDEDaq+trZ0zZw6ZTFZVVf3iiy9gFxPuONnc3AyvKiwsNDIyUlFR2bJlCwDA19eXy+UaGRmtX7/+0qVLwcHBp0+fnj9/flxcnKurq7Gx8ZIlSwYHBwEAgYGB+LBPcXEx3Jr92rVrtra2BALhyZMns2fPZrFYFhYWN27cAADcu3fPzMxs/fr1dnZ2BgYGJSUlbDbb0NBw+fLlb0wFAEDnjclkOjk51dTUCFd7ZWWljY0NAGDHjh3h4eHBwcE2NjYWFhYNDQ1btmwpKiraunXrxo0bBQJBfHw83Pc6JCTk9evXAAA+n//06VNjY2MAQGJiIovF0tfXj4mJGRgYAAAoKSnt3r3b1dVVW1s7Nzc3IiLCxsbGwcGhu7v7jalVVVV2dnZ6enomJib5+fnQVLx+xF+ro6Pz8uVLAEBSUhKdTjczMysoKIAS+vr6goKCpk6dam9vX19fP+IOLCgoMDExYbFYHh4eTU1Nwq0zMDCwePFiBoOhra0dHBzc29srMv+OHTvCwsKCgoJMTEw8PT3PnTv36aefMhiMo0ePAgD27NmzevVqkaXD7xwOh4Pbf+rUKRaLRaPRFi9e3N/fL9IGnNraWrQ3CwKB+DeC/Y+mpiZsDAYHBwcHB/+KVKQX6UV6J0Cv8C/9b6G8vBwA8N133928eXPOnDnW1tYYhq1YsYJIJObl5e3Zswf2UzEMU1dXJ5PJ+/bt++yzzwAARkZG58+fNzQ0lJGR6enpefToEZSDYZiDg4OCgsLx48fhbuWfffZZa2srnB5TXFzc2dkZEBBAJBIxDGtubpaTk7OzsyssLLSwsKBQKF1dXZ6ennp6eqWlpb/88ou8vHxOTg6GYVu2bJk5c2ZLSwuGYSoqKsuXLxcIBDU1NSQSqaenh8fjSUlJwRIZGhqWlZVhGObt7e3o6Dg8PDw4OGhhYZGRkQHL+/jxY5jT2tq6pqYGw7C4uLi9e/diGGZubp6eno5h2O3btzU1Nfv7+6uqqohE4vXr1zEMW7RokZGREdxqjUwmv3z5UnxqQ0MDhUKpra3FMGzfvn1WVlYjap7BYGAYlpaWpqKiAu+TyMjIDRs2QOOPHj2KYVhmZqa5uXl3d7dAIAgKClq7di2GYRcuXAgMDMQwLDc318DAoKOjY2hoiM1m79ixA9ZPcnIyVCotLQ0NcHZ2zszMFJ86PDysr69//PhxDMOqq6sVFBR4PJ5w/YiXLCcnx+FwHj58SKFQmpqaBAJBcHAwLOOePXvs7e0HBwc7Ojr09fXDw8MxDFNUVORwOE1NTRQKpaqqCsOwlJQUHx8f4dY5efKkq6urQCAYHh7+8ssvr127JjJ/WlqahoZGe3v70NAQjUaD8ktKSphMJoZh27ZtCw8PF1k64TsH2v/ixYvJkyc/e/ZsaGho3rx5SUlJo23Yvn27u7u7rq6ut7e3hYWFtbX1rl27MIRYxD/rqqur0XsB6UV6Py69aEQFgUD85cA1AHfu3Glra8vLy4OTkbKzsy0tLb28vJYtW6amppaZmQkza2trL126NDIyEgAwd+7cTz/91M/Pr7e3V3hm/9OnT0tLS0NCQhYtWhQZGens7HzixAklJSV1dXUAgKmpqYKCAp757NmzPT09a9ascXNzy87OPnr06ODgoEAg4HK5d+/etba2fv36tZ+fHwBg/fr1FRUVeGigzz//nEAgMJlMMpn86tWrsUrHZrPhUPjcuXPLysoAABYWFnp6egCAzs7O5uZmJpOJf7z/448/njx5Eh4eDgCwtLTU1NSElygpKc2aNQsAwGAwHBwcpKWlZWRkqFQqHN4Rk1pUVGRnZwc/t4eGht6+fbuzs1OknXZ2dnCXLgMDgxHLJAoKCoKCguTk5AgEQmhoaGFhofBYUF5eXmhoqKKiIpFIjIiIOHPmDLzK09MTmjRt2jRoAIPBwAcrxkp99uwZh8MJDAwEABgaGhoYGFy/fl1Y3RslAwBKSkocHR2pVCqBQFi8eDF+0tfXV1JSUlFR0dvbW7iAhYWF988/WwAAIABJREFUNjY2cNJgZGRkfn7+8PAw3jpUKvXRo0fnz58fGBhISUmBPu3o/LAOKRQKkUjU1tb+5JNPRhs2VulGUFRUZGtrq62tTSQST5w4ERsbO9qGVatWLV++fNOmTbm5uS4uLtnZ2fgYGuLtQFG/EIiPDuSoIBCIvxxLS8uNGzf++uuvHh4eampqiYmJGIbxeLzy8nIymUwmk1taWhoaGmBm6GzIy8uPOIYzjiCwn40vEdHQ0Ojr62tvbxepHc60gaKmTZs2b948JSWlH374gclkfvHFFywWa8aMGaNnCgEAcG9HQkIC9lNFoqSkhOcfYcOVK1dmz54NAGhra2tvb2cwGFwut6+vT0dHR1tbW1tb+/nz5zweDwAgJycHLyESibKysvgx1Csmlcvl4t0vaWlpWVlZKHA0sBpFFkdYiLKyMpRQXFw8Z84cmLpt2zZocFRUVFdXF8wJrRJpsJhULperrKxMIBCE1eH1Mx7JsD7xaldWVhZzEi9gaWkpLIKRkRGZTObxeHjr2Nvbp6ampqSkUKnUpUuX8vl8kflFNsQIw0SWbnRbcLlcCoUCj2VlZaWkpEbbAH17CwsLAEBDQwOdTkdPEgQCgRwVBAKBeM8QCIRvvvmmtbX11q1bc+bMiY+P53K56urqM2bMqKysrKysfPz48d69e8cvELooL168wP0WWVlZvJM6Ag0NDQAA/Oz96NGjXbt2cTgcfX3969evv3r16vDhwzU1NSkpKW9dutbWVnjQ3t4+4pMtPkpw+fJlZ2dnAACVSiWTyc//B4/H8/f3f5e6VVNTw7vCfD6fz+dDl+ythbS0tKirq3O53J6eHm1tbWhzfHw8NJjD4VRUVLyjwW1tbXigLagOr59xoqSkhG90gw92iTwJoVKprq6ueLW3t7dTqVThMRx/f/9ff/31+fPnDQ0Ne/fuFZn/rUsnvsLb29s5HM5oGxYtWnTw4MGvvvqKzWZfv36dzWbfunULPUzeBfynikAgkKOCQCAQ/8exY8fIZHJWVhaBQJg8eTKJRJKSkvLx8amsrKyoqPj999/9/PyuXr06foFwBtSxY8eys7N37dpVUlKyZMkSAoEgIyMDAMjIyICjKJB58+bJyMhs3bq1qKho6dKlX3/9taysrKGhoYeHR319PZVKJZFIZDIZALB161YbG5uxYpiSSKShoSEYK5ZEIuF94pycnN7e3r6+vvz8fEdHRwBARUXFkydPgNCgRFFRETyg0WgMBgPOc+PxeEFBQXCN+Fvj7u5+48YNGEn5wIEDDg4O8vLynZ2dBw8eHL+Q+fPnZ2Zm8vl8gUBw8OBBT0/P4uJiFxcXmOrl5ZWRkQEHUtLT0/FIu2+Hjo4OnU7PysoCAFRWVtbV1dnb2+P1M05mzZr122+/NTU1DQ8P4/bY2tqePn16cHCwpaUlLy9POL+bm9uNGzdqa2sBAOXl5V988YVw6+zcufPbb7+FC1poNJpAIBCZ/61LJ3znQFxdXW/cuPHw4cPh4eGlS5ceO3ZstA2ZmZmOjo55eXnJyckRERG5ubnW1tboYfIutLS0oEpAIJCjgkAgEP8PCxYsCAsLi42NdXBwuHXr1okTJygUSlJSUlBQUExMTGRkpLW1NVwlMn6ys7NdXV2XLVu2ZcuW6Ojobdu2AQD8/Pw0NTUTExOrqqrwnJqamnl5eb29vV5eXq9fv/71119VVFR2797d0tLi7OwcFBQ0f/78+Ph4AEB9ff2tW7eE55gJo6io6OLiMnXq1Nu3b/v4+AQEBKSlpQEAHB0dZ8+eraenZ2Njw2azAQApKSnZ2dkcDkdSUhKO51y5cgXviGdmZqanp+vq6trZ2Tk6OkIf6a2h0Wj79+9ns9l6enp5eXmw197U1LR06dLxC/H39/f09DQ3N2exWIqKinFxccKjDV5eXr6+vhYWFjo6OqdPn4ZrM94aAoGQlZW1e/duJpO5ZMmSrKwsJSUl4foZD6ampjExMTNmzDA0NLS3t4dB22AQOTqd7unp6e/vLxwsWF1d/dChQ35+frq6ukuXLl24cKFw6wQFBd25c0dbW1tHR6erqysqKmp0/ncpnfCdA7NpaWmlp6ez2WwajSYtLR0bGzvahidPnsD1OdevX3dwcECPEQQC8S+EACMCAQC4XK6amprITPBxP1bk43dJRXqRXqR3AvTKyMjAeDiI9w6bzV6wYEFwcDCqCgTi7+/TEP7/Xs1oampqWCwWei8gvUjvR6QXjaggEAjEO4GcQATio2BEiAUEAvHhg3amR3qR3n+FXgQCgfiXdGvQewHpRXr/MXpRzwaBQCDentzcXFQJCMRHQWtr6zijtyEQiA8ENPULgUAgEAjEPx8U9QuBQI4KAoFAvCtUKhXuxDd+BgcHExIS4DZ5gYGBbzERTvxV7y4fR1VVFUYTFgaPsVtcXDxi2/ixGBgYmDJlCtyyw83N7e7duxPZRhUVFTAmlUiOHDmiqKi4bt26sTIkJiZu3759wqwdT/2QyeQRNV9ZWTm6jKmpqREREQAACoUipqWEW2ec4JLHCX7PjLZcPPPmzcvIyBAvU0weAEBkZCSMthwSEoKeVwgEAjkqCATiH8Kf6rqNn0uXLn377bfQkYiNjc3Ozv6zEsRf9e7yxYBhGN6nT0tLG2ens6yszNLSUkJCor+/v6amxszMbCLb0czM7ObNm2Ol5uXlbd68+fvvvx8rA76HyQQwzvqpr6/X1NR8X0rx1oH/Cu9e/97vmT9reUZGhshtRoVljpUH0tXVJScnNzQ0RCKRPqKHj6qqKnoCIxDIUUEgEIj/h/v37xMIhP/+97/Tp0/fsmVLd3c33PJCVVU1KSkJ79gZGBgoKChs3LgR797Nnj0bbkIPAAgMDCQQCPD46tWrM2fOlJOTmzFjxrVr1zIyMubPnw8AmDx58sWLF7dv345vfFFeXm5vby8vL6+rq7t161YYoUtZWTk4OHjFihVkMtnU1BRuzih81datW+l0uoyMzMyZM8XLH2EJAKC2tnbOnDlkMllVVfWLL76AIRejoqIIBEJzczO8qrCw0MjISEVFZcuWLQAAX19fLpdrZGS0fv36S5cuBQcHnz59ev78+XFxca6ursbGxkuWLIFBVwMDAzdv3oz39eFWJ9euXbO1tSUQCE+ePJk9ezaLxbKwsLhx4wYA4N69e2ZmZuvXr7ezszMwMCgpKWGz2YaGhsuXL39jKgDg5MmTRkZGTCbTycmppqZGuE0rKyttbGwAADt27AgPDw8ODraxsbGwsGhoaNiyZUtRUdHWrVs3btwoEAji4+OZTCaTyQwJCXn9+jUAgM/nP3361NjYGACQmJjIYrH09fVjYmLgDjZKSkq7d+92dXXV1tbOzc2NiIiwsbFxcHCAO2OKT62qqrKzs9PT0zMxMcnPz4em4vUj/lodHR24T2hSUhKdTjczMysoKIAS+vr6goKCpk6dam9vX19fP+L2LigoMDExYbFYHh4eTU1Nwq3z+++/m5mZhYSEwJYanVOkZGlpafxWwY9PnTrFYrFoNNrixYv7+/vxe4bD4eCWj26v0a0DAAgJCcnJyRkYGFi8eDGDwdDW1g4ODu7t7RWWCfOM1itc8NraWjGjah8gKioq6GmMQHxkYP+jqakJG4PBwcHBwcG/IhXpRXqR3gnQK/xL/1t49OgRAEBdXT05Obm8vHzFihVEIjEvL2/Pnj2wHzk8PKyjo6Oqqpqfn79y5Uoikejk5IRhmJOTk5aWFhQSEBAAC9Lc3CwnJ2dnZ1dYWGhhYUGhUBoaGuAUlOLi4s7OzoCAACKRiGFYS0sLhUIxNja+cOFCTEwMAODQoUMYhqmrq8vLyycnJx84cAD2/qF8eFV5eTkA4Lvvvrt58+acOXOsra1bW1tFyh9tSVdXl6enp56eXmlp6S+//CIvL5+Tk4Nh2JYtW2bOnNnS0oJhmIqKyvLlywUCQU1NDYlE6unp4fF4UlJSsJiGhoZlZWUYhnl7ezs6Og4PDw8ODlpYWGRkZEDbHj9+DHNaW1vX1NRgGBYXF7d3714Mw8zNzdPT0zEMu337tqamZn9/f1VVFZFIvH79OoZhixYtMjIy6u3t5fP5ZDL55cuX4lMbGhooFEptbS2GYfv27bOyshJu0/LycgaDgWFYWlqaiooKvAMjIyM3bNgAjT969CiGYZmZmebm5t3d3QKBICgoaO3atRiGXbhwAdZ5bm6ugYFBR0fH0NAQm83esWMHrJ/k5GSoVFpaGhrg7OycmZkpPnV4eFhfX//48eMYhlVXVysoKPB4POH6ES9ZTk6Ow+E8fPiQQqE0NTUJBILg4GBYxj179tjb2w8ODnZ0dOjr64eHh8Mt5DkcTlNTE4VCqaqqwjAsJSXFx8dHuHXu378vJyeXlZUFf6Sjc4qULCUlhf+i4fGLFy8mT5787NmzoaGhefPmJSUlCd8z0HKR7SWydTw9PY8ePXry5ElXV1eBQDA8PPzll19eu3ZNWCbMM1rv9u3b3d3ddXV1vb29LSwsrK2td+3ahX0wiH/WofcC0ov0fnR60YgKAoGYINzd3deuXWthYZGdnW1paenl5bVs2TI1NbXMzMynT5/W19cHBwfPmzcvOTlZ/HySs2fP9vT0rFmzxs3NLTs7++jRo/Ly8urq6gAAU1NTBQUFPGdubm5HR8c333wzd+7cH374QVZWNisrCyZpaWmtXbv2888/19XVffjwobB8ODntzp07bW1teXl5N2/eVFZWFil/tCWDg4MCgYDL5d69e9fa2vr169d+fn4AgPXr11dUVOAfdD///HMCgcBkMslk8qtXr8YqKZvNhoEg586dW1ZWBgCwsLDQ09MDAHR2djY3NzOZTPzj/R9//PHkyZPw8HAAgKWlpaamJrxESUlp1qxZAAAGg+Hg4CAtLS0jI0OlUuF3ejGpRUVFdnZ28JN5aGjo7du3Ozs7RdppZ2cHgykZGBiMmLdWUFAQFBQkJydHIBBCQ0MLCwuFx4Ly8vJCQ0MVFRWJRGJERMSZM2fgVZ6entCkadOmQQMYDAY+WDFW6rNnzzgcTmBgIADA0NDQwMDg+vXrwureKBkAUFJS4ujoSKVSCQTC4sWL8ZO+vr6SkpKKiore3t7CBSwsLLSxsTEyMgIAREZG5ufnDw8P461DIBAEAsGCBQvGyilGsjBFRUW2trba2tpEIvHEiROxsbEi84hsr7Fah0qlPnr06Pz58wMDAykpKXZ2duPRu2rVquXLl2/atCk3N9fFxSU7Oxsff/vwaW1tRc9hBOLjAjkqCARigtDR0YHfO3k8Xnl5OZlMJpPJLS0tDQ0NMBoP7E5JSUkpKSmJkQNnuUDPYdq0afPmzRsrP+yWwcljkyZNUlFRgddCRwUeKCoqjpjQYmlpuXHjxl9//dXDw0NNTS0xMfFPWfLDDz8wmcwvvviCxWLNmDFj9EwhAADu7UhISIhZvYCXS0FBob29XTjpypUrMN5AW1tbe3s7g8Hgcrl9fX06Ojra2tra2trPnz/n8XgAADk5OXgJkUiUlZXFj6FeMalcLhf3rKSlpWVlZaHA0cjLy49VHGEhysrKUAK+QIXL5W7btg0aHBUV1dXVBXNCq0QaLCaVy+UqKyvj8wOhOrx+xiMZ1ide7fj+gCJP4gUsLS2FRTAyMiKTyTweD28d2IhwKqPInGIkj9BCoVDgsaysrJSUlMg8IttrrNaxt7dPTU1NSUmhUqlLly6F66/Go/fOnTsWFhYAgIaGBjqd/hE9glDULwTio0MSnwjb3d2NH48Afl/EZ42/x1SkF+lFeidG74cAkUgEABAIBHV1dRqNdvz4cXheRkYGRhCCRejt7cU/fEpJSeGdVw6HAw80NDQAAPAr+KNHjy5fvjzWp2joorx48QIA0N/f39LSAr9ni4dAIHzzzTfffPPNnTt3Nm/eHB8fP1YsJpGW6OvrX79+vbW19cKFC8uWLUtJSYEz3N4CvB7a29tHTK/HRwkuX77s7OwM3Twymfz8+XPhbNXV1W/dXmpqaqWlpfCYz+fz+Xzokv1ZIbh709LSoq6uzuVye3p6tLW1oc3x8fGrVq16LzeYmppaW1ubQCCAvxSoDq+fcaKkpNTR0QGP8cEukSchVCrV1dV1xHY6wmM4uOMkMqdIyXBiIQBgYGAArtsRrsb29vbu7m4ZGZl3by9/f39/f/+Ojo6AgIC9e/eGhoaKaT6od+3atdevX7979y6BQLhz5w6bzV6/fr21tfWH060Z60koPhW9j5BepPfD1CuJb37U3Nw81kZIcDHoWOE43yUV6UV6kd6J0ftB4ePj8/PPP1dUVEhISCQmJq5du3bRokV0Ov3YsWPOzs6XLl2CvTQAAJPJLCws/PHHH2VlZWGfG8OwefPmycjIbN26lUwmb9q06f79+0FBQbDflpGRgS9zBwCw2eyvvvoqMTFRXl7+zJkzvb29YWFhbzTv2LFjERER+/fv19PTmzx5MolEkpKSEil/tCWLFi0yNDSk0WgJCQlUKpVEIpHJZADA1q1bT58+ff78eZFfzUkk0tDQUE9Pj5ycHIlEwnuuOTk50dHRBAIhPz9/48aNAICKigoFBQU9Pb3i4uL4+HgAQFFRERydoNFoDAYjMzNz0aJFPB5v5cqV6enp79JM7u7uX375ZV1dna6u7oEDBxwcHOTl5Ts7O0+dOvX555+PU8j8+fOTkpJiYmKkpaUPHjzo6elZXFzs4uICU728vDZt2hQeHi4vL5+enj5p0qQlS5a8tcE6Ojp0Oj0rKysoKKiysrKurs7e3j4uLu5PhRebNWvW119/3dTUpKamhsfqtbW1PX369PLlyzs7O/Py8pycnPD8bm5uq1evrq2tnT59enl5+dGjR3fu3Im3jjAic4qUrKWl9eDBAw0NjezsbOjnuLq6rly58uHDh0wmc+nSpTNnzly2bBl+z4hpLzEl3blzZ1tb28aNGxUVFWk0mkAgEL4PYZ7RejMzM0NCQjIyMh4/fpyVlQVvyw8KMVs6itnwEb2PkF6k98PUi6Z+IRCIiSYpKSkoKCgmJiYyMtLa2trPz09CQuLw4cPy8vKfffbZlClTpk2bBqdjrVmzxsrKKj4+/rfffoMLBvr7+zU1NfPy8np7e728vF6/fv3rr78qKyv7+flpamomJiZWVVXhilRUVAoLC2VlZf38/K5cuZKWlgZXC4hnwYIFYWFhsbGxDg4Ot27dOnHiBIVCESl/tCUqKiq7d+9uaWlxdnYOCgqaP38+7LDW19ffunULfh0fjaKioouLy9SpU2/fvu3j4xMQEJCWlgYAcHR0nD17tp6eno2NDZvNBgCkpKRkZ2dzOBxJSUk4nnPlyhW8I56ZmZmenq6rq2tnZ+fo6Ah9pLeGRqPt37+fzWbr6enl5eXBXntTU9PSpUvHL8Tf39/T09Pc3JzFYikqKsbFxQmPNnh5efn6+lpYWOjo6Jw+ffqTTz55F4MJBEJWVtbu3buZTOaSJUuysrKUlJSE62c8mJqaxsTEzJgxw9DQ0N7eHr47YZA6Op3u6enp7+8v7Pyrq6sfOnTIz89PV1d36dKlCxcuFG4dYUbnHEvy5s2bo6KiXFxcmpub1dXVh4eHtbS00tPT2Ww2jUaTlpaOjY0VvmfEtJcYgoKC7ty5o62traOj09XVFRUVNVrmaL1PnjyBy2CuX7/u4ODwcT15UNQvBOKjg4B/uUQeIdKL9P5T9ZJIJPyXjvhYYLPZCxYsCA4ORlWBQIzfWRXzrEPvBaQX6QVoRAWBQCAQ7wXkXiIQ7xEU9QuB+OhAjgoCgUAgEIh/PijqFwLx0SGJqgCBQCA+QEaEh0IgEAgE4t8GGlFBIBAIBALxz0dVVRVVAgKBHBUEAoGYCPz9/ffv3z/iZHFxMdznsa6u7tq1a+MU5ebmdvfuXQBAYmLi9u3bJ7ggZDJ5xIbuOH19fVZWVqqqqmPFrR8YGJgyZcqE7ZYznvpJSUkZvfMMhUIZUcbKykoYPyo1NXWsnWpGtM5E8saoWSMQLsXLly/Xrl0LADh58uTZs2fRT/UDAUX9QiA+OiTxMIsCgWCs/RbE78PwLqlIL9KL9P69ej9k8J37/hRpaWnr16+n0Wj5+fn9/f329vZvvKS/v7+mpsbMzAz6OTt27JjgktbX14/1rbe2trahoeHVq1dwu8zRlJWVWVpavkVFvR3jqZ/o6Oj3eNcJt86fYnh4eKxKeyMYhq1bt+6tN3V58OCBvr4+AODhw4dBQUGoqzGRiLn30HsB6UV6Pzq9aEQFgUD85dy/f59AIKxevdrGxkZOTs7Hx6e7uxsA8PTp008++UReXp7BYFy4cAHP+d///nf69Olbtmzh8/nR0dFUKlVFRSUmJmZwcBAAEBgYuHnzZiiZw+HMmjVr8uTJPj4+w8PDycnJly5dCg4OTkhI2Lx5c2pq6vr16+/cuWNoaLhq1Sp7e3sjI6OrV68CAGpqavAwiNeuXbO1tSUQCHw+/+nTp8bGxgCAxMREFoulr68fExMD9z9RUlLavXu3q6urtrZ2bm5uRESEjY2Ng4MDLIv41KqqKjs7Oz09PRMTk/z8/BH1o6Oj8/Lly3v37pmZmcXHxzs5Oenp6V26dKmjo8PHx6ejo8PU1PTVq1cnT540MjJiMplOTk41NTW45wC3JSkoKDAxMWGxWB4eHk1NTQCAHTt2hIWFBQUFmZiYeHp6njt37tNPP2UwGEePHn1jqkAgiI+PZzKZTCYzJCTk9evXAAC8fsRfu2fPntWrVwMALl26NH36dBaL9d133+EbtCclJdHpdDMzs4KCghH18OTJk9mzZ7NYLAsLixs3boxoHXl5+eTkZBcXFxaLhY/qjC71jz/+GBYWZmZm9t///hfDsG+++WbatGl0Ov2HH36Al4xu2dGSfX19uVyukZERh8ORlpbGh7Pw4yNHjjCZTB0dndmzZ3M4nNGOioGBAXRBdXR00BPgA6GtrQ1VAgLxkYH9j6amJmwMBgcHBwcH/4pUpBfpRXonQK/wL/1v4dGjRwAAdXX1W7duwf5iYmKiQCAwMzOj0+m3b98OCwtTVFTs7u7GcyYnJ5eXl3/55ZcEAuGnn37auXMnAOC7777DMKy8vPzx48cYhvn5+dnY2HR2dvL5fB0dncLCQgzDDA0Ny8rKMAxbvnx5UlIShmF3794lEAgwNTc3d/r06RiGdXV15eXlQfPi4uL27t2LYdiFCxcCAwNhNgMDg46OjqGhITabvWPHDgzDVFRUkpOTMQzbt2+ftLR0bW0thmHOzs6ZmZniU4eHh/X19Y8fP45hWHV1tYKCAo/HE64fOTk5DodTVVVFJBIvXLiAYVhmZuasWbOg8QwGA8OwhoYGCoUCxe7bt8/Kygpea21tXVNT09TURKFQqqqqMAxLSUnx8fHBMCwtLU1DQ6O9vX1oaIhGo4WHh2MYVlJSwmQy35iamZlpbm7e3d0tEAiCgoLWrl0rXD/ir922bVt4ePjQ0JCmpubFixcxDNuzZ4+EhASHw3n48CGFQmlqahIIBMHBwbBo27dvhxLMzc3T09MxDLt9+7ampmZ/f79w6ygqKsbHx2MY9vLlSzk5uYaGBpGl3rlz5+TJk58+fYphWE5OjrW1NZ/Pb21t1dLSKisrE9myoyXzeDwpKSlYw1JSUvjvCx63trZKS0tDFUuXLo2MjMRL0dTU5O3tra2t7enp6e3tTaPRvL29W1paMMSEIP5Zd/XqVfReQHqR3o9LLxpRQSAQE4S/v7+VldXKlStlZWUvX778+PHjysrKoKAgS0vLNWvWdHZ2wkEVAIC7u/vatWstLCwyMzNNTU2joqJWrFhx8eJFNzc3AICFhYWenh7MuWDBAgUFBRkZGVNT07GWeQAAFBQU4LWenp51dXUtLS1kMtnLy2vEoAR+kJeXFxoaqqioSCQSIyIizpw5A3N6enoCABgMxrRp0+D6CgaDAT/ki0l99uwZh8MJDAwEABgaGhoYGFy/fl2knXJycnPnzgUAGBgYjChOUVGRnZ0dFBsaGnr79u3Ozs7Ozs7m5mYmk1lYWGhjY2NkZAQAiIyMzM/PHx4eBgDY2dlRKBQikaitrQ33fRc2WExqQUFBUFCQnJwcgUAIDQ0tLCwUrp83SgYA1NbW9vT0uLu7AwDCwsLgKpqSkhJHR0cqlUogEBYvXixcwD/++OPJkyfh4eEAAEtLS01NzbKyshFKfX19AQAaGhrm5ua3b98WWWoCgTBjxgw4jnHu3LmAgAAZGRllZeWHDx9aWlqO1bIjJIu/k5WVlblcLlQxe/bs+vp6PIlKpebm5tra2p47d+7YsWNz587Nzc1FSyMQCATi7UDhiREIxAShrq4OACASiRQKpbW19dWrVwCAH3/8MS0tDWZoaGiAnU7YBcQwrLm5GU7Egt6LSA8EHkhISMCuuUgoFMr/PfIkJWVkZNrb2/E1IW1tbe3t7QwGA/aJY2JiAABcLvfs2bM//fQTAGB4eBhaDh0JWARZWVl4hkgk4nrHSuVyucrKyvjcJ2VlZR6PJ9JOeXn5sYrD5XLx/q60tLSsrCyPx6uqqpo9ezZMLS0t1dbWhhnIZDJUAU0Stmq0wSJThdXhBuP180bJsGLxaocGw5NKSkq42BEF7OvrwydK9fT08Hg84dYBAODXKigotLe3d3Z2iiw1bjmXy8VtgLfKWC07QrL4O1kgEGzbtu3SpUsAgPb2djqdLpw6MDAgJSUFALh7966pqSn64X84oKhfCARyVBAIBEI0cIigr6+vtbXVwMBAQ0MDALB06dKVK1fiPVculwu7vAAAAoGgrq6Of6T/5ZdfyGSyn5/fW6hua2vDMIxAIPT39/P5fOEv3JcvX3Z2doZd2J6eHtjrpVKp8fHxq1atei8FV1NTa2trw2MDtLS04P3jPyWktLQUHvP5fD6fr66uvn37djjaQKVSXV1d3+PWK2pqarg3BQ0uhtcXAAAgAElEQVQWrp/xoKSk1NHRAY+7u7v5fP6Ik9BTxaFSqWQy+fnz58InT548CVsH0traCg1ob29XUVGRkZERWWrcJxQuRWNjo6ys7FgtO0KycBKRSIRzigYGBuCalhMnTpw5c6a0tJRCoWRkZAjHB8vLy0tNTW1paWGz2fX19UpKSk+fPp34OHIIkaChLQTiowNN/UIgEBPEqVOncnJy4uLi+vv7586dO336dGNj4/Pnzzc0NGRmZi5cuHB0BN4FCxbcv39/9+7d6enpYWFhMEZtRUXFkydPxtJCIpFgVxg/gD37U6dOwY6voaGhsrJyd3c3jBtbVFQ0Z84cAEBxcbGLiwvM7+XllZGR0dXVBQBIT0//s5FqR6Cjo0On07OysgAAlZWVdXV1MBbZ8ePHR3TWxeDu7n7jxo26ujoAwIEDBxwcHOTl5YuLi6Hxbm5uN27cqK2tBQCUl5d/8cUX79hY8+fPz8zM5PP5AoHg4MGDnp6ewvUzHnR1dSdNmnTx4kUAwN69e6HzOWvWrN9++62pqWl4eHhErdJoNAaDkZmZCQDg8XhBQUHd3d1460DgYv36+vp79+7Z2tq+sdQeHh7Hjh17/fp1e3u7k5PT48ePx2rZEZJJJNLQ0FBPTw8AQEtL68GDBwCA7Oxs6AJBr4ZCobS3tx8+fBjGS4B4e3v7+/vv27cvNzd35syZhYWFyEtBIBCItwaNqCAQiAkiICAgJSXlwYMHQUFB0dHRBALh5MmTy5Yt8/b2VlJS+vLLLw0MDPBgVpDExMTe3t6EhISBgYHVq1cnJCQAAFJSUoyMjOLj40Vq8fHxCQgI2Lx5s4eHh5+fH4fDWbNmjY6OTllZ2ddff00gEA4cOAAAaGxs9PX1HRoaunLlCowhVlxc/Omnn+KOSnV1tYWFxeDgoJ6e3sGDB9+l4AQCISsrKyoqKiEhQUZGJisrC040Wr16dU5OzjhHV2g02v79+9ls9sDAAJ1OP3z4MIfDkZSUhANT6urqhw4d8vPz4/P58vLy+Gy6t8bf3//+/fvm5uYYhjk6OsbFxa1YsQKvn/FAIpF+/vnnZcuWYRgWERGhrq4+NDRkamoaExMzY8YMRUXFqKioiooK4UsyMzMjIyO/+eYbCQmJ1atXk8lkvHUgWlpaxsbGnZ2d27ZtgwUXX2o/P7+7d+8aGhpiGLZy5UpbW1sAgMiWHS3ZxcVl6tSp58+f37x5c1RUFJ1O9/DwUFdXHx4eDggIyMjI0NPTo9FoSUlJbDb766+/njx5MhRVUVEBN1TB54AhPhBaW1upVCqqBwTiI4IAR7QBAM3NzWP9gGFsYzyU53tMRXqRXqR3AvSSSCT8l/63UFNTo6+vv3nz5q+//nritVdWVi5YsAB+d0d8vFAolAcPHmhpaX1EkhET3achEMQ860pKSpycnNB7AelFej8ivWjqFwKBmCD+Rmfp7/XTEB9+O6I7BIFAID5A0M70SC/S+6/Wi0AgEP8kxDzxVFRU0HsB6UV6Py69aI0KAoH4y2GxWH/jF2szMzO4Bh3xUYOHRviIJCM+KEZExEYgEB8+kvhsMAkJCTEz0oDY+Wrvkor0Ir1I7wToRSAQiH9Jtwa9F5BepPcfoxetUUEgEIj3wK5du0JCQkacrKuru3btGgBgaGjo2LFj4xTl5uYGAzFfv37d29t7ggsyb968jIwMkUl9fX1WVlaqqqqjA0lDBgYGpkyZAjehnwDGUz8pKSkwBpcwbDZ7RBkrKyt1dXUBAKmpqaPzi2ydcYJLHif4PSPS8j9b0j8l8+XLl2vXrgUAnDx5Egbv/ofR2tqKnlQIxMcFclQQCMQHRG5uLoFAGBG1Vjw5OTn3798HALi6utrY2Iz/wmvXrhEIBLjRx2gqKipgX018NvHk5+fDDmJVVRXcqeON9Pf319TUmJmZAQDwbVImkoyMDH9/f5FJtbW1DQ0Nr169GivkS1lZmaWlJdzXcgIYT/1ER0f/+OOP70ujcOtA3rtXht8zf9ZyMfnHKfPBgwf6+voAgIcPH8KDfxgtLS3oGYtAIEcFgUAgRPNXrFSJjY2FjsqxY8fOnDkz/gstLS2fPXs2VrjS1NRU6KiIzybM8PDwwoULNTU1Z8yY0dDQAPcASU1NXb16tbe39/Xr111dXe/cuWNoaLhq1Sp7e3sjI6OrV68CAGpqavDx7mvXrtna2sKNBYuLi+HG84mJiSwWS19fPyYmBm6O7uPjk5CQMG/evGnTpm3atGnbtm3Ozs4sFuvevXtvTG1rawsICNDT02OxWJs2bRpRipCQkJycnHv37pmZmcXHxzs5Oenp6V26dKmjo8PHx6ejo8PU1PTVq1cnT540MjJiMplOTk747je4wQUFBSYmJiwWy8PDo6mpCQCwY8eOsLCwoKAgExMTT0/Pc+fOffrppwwGA/pv4lMFAkF8fDyTyWQymSEhIa9fvxZWJ/7aPXv2rF69GgDw/PlzW1tbBoOxcOFCWIcAgKSkJDqdbmZmVlBQMKIeurq6QkND9fT0DA0N9+7dO6J1vLy8NmzYoKWldenSJZE5R0v+/vvvo6KiRhx3dHQsXLiQTqcbGBgUFRXh98z69etxy0W2l5KS0r59+z755BNdXd0tW7YIl7SwsNDY2Hj69OmGhobnz58XKXOEXtxRMTAwAADU19fr6Oig5xUCgfgg+g2QpqYmbAwGBwcHBwf/ilSkF+lFeidAr/Av/W/h8uXLAID169fLyclxOJyLFy8aGhrKy8s7OTnV19djGHbgwAF1dXUNDY2vvvoKAFBeXg5djrt378Kt+uTk5DAM6+3tjYyMVFVVVVVVjY+PxzCMwWDg/cI5c+ZYW1tjGPby5UsfHx8KhUKlUleuXNnf3z88PAxdGktLSzk5ObgLYWlpKQDgwoULAwMD4eHhSkpKZDLZz8+vo6MjPDwcinV3d8ezYRiWlpY2depUmK2zsxPDMEVFxfDwcJikrKz88OFDDMMWLVq0YcMGDMOWL1+elJSEYdjJkyfd3d0xDLt79y6BQCgsLMQwLDc3d/r06RiGdXV15eXlwbqKi4vbu3cvPEmn02E2AwODjo6OoaEhNpu9Y8cODMP8/Pw8PDwEAsHjx48lJSUPHTqEYVhCQkJkZOQbUyMjI5cuXYphWGdnJ5PJPH/+vHBjeXp6Hj16tKqqikgkwlJnZmbOmjULGs9gMDAMa2hooFAotbW1GIbt27fPysoKXmttbV1TU9PU1EShUKqqqjAMS0lJ8fHxgfWjoaHR3t4+NDREo9FgpZWUlDCZzDemZmZmmpubd3d3CwSCoKCgtWvXCteP+Gu3bdsGzyxcuHDdunUYht2/f19KSuro0aMPHz6kUChNTU0CgSA4OBgWbfv27TD/qlWrQkJCBAJBS0uLtrZ2ZWWlcOv4+vra29vz+XyROUVKTkpKgvUvfBwTE7Ny5UoMw27dukWhUHp7e/F7BrdcZHupqKjAe6yxsXHSpEk9PT14fkNDw9LSUgzDKisrIyIihO9DPM8Ivc+ePfP29tbW1vb09PT29qbRaN7e3i0tLdjHhvhnXXV1NXovIL1I78elF42oIBCIv5xJkyZB9+Py5cuTJk0KCAgICAhobW1VUlJauXJlW1tbTEyMo6NjeXn5o0ePxMj58ccfDxw4kJ+fv2vXrm3btuXl5V24cAEAcPDgwTVr1uDZIiIi7ty5U1ZWdvDgwZ07d+7YsUNCQoJIJObn5584cWLFihU//fTTw4cP8fwXLlw4cODAlStXamtrpaWl7969u3fvXjqdvmTJkvz8fDzbjRs3VqxYERsbW1ZWVlpampCQAJ0fDw8PmMHOzg5OmLGxsWlsbByrFAoKCm5ubgAAT0/Purq6lpYWMpns5eU1YlDi6tWrjo6OAIC8vLzQ0FBFRUUikRgREYGPGnl4eBAIBAaDMTQ0BG1gMBhw+EJ8akFBwX/+8x9oiY+PT2FhoUg75eTk5s6dCwAwMDAYUZyioiI7Ozu49CI0NPT27dudnZ2dnZ3Nzc1MJrOwsNDGxsbIyAgAEBkZmZ+fDx1FOzs7CoVCJBK1tbU/+eSTEQaLSS0oKAgKCpKTkyMQCKGhodBgvH7eKBlSUlKycOFCAICxsbG5uTk84+joSKVSCQTC4sWLRxQ/Ly8vJiaGQCCoqKj4+/vn5uYKtw6BQPD09JSRkRGZU7xkYc6dO/fZZ58BAKysrOrr66WlpUfnGau94Aw9LS0tOTm5V69e4fk1NDQyMzOfPn1qamr6888/j0evtrZ2bm6ura3tuXPnjh07Nnfu3NzcXBUVlX/Yg+ifVyIE4h8PChOEQCAmiIiICGtr65KSks7OzuTk5B9++GF4eFhRUfHBgwe9vb2BgYFaWlqfffbZ6Ek4OJcvXzY2NraxsbGxsQkICAAAPH/+HABAIpGIRCLMMzw8XFxcHBUVxWKxWCyWnp5ecXExdGM8PDymTZvm4eHx/fffNzY2ysrKwktYLBaZTPb29p4zZ05gYODs2bNhT5RIJJJIJGHtAICwsDAFBQW8X7hx40ZhDwQeSEhIwK65SCgUyv89fyUlZWRk2tvbVVVV4Zm2trb29nY4TFRUVAQXYHC53LNnz/7000+wdOrq6rgjAQCABYdlIRKJuF4xqVwuF++xKSsrw/lgo5GXlx+rOMISpKWlZWVleTxeVVUVrDoul1taWqqtrQ0zkMlkHo+HmwQtGctgkakjDIbS8Pp5o2S8bpWUlHAhIs+MKKOfnx+cktff3x8QECDcOsK93tE5SSSSGMkjtOD3A37J6Dwi22usBjp27Nh3333n5OSkqKiYmpoKveI36h0YGJCSkoLDmKampuh5hUAgPgTQiAoCgZggFBUVoQMAAMjIyOjo6Ojq6mpsbITLkfFpG3jfC/xvB6je3l54UiAQ4GuXOzs7+/r63qhUIBDga7vh92/oewivgdbT06uuro6NjW1ra/P29k5LSxtLFP63p6enu7v77eqhra0NFrO/v5/P5wt/5b18+bKzszM8xj/eU6nU+Pj458+fP3/+nMPh/KlIAyJRU1ODfX0AQEtLC+75vJ0EPp/P5/PV1dWFDXZ1dX3+P9rb28dafP8uBuPqxomSkhK+Xwr0M0efEYZKpZ47dw4WoampKTU1Vbh18DtZZE6RkolEIn57d3V1jS7a48eP+/v737291NTU0tLSGhsbU1JSAgICRC73H6E3JyfH3d29oqKCzWZHR0efPHkyNjb2n/cIQlG/EIiPDrQzPdKL9P6r9U48pqamioqKGRkZ1tbW69at09DQWLNmjZSU1PHjx21sbA4fPgyzaWlpAQDOnz9PoVDg/C4AgIuLS0JCwo0bN168eLFw4cKjR4/CT/iPHj3q6enBu4Nubm5wNs6jR49qa2tXrFgh3qRz584dPXp0586dS5YssbGxgbPCJCUlnz592tbWhmdzcXH59ttvDx48OHfuXHt7e19f3/379yckJBgbG/v6+oqUTCKRYIeVRCLBNS2wZ3/q1Cl/f/+TJ08aGhoqKyt3d3dfuXLFy8sLHyV4+fLl8PAwjUYDAHh5eW3atCk8PFxeXj49PX3SpElLlix5lyaYP3/+gQMHrKys2tvbT506lZ6eDgA4fvz4nDlzxum0uLu7f/nll3V1dbq6ugcOHHBwcJCXly8uLo6PjwcAuLm5rV69ura2dvr06eXl5bBu39HgpKSkmJgYaWnpgwcPenp6CtfPOLG1tT1x4oSZmdmtW7eqqqoAALNmzfr666+bmprU1NTwGw/Hy8tr7969P/3009DQUFxcXHBwsPAYjvicIiVraWnl5eVBx7ugoABGqPPw8Ni3b5+FhUVlZaWrq+vLly/xe0Z8e40Fn893cXHJycmh0WgsFgt6KaNljtb76tUrc3PzWbNmhYWF7d27F46ufIyIeeK1tLSg9wLSi/R+XHrRiAoCgZhQFBUVs7KyHj58qKOjU1tbGxYWpqKi8uOPP169etXGxgbOOenv7585c+Znn32WnJz82Wef+fj4wC/NX331VVhY2Pz582NjY7/99tvg4GBNTU0nJ6cdO3bg0ZYAAOnp6ebm5paWltHR0evXr4+OjhZvkrW1dU9Pj66uLo1Go9PpGzZsAAAsXLjw1q1bwptOODg4bN++PTU11d7efu7cuTDM6/bt28+fPz+WZA8Pjz179gQHB1tbW798+XLKlCkAAB0dnbKyMiaTuXnz5n379gEAGhsboatz5coV2BUWDrzr5eXl6+trYWGho6Nz+vRpuAbjXUhMTOzo6NDT07O1tV22bJmLiwsAALoW45RAo9H279/PZrP19PTy8vIOHz7M4XAkJSU1NDQAAOrq6ocOHfLz89PV1V26dClcGfIu+Pv7e3p6mpubs1gsRUXFuLi4twjcvHXr1qKiIi0tra1bt86fP39oaMjU1DQmJmbGjBmGhob29vYjXpMJCQm9vb3Tp0+fPn36wMCAiYkJ3jojGJ1TpGQ2my0jI2Nubh4YGPjpp5/CyVqbN2/u7OzU0tIKCgrKysqSlpbG7xnx7TUWsrKyUVFRLi4uOjo68+fPP3TokISExGiZo/VWVFTMnDkTCM0BQyAQiL8dAj4S3dzcPNboPHzIjrWX5LukIr1IL9I7AXpJJNJfERcY8RZUVlYuWLBg/C4BAoH4E30aAkHMs+7BgweGhobovYD0Ir0fkV40ooJAIBATCnIaEYi/BRT1C4H46ECOCgKBQCAQCAQCgUCOCgKBQPyLMTMzq6urQ/WAQEw8KOoXAoEcFQQCgUAgEIgPjpaWFlQJCARyVBAIBAKBQCAQCAQCOSoIBOLD5tq1awQC4eLFi29xraur67Vr14TP/P777zU1NQCAtra28cgUCAQsFgvDMPxgAor86aefVlZWikz6/vvvdXV1f/vtN5GpbDa7urr6L7XtjfUgcosSFov1/Pnz0Wfi4+NTUlLGEpWamrpr1y4xtTGarKysq1evAgCioqLQbwfxHlFVVUWVgEAgRwWBQCD+HywtLZ89e+bk5PRepGVnZ0NH5fbt2+NxVCoqKmbMmEEgEPCDCSjyhQsXzMzMRCbl5+dnZmY6OjqOThoaGnr8+LGRkdFfatsb64FIJDY2Nr4XXYWFhZ988omY2hjNnTt3LCws+vv7paWl0W8H8R5BUb8QiI8OSVQFCATir6a8vNzBweHChQtz5sxZtmzZ6dOnBwcH3d3dDxw4oKCgsHLlyl9++WXq1KkmJiY5OTl9fX2VlZXm5uZHjx4NCQkBAFy8eDEhIeHp06fffvutjo7OL7/8UlhYCAD4+uuve3p6pkyZ0tLS8uLFCz6f39bWZmpqun379qtXr3711VcVFRUAgEuXLsFNEvGDpKSkwsJCAoEwbdq0vXv33rhxY8uWLUwms7q6WkdHBx7U1NQUFBSoqqpSqdSYmJjq6urnz59HR0eXlZXdvHkzLS3N3t7+0aNHy5cvJxAIfX19mzdvdnZ2xotsb2+fmpra09Pz/fffMxiMV69evXr16vz584cOHXrw4MGqVauSk5NbWlqSk5NlZWUlJSV//vlnOp1eVlZmbW0NAKirq4uJiREIBH19fZs2bZo9e7azs7ODg0NTU9ONGzc2bNhw/fr1ysrKgICAlStXJiQkNDY2kkikGzdufP7558+ePXv69KmMjMyJEydev/7/2DvvgCiOsOHPwSHt4OgcVZrUo6j0QzqIolJEaRaMiNhQExQ1qK8KKopdikQRbGBDiAUBURQQAZEqIoKIIBy9Sr/b7495s+99tJiYmGDm99fcTnlmn93bnWefmXm6fXx8mpqaBgYG3N3d/fz8cD08ffp0orMWEBAQEBDo7e1tbGx0c3Pj4uJSUlKCMc7HHmG1zQ4fPszJycnOzn7u3DlZWdnBwcHa2lplZWWoDVlZ2WXLlg0NDXV0dKxbt87X1zczM3Pjxo2ysrK6urq//PJLXl7e/v37nz171tPT09zc3NHRcfPmzSVLlqB/EAKBQPxHDRU6nQ5Tvb29eHoU8G3Exsb2l+ciuUgukvtt5P5LSE5OvnDhQmFhIYVC8ff3LywsHBwcPHPmzOHDh52dna2trWGwJ3Fx8YCAANyxwGAw0tLSCgsLly1b9vr1azMzMzc3N0dHRzqdXlFR8dNPPwUGBtLp9NTUVCaTqampWVRUZGhoePfuXVg9LS0tLi4OT2RlZWVlZT1+/JhAIKxbty42NlZVVbWkpOTXX38lEomCgoI3btzYtm3b2rVr79+/v3LlytbW1kWLFgUGBtrb25eXl0dERMTFxV24cMHExMTX19ff33/hwoVv3ryZO3dubW3tKDcFOzt7fn7+zZs3SSSSq6trcnLypk2brl69GhYWpqCgoKysXFxcLC4uHhkZuXPnzqtXr0L/AwBg7dq1hw4d0tfX//Tpk4mJSU1NDTs7u4iIyP79+48ePXr27NmcnJzGxkZjY+PNmzezs7O3tbUlJCTk5+ebmZl9+vRJUFBQRUWltrY2OjpaSkoqPj6+v7+fSqXOnTtXRUUF6qGmpmais8ZDmB87dszKymrPnj0VFRWRkZHjHoH09PRs3bo1Ly+Pn5//+vXru3btunLlSlZWFo1Gw8vcvn1bQ0PjxIkTg4ODsO7WrVtPnTplbm4eGRlJJBIlJSUjIiLWrl0bGRkZGRlpZGSkra2N3tOIP8RET0JoZk+Uhd5HSC6S+++US8SjS6LImkgukvsdy/2XoKqqSiKRHBwcrKys3NzczM3NDxw4AADw9vYWFhZeuHBhTEwMAEBCQuLw4cN4LTh2l5eXb29vn6hlOJOKjY1t5syZr1+/1tHRkZCQAAB0d3f39PRISUnhicuXL79+/Rp6P3p7e0VFRVVVValUKicnJwBASEho5syZAABRUdHOzk4AAAcHh5aWFjzCmoVhWF5eHuybmpra8PAwnU6HQlmhUqkkEgmeFGv/y8vL5eXlxcXFAQAWFhYnTpyAptSmTZswDMvJydm+fTtu7cCKs2fPhtLhNCq8h6xZ06dPFxQUxHNzc3O3bt0KAODm5tbX13/16pWEhATUQ01NzSRnDSkuLobdUFVVlZKSGvcI5PXr13Q6fdGiRfCW4+HhASwuLIi1tXVoaGhXV5ednZ2vry+GYaWlpdCSsbGxgVf8w4cP06dPBwC8efNm1apVaNiN+KNM9CQEALx9+xbe5+i9gOQiuVNFLpr6hUAgvh3KysplZWV37tzJyMhwcHA4efIkq8NnIucPBwcHTEyy/huvy2AwWD/JPH78GNokeIJAILi4uLCu/87KymJnZ8d/4mkobpIsVv8JhmHjfihifeyy9n9Umo2Nrb29ncFgiImJwYP37t2DFs5Y6aO6MW4WzB0rBdfD5Kc2Ns1gMMY9AiEQCEpKSnARPE56evrOnTvxnzNmzCgvL3/69GlCQkJISEh+fj7eGrx8jx49Cg0NZWdnh7PCNm/evGHDBk1NTfTHQSAQiP8maDE9AoH4dty7d2/79u3u7u4xMTFw2ApdAdHR0ZWVlfhkrcbGxh07dky0TxQbG9vg4CBrAgCQkZGBYdjw8HBBQYGWltbAwACc5jF2gYqJiUlycvLAwAAAIDQ09NWrV3/uXAgEgoGBQXp6OgCgrKyMl5dXXFycTqc3NDR8SXUNDY3a2tqWlhY4oDc0NExLS7OysoK5NBotISEBAFBXV4e7Vv4ExsbGsIf9/f15eXl6enqjvBy/28mcnBwAQHFxMdTn2CN4yY8fP1ZXVwMAkpOTL1++3NTUxMnJCd07kNu3bxcVFdna2oaFhX38+PHz58/q6uqwtfv37wMArK2tdXV1L126dPbsWUtLy8jISGSlIP5C0K5fCMSUA3lUEAjEt8PAwCAyMlJJSQnDMGNj4127dklJSa1atWrfvn3x8fE0Gu3evXsAgKamppCQECqVOu5WURYWFtu2bYOt7d27l0wmw+UNDg4OjY2Nzs7OGhoa+GL6Z8+eHTt2DACAJ2g02vLly83MzDg5OWVlZTds2FBQUPDnTic8PHzTpk2nTp0aGBi4cuUKACAyMrK3t3eS7Xpx+Pn5IyIiHB0deXl5OTk5o6KiAgMD8cUhERERvr6+MTExfX19e/fu/dMK//HHH9esWWNra9vX17dr1y4FBQVcD1+Cv7+/q6trRkbGjBkzdHR0mEzm2COwJIlEio2N9fT05OHhwTDswoULqamp1tbWrK2pqan5+PgQicShoaFt27bx8fEdO3Zs/fr1IiIi+FKW1tZWYWHhwsLCv3vrM8R/ELTrFwIx5SDgnnc0xw7JRXK/V7kcHBzfJnjIV+Lv7w8H+n+0YmBgoICAgL+/P3qmT1HodLqhoeGoOC0IxB8e0xAIkzzr0HsByUVyp5xcNPULgUAgEAjE909bWxtSAgIxtUBTvxAIxL+F0NDQL5k0NZagoCCkvSkNhUJB7hTE301raytSAgIxtUAeFQQCgUAgEAgEAvGvg4jHWGAymRPFW5g8DsPX5CK5SC6S+8/KRSAQiO+JSZ54wsLC6L2A5CK5U0su8qggEIh/DAqFMmpjqD+HiIhIVVXVqIMwdiQA4NGjR/X19V/STnZ2toODA0zb2NgUFhZ+S228fPlSSUlpotxLly6RyeQdO3ZMVCA4OBhGjfw2fIl+SCTSKM0XFRWNPceTJ096e3sDAAQEBCa5UkNDQzIyMuMG2zl79uyyZcv+xFmM7eEk4P2cpBZ+103e8tq1az9//gwA+HPdRvw5hISEkBIQiKkFEV9fz8bGNskafzDpDgBfk4vkIrlI7jeQ+18Dw7AdO3Z4eXkBAM6cObNz505paenfrfXo0SMYyWRwcLCiomLczZH/PnR0dF68eDFRblJSUlBQ0KZNmybp/KlTp75NV79QP+/fv/8LI1fk5OTo6emNG1XzT/PnejhRLda7bvKWe3p6eHl54Y586N/6lw9r0HsByUVyvxu5yKOCQCD+dkpKSggEwo8//mhoaMjLy+vk5ITvQUaLSYsAACAASURBVEwkEgMCAkgkkpaWVkVFRXZ2NoFAOHToEMw1NzcXEREZGRlJTk7W1NTk5uaWl5ePioqCuRQKJSsrC6ZTU1OpVKqwsPDBgwcBAM7Ozs3NzVQqdefOnSkpKZ6engkJCQsXLgwICLC2ttbU1PTy8hoeHgYAuLm54WvxHz16BD08WVlZRkZGBAKhsrLS3NxcVVVVV1f3+fPnAIDi4mIdHZ2dO3fSaDR1dfWnT586OjpqaGhs2LDhd3MBADdv3qRSqSoqKmZmZhUVFaxaKioqMjQ0BACcOnVq9erVnp6ehoaGurq6tbW1Bw8eTEtLO3LkyN69e5lMZmBgoIqKioqKyrJly7q7uwEAfX191dXVMDxicHCwqqqqmpraxo0bh4aGAACCgoJhYWHW1tZycnKJiYne3t6GhoZz5syBV2Hy3NLSUhqNpqysrKWlhUfkxPUzeV0FBQUY/vLQoUOysrI6OjowsCMAYGBgwMPDY/r06SYmJu/fvx91w9y/f19LS0tVVXX+/Pl4WEl4dQoKCjQ0NLZs2WJiYkKlUjMyMmAug8FYunSppKTkrFmzamtr/f39N27cCLM6Ojp4eHhaW1tDQ0NnzJihqKhIo9GgULyHt2/fVlVVlZaWXr58OYwieunSJRUVFQUFBXNz87q6OtbuwVpDQ0PLly9XVFSUk5Pz9PTs7+/H77q6urpJWsZ59+7dJD40xF8O2vULgZh6YL/R2NiITcDw8PDw8PDfkYvkIrlI7jeQy/pP/0d48+YNAEBcXDw3NxdGGwwODsYwTFxcXERExNfXd9euXQAAV1dXJpMpJydnbGyMYVhvb++0adNWr17NYDD4+fmdnZ1zc3O3bt0qIiJSX1+PYVhycnJbWxuGYcLCwhs2bGAymRUVFRwcHJ8/f25paeHk5ITSYTB1DMMcHBxMTU0ZDMbw8LCuru6VK1cwDMvPz3/79i2GYT09PbKysrBKQEBAZGQkhmEzZ86MiorCMCwvL09SUnJwcLC0tJSdnT07OxvDMHd3dyqV2t/f39fXRyKRGhoaJs+tra0VEBB49+4dhmHnzp3T19dn1VJ+fr6ioiKGYWfOnBEWFobXdO3atbt27YKdv3z5MoZhcXFxM2fO7O3tZTKZHh4e27dvh6pwc3PDMCwxMVFdXb2zs3NkZMTR0fHUqVNQPyEhIVAoFxcX7ICFhUVcXNzkuQwGQ01N7dq1axiGlZWV8fPzt7S0sOpn8pZ5eXnr6urKy8sFBAQaGxuZTKanpyc8x/DwcBMTk+Hh4c7OTjU1tdWrV2MYRiaT6+rqGhsbBQQESktLMQwLDQ11cnKC+jEwMKioqCgsLCQQCKmpqfBkZ8yYATUmJCRUXl4O1b5r166CggIxMTH4r4mNjZ07d25LS4ugoGB3dzeGYRcvXgwLC8N7+OnTJ1FR0ZqampGRkQULFhw6dKitrY2Li6u6uhrDMB8fn7Vr12IYduLECdhPWOvmzZvW1tZMJpPBYPz0009ZWVmsd91ELZ84cWLu3LlKSkoODg66uroGBgZnz57FEH8Rkz/rMjIy0HsByUVyp5Zc5FFBIBDfCBcXF319/c2bN/Pw8KSnp8ODfHx8ERERwcHB06dPf/PmDYFAcHNze/HiRWtr65MnT4aGhpYsWQKfVu/evauqqtq+fXtLS4uUlBQAwM7ODp90/sMPPxAIBBUVFRKJ1NTUNFEfHB0dodvazs4uJycHAKCrq6usrAwAyMjIMDU1Zf14//Hjx8rKytWrVwMA9PT0JCUlYRVBQUFjY2MAgKKi4pw5c7i4uLi5uSkUCp1Onzw3LS2NRqPBj+grVqzIy8vr6uoat580Gg1G1FJXVx+11OH+/fseHh68vLwEAmHFihWpqamsvqCkpKQVK1aQyWR2dnZvb+87d+7AWvb29rBL8vLysAOKioq4s2Ki3Jqamrq6Ojc3NwCAhoaGurp6dnY2q7jfbRkA8PTpU1NTUwqFQiAQli9fjh90dnYmEolkMhlfF4Q7xwwNDWFk+rVr1969e5fBYHR1ddHpdBUVFQAAPz+/jY0NFF1VVQX3nKXRaGpqagAAQ0PD+vr6WbNmCQkJwdssISHB1dWVl5cXw7CrV6+2tbV5eXmtX78el5iWlmZkZCQnJ8fOzn79+vWtW7cKCQk1NzcrKChAt95Ynw906L158+bBgwdDQ0OhoaE0Gm1smbEtb9myZcOGDfv3709MTLS0tLxx4wbubUMgEAjEKJChgkAgvhHi4uIAAHZ2dgEBAXwOhry8PEyIiIjAiTGenp5MJvPhw4dpaWlCQkKWlpbs7OyxsbHd3d2enp5SUlJLly4dGBgY1Tg/P///PtTY2BgMxkR9EBQUxMt3dHSMGlPCBSrt7e0dHR2KiorNzc0DAwMKCgpycnJycnIfPnxoaWkBAPDy8sIq7OzsPDw8eBrKnSS3ublZWFgYHuHi4uLh4YENjoWPj2+i02FtREhICLaAr65pbm4+evQo7LCvr29PTw8sCXs1bocnyW1ubhYSEiIQCKzicP18SctQn7jaccNy3IP4CWZmZsJToFKpJBKppaXl8ePH5ubmsICAgABMEIlEbm5ueB3H3gDu7u7Xrl3r6+vLyMhwdHTk5uZ+/Pjx48ePlZSUbGxsampqWCXibfLw8HBycjKZzKNHjxoYGBgYGMDpdmOvkYmJycmTJ0NDQykUio+PT19f39gyY1sGABQUFOjq6gIAamtrZWVl0ZPhm/EXrphCIBDIUEEgEN8V0DMwMDDQ1tYmKioKD+KDYBwqlUqlUh8+fPjkyRNHR0e42tjR0fH9+/dv374NCAi4efPmr7/++uf6gBtIHR0d+HAfgnsJ0tPTLSwsAAAUCoVEIn34jZaWFhcXl6/RgJiYGG6Z9PX19fX1QePtTzfS2toqLi7e3Nz8+fNnOTk52OfAwEDY4bq6upcvX35lh9vb2/FhOhSH6+cLERQU7OzshGnc2TXuQQjcCw5Xe0dHB4VCYfXhtLe3w0k+g4ODfX19o64jjoeHR2JiYlJS0pw5c6BRNHPmzBs3bjQ3NxsYGGzevHlclXZ0dNTV1V2/fv3OnTspKSm5ubl79uyZ6NRcXFyePHny4cOH2trayMjIyS8WbNnd3T06Otrf39/R0TE7O9vR0TE3Nxc9HL4NE90qCAQCGSoIBOK/zu3bt2/duhUQEDA4OGhnZzdJSU9Pz5SUlLKyMmgYvH//no+Pb8eOHd3d3ZKSkgAAEokEAHj48GF7e/u4LXBwcIyMjMAdYDk4OPAx8a1bt/r7+wcGBu7evQsner18+bKysrKhoYHBYMCdwXDXirS0tKKiYlxcHACgpaXFw8MD3wPgzzF37tznz5/DnZQvXLgwZ84cPj6+rq6u6OjoL29k4cKFcXFxfX19TCYzOjra3t7+0aNHlpaWMHfRokVXrlyBjpSoqCh8t9w/h4KCgqysbHx8PACgqKioqqrKxMQE188XYmxs/OzZs8bGRgaDgffHyMgoISFheHi4tbU1KSmJtbyNjc3z58/fvXsHAMjPz/fz8wMsLiNo492+fRsAcPPmTQ0NjYn2nFVSUlJWVt6xY4erqysA4MWLF87OzgMDAxwcHMrKyqxOEmtr6+fPn5eXlzMYDB8fHzg9TE5OTkBAoKOjIyYmZtzrfvr06f/5n/+BS2ukpaWZTCbrXTdRy3FxcaampklJSSEhId7e3omJiQYGBujhgEAgEMhQQSAQ/ySurq6hoaHR0dEeHh6sKwTG4u7u3tbWRiaT4Ud0BQWFkJCQW7du0Wi0kJCQffv2zZ8/HwDg5eVVXl4+bgtkMtnS0nL69Ol5eXlOTk6urq5nzpwBAJiampqbmysrKxsaGjo6OgIAQkNDb9y4wToOfvz4MZ6Oi4uLiopSUlKi0WimpqbQQPrTSEtLnz9/3tHRUVlZOSkpCY7aGxsbfXx8vrwRFxcXe3v7mTNnqqqqksnkgIAAVm/DokWLnJ2ddXV1FRQUEhISbG1tv6bDBAIhPj4+LCxMRUXFy8srPj5eUFCQVT9fgra29saNG2fNmqWhoWFiYgKjeq1Zs0ZUVFRWVtbe3t7FxYU11Je4uPjFixcXL16spKTk4+OzdOnSuro6IpEoISGBm085OTkqKipBQUHnzp2bRLSHh0dzc/OiRYsAAPr6+nJycnAjr3Pnzh05cgQvJiUlFRUV5ejoKC0tzcXFtXXrVldX15aWFmVl5cWLFwcHB9fW1v78889jGy8oKJCTk1NQUOjp6fH19WW96yZqubKyEq7kyc7OnjNnDnosfEvQrl8IxJSDAHcEAgA0NzeLiYmNWwi+Qiba+fhrcpFcJBfJ/QZyubm54VSZf4qKigo1NbWgoKCxo71x6ezspFAoy5YtO3/+/F/YDUdHxyVLlnh6eqJH/9SlqKhoyZIl0N/yu8TFxd25c+fGjRtIb/+VMQ3h/0Y1Y8nOzh53zwP0PkJykdx/rVzkUUEgEN+ILzSW7t27B4OcwDk//0gfEN/BjdTd3X3o0KFJQmQiEAgE4l8OikyP5CK5/wm5U4iAgICGhoYTJ05oaWmhZzTizwGjT65btw5Nr/oPDmsmyhIREUHvBSQXyZ1acokAgUAg/mZUVVW/3JXx+vXrv2/wiq7FVEdHRwfuRjA5jo6OcA0SAoGDdv1CIKYcaOoXAoFAIBAIBAKBQIYKAoFAIBAIxDcH7fqFQCBDBYFAIP4CQkNDu7u7AQDW1taGhoZ/qO6WLVvG7iPMxcU16sirV68qKipYE5NTVFQE47rARHt7+8OHD//0Cc6bN6+oqOjRo0cLFiz43cIJCQkDAwNf2PK1a9e+UvmwhaysLHzX4y8hPj7ey8vrK0Vv3rx5aGiop6cnICAA/QsQfy2tra1ICQgEMlQQCATiq6iqqtq2bRs0VP4+bty4Ae0TPDE5qampMCwJTOTl5X2NoZKcnKyjo/OFhY8cOfKFhkpfX9+xY8e+Ri1f38LvwhpscRSDg4PTpk3Lz8+fPXs2+iMgEAgEMlQQCATi7+Xx48cEAiE4OFhcXFxKSio5OdnIyIiPjy8kJAQA8Pnz51WrVomIiEhJSR07dqy+vn7GjBkAABkZmRcvXgAA2NnZvb29eXh4zMzMurq6AAAvXrwwNDTk5eVVUlKCsVYwDFu/fj2ZTJ49e3ZLSwuUW1RURCAQrly5AgCYNm3awYMHTUxM1NXVi4qKsrKyYmNj9+/ff+LECZhIS0szMjL66aefXFxcDAwMYED6jIwMXV3dsYYKLJmYmAjH9IcOHbKwsLC0tFy9evXw8PDTp0/nzZu3cePGJUuWmJqa9vb2Njc329rampuba2trR0ZGAgBMTExevnzJapvZ2dnZ2tqamppmZGSwai88PLywsNDFxaWpqSk5OdnMzMzW1nbevHkfP34EAERGRhoaGhoZGVlbWzc3N69du/bdu3crV65kbWHfvn1r1qxZv369jo7O6dOnt27dumjRIhiv/fPnzytWrLC1tTUxMTl9+jQAgLUFJpPp5eWlq6trYmICo7MnJiYaGRlZWVnNnTsXduD06dM6OjouLi5PnjwZdd3fvHljaWlpZWVFo9Fgrqmp6U8//aSnpwcramtr29nZ7dmzZ8WKFRkZGatXr87JyfH19d21a1dSUlJxcTH67yD+QkRERJASEIgpBvYbjY2N2AQMDw8PDw//HblILpKL5H4Duaz/9H+EzMxMAMCKFSsqKyu5ubmFhYUrKiqWLl3Kyck5PDy8Z88eMTGxlpYWOHB/+fJlVFQUHLszmUwrKytOTs6YmJiIiAgAQFhYWE9Pj5iY2Pz58z99+rR7924CgZCbm/vgwQMAwLFjxyorK2VkZHh5eTEMa2hoCAgIKCwsxDCMg4MjOTkZw7Djx4+vX78ewzBXV9c7d+6wJmg0WnBwMIZhnz59EhMTGxkZ6e/vb2howDDs8+fPmpqarImIiIjNmzfDs5s/fz6TycQwzNfX95dffsnMzBQWFu7p6cEwbOnSpTdu3AgPD9+yZQuGYQMDAydPnoSy8vPz09LS7O3tMQyztLTMzc3FMKy+vl5OTm6UAsXFxTs6Orq7u1VUVLq6ujAMi4+P9/T0xLMwDEtLS3v16tWbN2+0tbVHVT9w4ICTkxOGYXl5edzc3O3t7RiGKSsrf/jwYf/+/SEhIfA+0dLSevv2Ld5CZmamgIAAvLUWLVp048aNrq4ucXFxOp0OT9/Dw6O1tVVUVLS7uxvDMA8Pj5UrV7LKNTU1/fXXXzEMKy8vl5GRgVdz7969GIbBip2dnUwm09LSElbMz8+PjIzEMGzt2rUYAvHHmfxZh94LSC6SO+XkEmEkSPjlDE+PYqLjX5+L5CK5SO4/K/db4uzsPGPGDAUFBWlpaRUVlTlz5ty4caO9vf3Zs2dtbW1KSkoAAC4urvz8fLiehJOTk0AgAACUlJTgQHbjxo319fVFRUXNzc3e3t6SkpLr168/cOBAeno6PE0vLy8hIaGFCxfGxsYCACQkJA4fPgylEwgEGxsbAIC8vHxeXt5EnTQ1NQUASEpKcnBw0Ol0KSkpCQkJ6FqBWXgCJysr6/Xr1xYWFgCA3t5eUVFRVVVVKpUK18lISEi0t7dbW1uHhoZ2dXXZ2dn5+vqO/WCUk5Ozfft2+JOdnb29vV1ISGhUsdevX9Pp9EWLFsHLysPDAwBYtmyZpaWli4uLk5OTmpraRHPY4EwqUVHR6dOnCwoKwnRnZ2d2djadTodmHoPBqKqqUlBQwGtpaWlRKBSotPb29vLycnl5eXFxcQCAhYXFiRMnKioqZsyYwcfHBwCwsrJ69uwZ60nl5eVBH5Samtrw8DCdToeuJABARUWFqqoqmUyGN0Z+fj4AoLS0lEqlog+IiK9hkiceei8guUjulJOL4qggEIhvBCcnJwCASCRCOwTGdWIymQQCgUqlFhUV4SVjYmJYK8IRP4FAIBKJ0HHB+sQEALCxscEE/kl1rHQCgcDOzo6PoSd5BMMEg8FgY/u/ybGjFqiMatnFxSU0NJTVdGGNWoVh2IwZM8rLy58+fZqQkBASEsI66Qu2AAC4d+8e6x4Abm5uL1++FBISws0qAoGgpKQ0amJYaGhoTU1NcnKys7NzcHCwuro6PH7ixImwsDAAQHJyMjR+cCuItWMEAiEoKIh1QT+rqcPBwTHK/c76k42NjfUIg8EYq/NR5cFvuxrgP/EuhYeH//LLLzNnzoyOji4oKPD19T116hS8ZxCIv4T29nYxMTGkBwRiCoEi0yO5SO5/Qu6/GVNT06CgoOfPn3d1dR04cCA6OhqeS2lpqaio6NjyM2fOFBcXv3jxoqGh4ZkzZ9jZ2efOnVtfXw8AiI6OdnBwuHv3LizZ2Nh46tQpNze3cZets7GxDQ4OsiYAAI8fPzY1Na2pqQEAiIuLDwwMdHR0SEhIPHny5MCBAwAAPIHXMjEx8fHxCQoK4uLiCg0NtbS0HCvr9u3b0tLStra2VlZWFAoFrvdghUajJSQkrFixoq6u7syZM0eOHImPjx/VVQ0NjY8fP1ZXVysqKiYnJ7e2tjo7Ox8/fjwwMHD9+vVDQ0PPnz+nUqmwV1u3bt26devvKt/ExCQhIWHBggUjIyN+fn4hISGs2hiFhoZGbW1tS0uLqKhoenq6oaGhiorK27dve3p6+Pj4Hj58CF0rVVVVYmJi/Pz8BgYG6enp8+fPLysr4+Xlha4YCLTcPn/+zMPDk5iYSKFQ1q9fX1JSEhkZmZ2dbW5uvnz5cvSGRvy5Yc1EWW1tbei9gOQiuVNLLvKoIBCIf5ht27bV1NTY29tzcHD4+fmpqqpyc3PLysouW7YsKSlpbHkSiZSYmLh582YlJSUZGZkrV67o6OhoaWmtWrVq3759169ft7Kyunr1KgCgqakpJCSESqWOa6hYWFhs27aNNQEA6OzstLe3//Tp09mzZ9nY2F68eOHv73/nzh0ymczHx1dXVwcTAAADA4O9e/eSyeTDhw8vX77czMyMk5NTVlZ2w4YNBQUFo2Spqan5+PgQicShoaFt27bBFliJiIjw9fWNiYnp6+vbu3fvqFwbGxsrK6ubN2/GxsZ6enry8PBgGHbhwgVeXt7BwUEDAwMSicTGxnb+/HkKhUIgECwsLMYubR+XLVu2+Pr6zpkzZ3h42NHRkY+Pj4ODA7YA7TFW+Pn5IyIiHB0deXl5OTk5o6KiREVFAwICjI2N5eTklJWV4TYG3t7e/v7+CxYsCA8P37Rp06lTpwYGBuCWBjji4uJ+fn6GhoaKiora2tptbW0MBgO+ovLy8ubPn4/+FwgEAoEg4I57Op0O5yKPBc4bm8gG+ppcJBfJRXK/gVwODo5JJjshcExMTE6ePIlv84X4W7l48eKSJUtIJNKuXbsEBATwJToIxJ8f0xAIkzzrXr9+raGhgd4LSC6SO4XkIo8KAoFAIP4B2traaDQamUwWFha+dOkSUgji70ZYWBgpAYGYWiBDBYFAIP6XrKwspIRvhr+/v7+/P9IDAoFAICYCBXxEIBAIBALx/dPW1oaUgEAgQwWBQCAQCATi30VraytSAgKBDBUEAoH4Utzc3PBoG0ePHiWTyWQyeWxEDlbKysqkpaVHHayqqsInbo0KwzIJwcHBJ06cAABkZ2c7ODh8+9PPz8/X19fn5+dXV1e/d+/eX9Lm0NAQDAOflJQEgyrOmTMHj45y6NAhMTExQUHB9evXQz1XV1ebmJjw8vJqaGjk5OTAYsnJyTNmzCCRSDY2Nk1NTaNaHje3paXFzs5uVMRGXMPjcvLkSW9vbwDApUuXyGTyjh07/ujJnj17dtmyZX/fBfL09IQD3B9//BH9WxEIBAIZKggE4nsGj6g4lqioKGFh4fv377MGJfxC7t69Cw0VDMO+fLz76NEjKysr1sS3BMMwZ2dnPz+/rq6ukJAQNze3gYGBL6w7iS2Xk5Ojp6fX2Ni4cuXKixcvdnR0mJmZrV+/HgCQnp5+7ty5vLy82trasrKyc+fOAQC8vLzs7Ow6OzuDgoKWLl06PDzc2dm5bNmy8PDwjo4ObW3tTZs2sbbc3d09Nrenp8fc3FxbW3siDU/e7aSkpKCgoMOHD/+r7tWBgQEYnvL169dqamrozzvVERERQUpAIKYWRDqdDlO9vb14etyBBWuQ5r8qF8lFcpHcbyP3n6WkpERbW3v37t1xcXErV65cs2aNp6dnTk6OtbU17k7R1dWtqqoCAMCYHsePHz979mxLS4u6uvqpU6dMTEwiIyNv3br16NEjAAAHB0dQUNCFCxdGRkbOnz8Pf3JwcHR1dVVUVDQ3N1Op1OTkZHV19cDAwJSUlIaGhrVr18IAiBQK5datWyYmJn19fdXV1ZqamnA8fe7cORkZmSdPnigpKV2/fn358uWdnZ08PDzHjx+/f/++hIQEjASipqYGY8AzmUwRERErK6u5c+d6e3s3NTVRKJTU1FQbG5tXr155eXmVlJQAAM6fP5+RkTFu3ZKSkuDgYOgQWLhwIZPJbGxslJeXx/VWWlrq6+vb0tLCxcUVHBy8cOHCV69e/fDDD1Qq9dOnT0+ePDl8+HB4eLiYmJiPj8/Bgwc/fPgAz8Xa2hoAEB0dbWRkBABYvHhxbGwsAOD27du+vr5ycnIAgG3bth0/ftzFxaWoqOjJkydEItHJyQlG3mxqatLT07OxsQEA7N69W0JCYnBwkJOTE7acmpo6NpdAICQlJdHp9Pv37+P9xzV8/Pjx0tLSwsJCe3v73bt3//DDD9nZ2TIyMrNmzQIAHDx4MC0tLS8vr7W1dd++fXj1Dx8+rFixorGxkcFgrFmzZufOnRiG7dmz58qVKwwGY/PmzT/99BM0fpYuXZqVlUWhUO7cuTN9+vTKykofHx86nU4ikU6fPm1sbFxcXLxy5cp58+Y9e/aso6MjIiLixIkT7969Mzc3DwsLAwBcunQpODh4eHhYVlb28uXLMjIyAICKigplZWUAQHl5uZaWFhoxTAkmehICADg5OdF7AclFcqeYXOw3GhsbsQkYHh4eHh7+O3KRXCQXyf0Gcln/6f8Ib968AQCIi4uHhITk5+d7eXkBAMLDw8+fP8/JyQm7V15eLiEhoa2tnZ+fn5+fDwA4cODAixcvrKysDAwMMAyrqanJzs7GMKy0tJSTk/PSpUsYhp07d87Y2BjDsA0bNhw6dAjDsJaWFk5OTiiXTCYHBgZiGNbQ0MDLy1tbW4thWHJycltbG0y4ublhGNbT0yMrK4th2PLly2GzGzZs0NfXf/LkCYZhTk5OkZGRCgoKGIY1Nzfr6+ubm5tjGFZcXKyjo3PhwoUffvgBw7CbN2/q6+vv3bsXw7BTp05t2bIF9qG6unqiurh+BgcHIyIiNDU1R0ZG8IMMBkNNTe3atWsYhpWVlfHz87e0tJSUlPDy8sbHx0ONCQkJNTY2Dg4Ozp8/X1FREVY0MDCoqKhg1X9ISIiHhweGYdbW1rdv34YHKyoqJCUls7KyNDU18ZJubm5RUVFBQUGbNm3CD1IolMrKSrzliXIxDMvMzNTQ0MCzcA2fPn1aVFS0uroaw7Dw8HATExPot1FTU1u9ejWGYQ4ODpcvXx5122zYsOHAgQMYhnV2di5evLizs/PWrVsGBgZ9fX1tbW1SUlI5OTlnzpwREhIqLy/HMMzd3X3Xrl0Yhs2cOTMqKgrDsLy8PElJycHBwdLSUnZ2dnj/uLu7U6nU/v7+vr4+EonU0NDQ1tbGxcUFu+fj47N27VoMw1avXj179mxDQ0MHBwd5efn58+dnZGRgiH83kz/r0HsByUVyp5xcNPULgUB8I+bOnbt9+3ZdXd3U1FRtbe1169atXr0afvKH3oZp06aRSCRdXV34ZaWgoKC9vT0pKenFixcAADk5OWNjY1h42rRpy5cvBwAYGhrW19dPItTZ2RkAICEhMXPmzLy8PACAnZ2dkJAQq+chIyPD1NQUAGBhYQEXabx4m64YNwAAIABJREFU8cLHxyc7Oxum3dzcRkZGmpubs7KybGxsOjo6hoeHs7KyrKys8CqZmZkbNmyAVWAW7ICCgsJEdWGBu3fvcnNzHzx48MKFC6xz3mpqaurq6tzc3AAAGhoa6urq2dnZBAKByWQuWbIEAPDs2TMzMzMKhYJrAwDQ1dVFp9NVVFTwdlJSUs6dO3f06FHo4oBzmQAAXFxcvb29rEcmP4i3PG7uuMrHNUwgEGbNmqWgoAAAePr0qbOzM5FIJJPJk68LkpCQePToUV5eHh8f361bt8hk8r1791xdXbm5uaFxoqenBwCg0WhwXha8GT5+/FhZWbl69WoAgJ6enqSkJLxAgoKC8P5RVFScM2cOFxcXNzc3hUKh0+lCQkLNzc2we+bm5u/fv4euMDMzs4SEhMTERH19/fv375uZmaF/8ZQG7fqFQEw5kKGCQCC+EXAgCABobW3F49pKSEiMLamnp7d3794nT57Mnz9fTEwsODh4VAF+fv7/fYSxsU2+8l5QUBCv0tHRMWoYDa2FtLQ0mIBWR2dnJ5FItLS0zM7OrqyslJGRIZPJMOvZs2fGxsba2tqFhYXQ2JCXlx8YGOjo6Hj+/LmTkxOcp5SbmwstH8hEdWHuwoULBwcHo6OjFy5cWFtbi9dqbm4WEhLCp8YJCQm1tLTAM4LO8ba2NmhxAQBkZWVh4vHjx+bm5ngj165d27x5c0pKiqSkJACAl5e3u7sbN2lIJBLrkckP4i2PmzuRoYKfJh5rr729Hb8oeP9xXF1dRURERERECgoKAgIC7OzsvL29JSUl4Yr85uZmAQEB/IJCu27UzdDc3DwwMKCgoCAnJycnJ/fhwweoN15eXliMnZ2dh4cHTzMYDCaTefToUQMDAwMDg7179+KzJel0uoSExMjICAcHB/r/fgegXb8QCGSoIBAIxPjg7gJhYWF8hmtdXd3YkgQCYffu3W1tbbm5uVZWVoGBgfjWUn8U/BtqR0cHa1zq5ubmz58/w9Ua+Id/OTm5np6ehw8fGhkZycvLf/jwITMzk9WGyc7ONjIyMjIyys7OzsvLmzNnDgDAzMwsNTUVwzA+Pj4qlZqYmCglJYWPniep29zcfPXqVQAAkUi0trZWU1PDN90CAIiJibW3t+OD5tbWVnFxcagceIRMJnd1dY1SI34uAICkpKTDhw9nZGQoKSnBIyoqKvj2X+Xl5WpqasrKynV1df39/awHWYvBqWXTp0/HWx43d6zmWTXM2m1BQcHOzk6YHntZIyMjy8rKysrKtLS0iETijh07SkpKMjMzjx079urVKzExMWh1AADq6+vb29vHyqVQKCQS6cNvtLS0uLi4TH6TXL9+/c6dOykpKbm5uXv27AEAVFdXOzg4ZGZmOjo62travnr1ytHR8fPnz+hfjEAgEMhQQSAQ3zOWlpbFxcXh4eEREREFBQVjC1y9epVEIsXHxxMIBFFRUQ4ODk5Ozg8fPjx//nyiNjk4OODwl4ODY2RkBB9TXr58GQDw/v374uJiOM3s4cOH7e3tjx49srS0BAA0NDQwGAx8v2NTU9NTp07RaDQAgKqqanR0NG6oPH78eGhoCM4gunXrloSEBPQkWFhYnDx50tDQEABgbGx8/PhxWOXJkydFRUWT1OXg4PD19U1OTgYAlJSUFBYWwr19r1271tTUpKCgICsrGx8fDwAoKiqqqqoyMTFhPWV9ff2nT5+2tbUNDw+fP38eN1Sg9I6Ojo0bNyYlJeHOKwCAq6vrxYsXa2trOzo6jh8/7u7uLiIiYmxsfPTo0eHh4WvXrg0ODhoaGtra2r558yYtLW1oaCgoKMjZ2XnatGl4y+Pmjr0iuIZHYWRklJCQMDw83NrampSUNCpXUFCQQqFQKBQODg53d/eHDx8CAGRkZPj5+ZlM5vz5869evdrd3Q23Mnv79u3Y9qWlpRUVFePi4gAALS0tHh4eE81MY7Vm5eTkBAQEOjo6YmJient7FRUVDx486Ovrm5iY6OrqGh4enpiYiPtkEFMUtOsXAoEMFQQCgfgdDh8+bGxs7O/v/+TJk6VLlwIABgcHWQssWbJk1apVW7dunTNnTm5u7vXr1wUEBB4+fAi/do/L/Pnzw8PDPT09yWSypaXl9OnT4YoUKSkpTU1Nc3Pzo0ePwmlmXl5e5eXluH9g1P65FhYWL168gIaKkZFRQUEBTMvKyra3txsYGAAAqFRqaWkpPgofVeX58+cw69y5czA0ykR1BQUFb9y4sWPHDgEBAScnp2PHjkFD5ccff3z37h2BQIiPjw8LC1NRUfHy8oqPj8dnTEH09PRWrFihpaVlamrq5OREIBDq6uqIRCI8zcTExE+fPqmpqXH9Rltbm4mJyZYtW/T19RUUFGg02g8//AAAuHDhQnp6uoCAwOHDh2/dukUkEvn4+OLi4jZs2CAkJPThw4eTJ0+ytjw2FwBw584dLi4uKyur8vJyLi4ubW1tVt8OK2vWrBEVFZWVlbW3t3dxcRkZGZnomv7444+BgYHy8vIaGhpLly7V1dVdvHixvb29hoaGpqamr68vvsBpFHFxcVFRUUpKSjQazdTUdKKZaaz2W0tLi7Ky8uLFi4ODg2tra3/++efs7Gy4piU/Px9eO8RUh9WnikAgpgQEuEsGAIBOp7N+eGMFvkiIROJfnovkIrlI7jeQy8HBgf/T/1MICAi8fv1aSkrqez1BJpMJ16tkZGRs374d2mYIxH93TEMgTPKsQ+8FJBfJnXJykUcFgUB8z3zHFlpLSwu0xAAAly5dmsi9gEAgIGjXLwRiykHE3e5MJnMiF/wkrvmvzEVykVwk95+Vi5i6iIqKhoaGLliwgMFgzJo1C25AjED8x5nkidfa2oreC0gukju15BLRQw2BQEwV8C2wvhC4K9QfrTWF8Pb29vb2/tP6QYxikmDMCAQCgfj2EPHZYGxsbJPMSAOTzlf7mlwkF8lFcr+BXAQCgfiPDGsmyhIREUHvBSQXyZ1actHXIwQC8S+FQqGwxi4EAFRVVdnb248qVldXB3cBBgDAXba+hOjo6GvXrgEAioqK/P39v/3ZvX792svLy9zcfOnSpZmZmX9Jm8PDwwsWLGAymRkZGUuWLLGwsPDx8fnw4QPMjYmJsbW1tbS0DAkJgVEy6+vr16xZY2pq6urqWlJSAouNjIycPn1aX18fj3aCt1xZWWltbd3Y2AgPtra22tjYvHnzZmRkRF9ff9++faydOXjwoL6+/sjICMwdGzIlIyNj+fLltra2tra2W7du/fTp07gndePGjd27d/99FwI23tnZCWNKIr5j0K5fCMSUAxkqCARiapOZmVlcXAwAwDDs7NmzX1grPz9fT0+PNfEtwTAsICDA1dX1yZMnGzdu/Pnnn0dt0DwJ0MYYl5KSEnV19dbW1v379+/evTs9PX3mzJlHjhwBAOTl5SUkJMTExPz666/V1dV37twBAOzfv9/Q0PDx48e+vr67du2CU4R37tzJxcU1ahIUbFlZWdnd3f3QoUPw4LFjx5ycnNTU1AAAXFxcr169ws9iZGTk5cuXnJycE3W1sbHxwIEDO3bsSE1NvXfv3vTp0/9Wa2QiBgcHYRCY6upqeXl59G9CIBAIZKggEIj/FgcOHCAQCOnp6QCAVatWcXNzv3379t27d1ZWViQSSURExM/PD46Sc3Jy1NXV+fn59+7di4+VIyMj8YgcRCLxwoULDg4OCxYsyMnJyc/Pj46OjouLCwsLCwgIaG9vd3Nzo9PpZmZmsbGx69evX7JkCfScAADs7Oyg72VgYKC+vh7Ga4eGyoIFC2Bw97S0NGNj44GBAQDA1atX169fjw+gly5dGh4eDgBgMplWVlY7duyA8Qrb2tr09fVfvHgBAKioqPDw8IDl6+rqFixYANOHDx9es2YNTP/0008pKSnr1q2bN28egUAwNTXFMKy1tZVVY1VVVd7e3osXL/bw8Hj27Bls2dPTc/fu3Rs3bgQAxMbGLly4cMWKFXfu3Fm0aBFufenr6wMAAgMDtbS02NjYLCwsPn78CAB48uTJ4sWLJSUlSSTSsmXL0tPT29vb3759u3LlSiKRaGFhISQkBO09b29vHx+fsXYdbHnlypWdnZ337t3LzMx8//49vkKGwWBoa2vjrqEXL16oqqoODw9PdEvU1dUJCgpqaGgAAKZNm7Zu3bqgoCBowkVGRjo4OCxcuPDq1auwMJPJ3Llz5/z585cvXw79ObW1tb6+vkuWLFmxYgXsdmVlpaenZ1hYmLe399KlSwsKCrZt2+bq6hoSEgIbuX//vouLi6Ojo6+vL51Ohwc/fPggKysLE3Jycuiv+n2Ddv1CIJChgkAgEKPZuXOnjo6On59fdnZ2bGzs3r17VVRUtm7dWl9f//Dhw+PHj8fExCQlJTGZzGXLlrW0tFy7dq2rq6u5uRk3MPbv3w/Tra2tEhISSUlJq1evvnDhgp6enq2trbu7+4YNG3bt2sXBwREfH0+hUNjZ2fv7+8PDwyMiIiIjI+HAdM+ePfCr+atXr7S0tAgEQl9fH51OV1BQmD17dmlpKQCgsLBQRUWlrKwMAFBcXGxpaQnTHR0dvLy8sEx1dbWEhISxsTGcLlVYWKihoQHTxcXFurq6sKsyMjIEAgGKfvPmzdDQ0NDQEIZhpaWlRkZGcA7b8PDw7du3ZWRkWLelZzKZu3btWrJkye3btw8cOLB3797Ozk4ikVhXV2dqahoREVFTU3P58uWLFy9euHDh2bNn+KTevLw8XV1dMTExPBhlXl7ezJkzoWEgIyMDD8rKytbW1n78+FFKSgqvKyMjA001FRWVsVcQtgwNxT179oSFhR09enT37t14THoGg2FpaZmSkgJ/pqWlWVtbT7K4X0NDY3BwcNeuXdnZ2Z8/f+bk5JSUlAQAPH78OC8v7/r161euXLl27RpUeG5uro+Pz4MHD6ZPnw59QYGBgXZ2djdv3gwICNi5c+fw8DAbG1t1dbWJicn58+eVlZVDQ0ODgoJiY2MfPHjQ2tra1dV16NChkydPJiYmysrKXrx4EQAQFBQUHBz89OnTbdu2Xb58OTY2tqCgAP1bv2NGfQ5AIBDIUEEgEAhAJBKjo6MrKyvnzZs3a9asbdu2weF4c3NzYWGhgYFBd3f34sWLq6ur379/7+npuWDBgpCQEA4ODlhdTk4OxggHAHBwcMyfPx8AQKVScUtmXOD6FhEREVVVVWhsGBsbk8lkwOIfKCgo0NHRAQDo6urCMXFZWZmjoyO0OsrKyuzs7BgMRnt7e1FRkb6+fnd398jISHFxsZ6eHm7bFBcXu7i4wCpFRUWsE8lmz55dVlbW1dXFycmprKxcXl5eU1NDoVBgN549e2ZiYhITE/Pzzz+zs7PjtRoaGpqammxtbQEAioqK8vLy0BGEYZiVlRU0jWbNmiUiIsLBwTFv3jxYq7e3t7W1ldUtkJOTc+fOHT8/PwDAwMAAblRwcnL29/ezHgEATJs2ra+vb1xNjmpZSUlJQkKCSCSqqqqyFqPRaGVlZd3d3YODgwUFBTQabZKrw8vLe+nSJSkpqbCwMBsbGz8/v7dv3wIAsrKyrK2tubi4yGTy9evX1dXVAQDa2trQwtTU1GxubqbT6bW1tdCPpKGhISoqCpXPz8+vra0NAJCWltbR0eHk5OTi4hIWFm5tbSWTySkpKdLS0vCiNDQ0QGtn1qxZR44cOXr0qLq6+okTJ2bPno3+rQgEAoEMFQQC8d9i5syZhoaGPT09Xl5ecFB+7NgxFRUVPz8/VVXVWbNmvX//Hn7vhL4FTk5OQUHBcQe4MEEgECZZrQGHrXiV3t5e1qy8vDxoTuTl5UGLBVodPT09RCJRV1e3pKSktrZWXFycRCLNnj27pKSksLBQU1NzxowZFRUVRUVFurq6UlJSQ0ND3d3dJSUl5ubmra2tDAbj9evX0IMBgU0VFhZSqVQtLa2SkhJo5MBcU1PT7OzswMDAn376CV+hDgBob28nk8kEAgH+JJPJXV1dAAA+Pj44Ha6rqws/O3FxcZjIz89nHWenpKQcP3789OnToqKiAABubm7cDunt7eXm5ubm5v78+TNe/vPnzzw8PONqclTLv/76KxcXl4KCwuXLl1mLcXBwmJiYPH78OCsrS09Pb5IFKhBBQcENGzZcu3bt/v376urqGzduHBgY6Ozs5OPjgwVIJBK8VfCOwYve3t4+NDTk6Oi4aNGiRYsWNTY2dnR0AAC4uLj+98XGxoan2dnZmUwmk8m8cuXKqlWrVq1aFRUVhbt62traRERERkZG0KZ5/wVERESQEhAIZKggEAjEaJKSkrKystTV1Q8cOADDm6ipqWVnZzc1NcXExFRUVISGhsI9eeBcqf7+/q+cUA4H9wCA7u5ufFgPzYD+/n440Qi3WCQlJfv6+nJycqhUqpSUVENDA7RGoLFRVlZWUlKipaWlqalZUlJSXl4OrZGZM2fm5uZiGMbLy6ugoJCRkSEqKkoikXBZ0KNSXFyM14Uul/b29ocPHwIAiESigYGBvLw8dM5AhISEurq68MF0Z2cntNlw04VEIuE2Bu5Wwo0uAEBGRkZsbGxERATrdC98+6+amhp5efnp06c3NTXB1Tjw4ESLNFhbbmpqioiI2Llzp7+/f1xcHN4mZO7cuY8fP05PT587d+7kV6e8vLyiogK3WNauXTswMECn0wUEBKDVAWXhF5EVYWFhHh6eX38jNTUVX8I0EWlpaRkZGadPn7548SJcV1NfX+/v719UVLRt2zboz9m2bVt/fz/6q37HoF2/EIgpB4pMj+Qiuf9pud+Grq6u9evX29nZRUVFqaqq/vjjjxcvXqRSqdLS0vv27aNQKBwcHCQSSUlJSVZW9urVqxYWFikpKRiGweofPnxoaGjAZ3+NfooRiT09PTDBYDD6+/u5ubkBAA8ePFBTU6uvr3/37p2WlhYA4Pnz5xoaGvn5+dACaWlpYTKZuEdCR0cnPj4eLoWXk5O7e/cuXFM+e/bsmzdvDg8P8/Pza2lphYSEiIiIwG/8urq6cXFxVCoVAKCtrR0XFwfNnpcvX/Lx8amoqEhISPT29hYUFKxcuZJMJn/8+JFAIOzcuXNoaOjQoUN8fHw0Gu3du3dv375VUFAAAKSkpEBfDYVCSUtLmzt37tu3b+vq6nR0dFjnuamrq//yyy+dnZ0kEgku6AcA5Ofnr169GhpmoaGh586dY/1+bGNjs2fPnoULF/Ly8l67ds3JyUlAQEBLS+vKlSteXl7p6elDQ0PwRMaCtwwACA4Odnd3h/bPDz/8EBwcHBUVhZecNWvW4cOHCQTC726kVlVVFRMTc/jwYWVl5ZGRkTt37vDx8UlLS9NotOjoaGdnZyaT6evrO2rLY4i4uLi0tHRKSsrcuXM7OjqOHTu2a9eu370DJSQk+Pj4uru7792719/fLy0tvW7dumfPnq1atSohIWH69OmzZ89GAR+/AyZ54qH3ApKL5E45ueihjEAg/na2b9/e2tp66tQpGRmZgICA2NjYtLS0sLCw1tZWCwsLDw+PhQsXBgYGsrGxxcTE8PHxrVy5UkZGRl5eHm53+/Dhwz179kzUuLGx8a1bt3bv3k0ikfT09BYtWgRXpIiJibm7u69bt87Pzw8O2ffv319TU5Obmwv9A/gCcQj0nMAlK5qamm/evIELHigUSnd3N9yfSlFRsaqqCp8HBR0msBiVSi0pKYENJiQkZGVlwTKampp9fX0CAgIEAkFKSkpQUJCLi4ufn//gwYNhYWGWlpbbt2/fvHkz3ILsxIkTdXV1BAIhODj45s2bLi4u+/fvDwoKYvUIAQA0NDTs7e09PDx8fHzgUhw6nc7Ozg5P8+nTp83NzUuXLqX9Rmdnp46Ojpubm5eXl6Ojo5aWFlzgERgYmJ+fb2lpGRsbe/jwYSKR2NnZCaswmUx7e3sajfbmzRu85Tt37nR0dODbmi1dunR4ePjmzZv/90ZhYzMxMdHT02NdcgNxcHAw/I0XL14sWrTI1dU1MDDQ0tLS3t4+Jyfn9OnTRCLR0tKSRqO5ubm5u7s7OztDC3MsBw4cSExMdHZ29vb2njlz5kST1ljttM7OzsWLF+/YsWPdunWNjY3h4eElJSWampoAgPLy8omMNMT3BPTlIhCIKQQB/2ZJp9NZt50Za+VMNIX3a3KRXCQXyf0Gcjk4OPB/+pRmkl2kRmFpaRkfHy8mJva9PruZTCb8/P/y5cuzZ8/GxMSg99nXgzwqU35MQyBM8qx7+vSpmZkZei8guUjuFJKLHsoIBOL75Puwzcalo6PD0tKyuroaAPDgwQPoFkAgEAgE4jsD7XOCQCAQUwxBQcHNmzf/+OOPTCZTVVUVbkCMQCAmB+36hUAgQwWBQCD+Lr58Zk5GRsb3rYrFixcvXrwY3RIIxJeDdv1CIKbeex+pAIFAIBAIBAKBQCBDBYFAIL4FLi4u58+fH3Xw0aNH9fX1AICqqip8Y67fxcbGprCwEAAQHBx84sSJb3wiJBIJ9nksAwMD+vr6IiIiMPjMWIaGhmRkZL58E4Kv5Nq1aw8ePAAAbNiwYdwQKAjEP8hXhmZCIBDIUEEgEIi/kTNnzsBB/927d7/QUBkcHKyoqIDbFj969MjKyuob9/n9+/cwPOVY3r17V1tb29TUNNEeLDk5OXp6et9sM6vXr1+rqakBALq6ushkMrrfEP8qWltbkRIQCGSoIBAIxGhSU1O1tbW5ubmNjY3hdlXOzs7S0tLh4eFkMnnGjBmFhYUODg68vLweHh5wwy4hISEPDw8vLy9ubm4rK6uysjItLS0BAYGTJ0/CNvPz801MTPj4+JSUlI4cOQJrubm5BQUFwQJ1dXXGxsaioqJOTk4MBiMkJCQlJcXT03Pfvn1BQUEnT57cuXNnQUGBhobGli1bTExMqFQqXNxSUVGBb5KYlZVlZGREIBD6+vqqq6vhFlvBwcGqqqpqamobN24cGhoCAAgKCoaFhVlbW8vJySUmJnp7exsaGs6ZM6e3t/d3c0tLS2k0mrKyspaW1t27d0epTkFBoaGhobi4WEdHJzAw0MzMTFlZOSUlpbOz08nJqbOzU1tbu6mp6ebNm1QqVUVFxczMDA/6/ujRIxi1/f79+1paWqqqqvPnz29sbAQAnDp1atWqVR4eHlpaWvb29vfu3Zs3b56iouLly5d/N5fJZAYGBqqoqKioqCxbtqy7uxuK+/Dhw0Th7REIBAKB+KOgyPRILpL7n5b7bfj06ZOjo6OFhUVsbOyqVat8fX3T0tKmTZvW0tLy9u3bAwcObN682dbW9tixY7y8vHFxcTCO4bRp0+7evXvs2DEAQGxsrLu7+5EjR7Zt27Zr1y4fH5/+/n5bW1sZGZmbN2/ev38/ICBATEzMy8vL398fD4+YmpqakpLCwcFBpVIfP34cEBBw+fLl8+fPGxoatrS0SEtL79ixo6io6M2bNydPnjx58mRSUpKPj09lZaW0tHRCQgJsJC0tDXpRnj17RqPRCARCUlLStWvXcnNzSSSSi4tLZGSkn58fOzv758+fHz16FBUV5e7uXlpaqqSkZGlpee/ePTc3t0lyly5d6urqunv3bnd399evX0NDbuz2ROzs7GVlZYcPHw4KCoqPj9+/f392dvatW7dcXFzKyso+fvzo4+OTn5+vpKQUFRW1cuXK3Nxc2PnY2Fg6nb5s2bLMzEwqlXrs2LENGzYkJCSws7OnpKSUl5fz8fFB8yk5OfnZs2c+Pj7Lly+fPPfGjRsPHjx49eoVDw/PsmXLgoODbWxszp49+/LlSycnp8HBwXfv3q1bty4iIgK9ZRHfmEmeeMLCwui9gOQiuSgyPQKBQPx/3L17t7+/38/PT0dHx8fHJz09vaWlBQAwNDS0Z8+eTZs2cXFxycnJrVixYs2aNQCAyspKWFFOTs7Hx2ft2rUAADs7u3nz5i1evLi/v7++vj4xMbGzs3P37t12dnbHjh3j4eGJj48HAOjq6iorK8PqS5Ys4efn5+bm1tbWnmiZBwCAn5/fxsYGAGBvb19VVdXa2koikWDsdsDilMATSUlJK1asIJPJ7Ozs3t7ed+7cgSXt7e0BAIqKivLy8jDSvKKiInRfTJJbU1NTV1fn5uYGANDQ0FBXV8/Ozh63n7y8vHZ2dgAAdXX1UaeTlpZGo9FgsytWrMjLy+vq6urq6qLT6SoqKqmpqYaGhjD4+tq1a+/evctgMAAANBpNQECAnZ1dTk7O1tZ2VIcnyb1//76HhwcvLy+BQFixYkVqaqq1tfWlS5cWLlyYmJjo5+e3Z88eZKUg/m0ICQkhJSAQUwsiPr2BjY1tkjiUYNIolV+Ti+QiuUjuN5D7z9LU1AQAcHJyYmNjYzAYGIZ9/PgRAMDOzg43DOXl5RUXFwcA8PHxQQMGVmQ9OKoAHKlLS0sDAKZNmyYsLNzQ0DDWAsH1A4fm4yIgIIBrmJubu6OjA3dotLe3d3R0KCoqQkNl48aNAIDm5uZff/0VDsQZDAbsGDwLeFI8PDzwCDs7Oy53otzm5mYhISECgYCPpaAVNxZ47uOeTnNzM771KhcXFw8PT0tLS2lpqbm5OczNzMzEJ2WRSCQoAnaJtVdjOzxuLqs4vMOvXr2aNWsWAKCgoMDR0RG9XxH/1LAGvReQXCT3u5GL4qggEIi/HQkJCQBAVFSUoaEhPCIlJfWVbUIT5dOnTwCAwcHB1tZW6DH4E7S3t2MYRiAQBgcH+/r6WIMtpKenW1hYwKH558+f4VifQqEEBgZu2bLlL1GOmJhYe3s7k8mES95bW1txy+cPNZKZmQnTfX19fX194uLiJ06cgC4gCoVibW2dmJj4V11QMTEx3JqCHQ4ODo6PjxcREbl///6rV6/y8vIcHBxWr16Nbn7Ev4e2tv/H3p0HNHHEjcOfEIIcgYRDCYccCRBuwYKiIHiAIig3omApiBeKbaVWtFJcW6GGAAAgAElEQVSrlUMt9aJ4oFarlVC1CCIegFjvPuKBAhYBEQsKhlu5Idn3j3mfffLjiKhoQb+fv5bZ3fnOzi7JTnZnpq6/YScAAEMTvPoFAHjvXFxcRowYkZycXFVVtWnTpqVLl777OFQeHh5MJjM6OvrChQtfffVVW1tbcHAwQuj27dvkm2O90Wi0xsZG0QV8Z//nn38ihE6cOGFiYqKkpNTc3Hz69Gkk0kElOzt76tSpeHs3N7fff//91atXuPV1+PDhdzkQNputpaWF31vLy8srLS21s7NDCCUlJeEnUQMxY8aMGzdulJaWIoQOHjw4adIkeXl5cowyJyenGzdulJSUIIRyc3PffSb72bNn83i81tZWoVD466+/urq6rlu3buzYsVlZWampqXZ2dqdPn4ZWChhqYNQvAKChAgAAPWlqap48ebK8vHz69On37t1bs2bNiBEj3jFPZWXlzMxMWVlZb2/vnJyc+Ph4X19fhFBcXNzx48f728vT09PPzy8+Pt7FxWX37t0BAQG4qXDz5k0ulxsVFbVv3z6EUGVlpZeXF0IoJyeHbKjgpxO4oeLl5WVlZcVms1NSUnD/jbdGoVCSk5MTEhK4XG5QUFBycrKioiJCKDw8HDctBljDBw4c8PDwMDAwSEtLO3z4cEVFhaSkJH6WpaqqeujQIW9vbz09vcWLF8+ZM+cdK9/Hx8fV1dXS0tLQ0JDBYERERCCEurq6JCUly8rKcFcZAAAA4B1R8ICeCKHq6ur+Honinvj9vVX2LmshLsSFuB8gLo1GI//TQQ95eXm+vr4DbxIAAIbuPQ2FIuazrrCw0MTEBL4XIC7EHUZx4YkKAOBTB604AD4Fot3PAADDAjRUAAAAAAAAANBQAQCAocTCwgL3QQcAfNzq6uqgEgCAhgoAAAAAwNACo34BMOxQyEmIm5ub6XR6nxsJhUKEUH/Dib7LWogLcSHuB4iroaHx0XfD+Omnn6KiohBC9fX1VCp1ILuUlJRkZWUtW7ZsgCFYLJapqWl2dvbbldDHx8fZ2XnhwoWiidnZ2YaGhpqamqWlpdXV1Xhg4tdycnLaunWrpaVldHS0rKzsypUrP2RV0+n0oqIiPI9ND+3t7fb29mVlZQUFBX32tuzs7ORwOE+fPn338akHYiD1ExcXV1RUdODAAdFEJpNZUFAgeox5eXk+Pj6lpaU7duwoKCjosX2fZ+c9HdSRI0dWrFgRGhq6efPmgWxPXmPvcmb7k5SUxGQyXVxcli9fHhMTw2Aw/uN7Gsr/3dX09ujRIy6XC98LEBfiDqO4kuR3CYxaAHEh7kcc96OXmJiorKx85MiRAbZSEEL79u07f/78QBoqAoGASqUeOHBg0O/D4uPj165dq6mpmZ6e3tHRMZCGSkdHR1FRkYWFBb4H3blz5weu6rKyMhUVlf7afk+fPn3x4kV/Z+HmzZvW1tYfppUywPpZtmzZIP6PiJ6d9yQtLS0qKmrFihVveo2J2QbPNyrmzPansLAQt72bmpr+81YK+YNCf6vETPgI30cQF+IOzbjw6hcA4L178OABhUKJiYmxsbGRlZVdtWpVenq6mpqapqYmnk/9+fPnLi4u8vLyampqcXFxeC8lJaWAgIAVK1bQ6fQxY8bgaRwnT55M3nLNnTuXQqEghKysrEpLS588eTJp0qTu7u7ExEQdHR05OTkHB4eysjKEUGtr67Jly1gslrKyclhYWFdX18KFC3/++efCwkIKhdLe3k6hUObPn0/e6EyePBkh5OXlpampuWHDBgUFBYTQwoULN27cSKYfPnx41KhR6urqaWlpeMc9e/aoqampqant37+fQqGsW7cOFxI/6kEIVVRUTJw4ceTIkZ6engKBYMuWLRcuXAgICNi4cWNUVNSOHTvWrl17584dExOTr7/+2s7OztTU9K+//kII7d27l5zF5dq1axMmTKBQKK2trY8fPzYzM3v16lVgYKCBgYGJicnevXvxZoqKigkJCY6Ojjo6OqmpqQsXLrSxsZk0aVJzc/Nr1+bn59va2hoYGJibm6enp/c4m2w2+/nz5/fv37ewsIiMjHRwcDAwMLhw4UJjY6Onp2djY+OYMWNevHhx4sQJU1NTLpfr4OBQVFREthzwgWRkZJibmxsaGrq4uOCfwHfu3BkcHOzv729ubu7q6nrmzJmZM2dyOJyjR4++dq1QKIyMjORyuVwud/78+S9fvsQnHdeP+H13794dHh6OELpw4YK+vr6hoeGmTZvwdYUQio2N1dLSsrCwyMjI6FEPxcXFkydPNjQ0tLKyunHjRo+zI76Gc3NzraysOByOiYnJpUuXEEK96xMhtHnz5qVLl+Kc8XJMTExWVtbWrVt/+OEHgiBWrlzJZrN1dHSCgoLw13xhYeGECRM0NTXt7e2fPHlCXmMpKSm9c0MIKSgoxMbGKisrt7S09HdmEULt7e0BAQE6OjrTpk3bsGFDUFAQzqe8vFxHR2e4fBDBqF8ADD/E/6qqqiL60dXV1dXV9T7WQlyIC3E/QFzR//T/xD///IMQ0tHROXPmjKWlJYVC8fHxSU1NlZGRcXBwIAjC19dXWlr6woULeHb5Bw8eEAShqqoqLy+/ZcuWgwcP4jt+giAcHBzwm2wEQfj5+eFDe/jwoZqa2pgxY3JzcwsKCigUir+/f05ODp4OkiCIb775hkKh7NmzZ9euXQihTZs2lZeXGxkZcTic3Nxc/MQ5ICAAZ6uqqopL5efnJy0tPXPmzMTERJw+bdo0nC4lJRUcHHz27NlRo0axWCyCIMrKyiQkJKytrdPT0/Ec9vhWMjc399GjRwRBeHt729jYNDU1tba2stnszMxMgiBMTExu3rxJEMTy5ctjY2MJgrh37x6FQsFrU1NT9fX1CYJ48uTJ9evXcfEiIiL27t1LEMS5c+dwnXz99dfz588XCoW1tbU6Ojp5eXkEQSgrK2/ZsoUgiH379klLS5eUlBAEMWXKFB6PJ36tQCAwMjJKSkoiCKKgoEBBQaGmpkb0bMrJyVVUVOTn51Op1HPnzhEEwePxJk6ciAvP4XAIgnj69CmTycTZ7tu3b9y4cXjf8ePHFxUVVVVVMZnM/Px8giDi4uI8PT0JgoiPj1dTU2toaOju7tbU1AwJCSEI4vLly1wu97VreTyepaVlc3OzUCj09/dfvXq1aP2I3/enn34KCQnp7u5WV1c/f/48QRC7d++WkJCoqKh4+PAhk8msqqoSCoUBAQH40LZv345zsLS0xBfGrVu31NXVOzo6RM+O+PofO3bsb7/9RhBEUlISLkaf9RkbG7tkyRJcdeSyu7v70aNHCYI4ffq0sbFxW1tbe3u7ubk5j8cTCoVmZmYpKSkEQWzZsmXGjBmi11ifuSkpKa1atUooFIo/s3v27Jk0aVJXV9ezZ8+0tLRCQkKysrLc3d01NDTc3d2dnZ05HM7SpUuJ/5r4zzr4XoC4EHfYxYUnKgCAD2TWrFmurq6+vr4EQQQFBbm7u1tbW+PnJImJic+fP58+fTqeD76wsBDvoqGhsXr16gULFujp6T18+LC/nI2MjKSkpOh0upWVlb6+Pp/P//XXX6dMmWJkZFRQUIAQ4vF4Y8aMWbp06YoVK86fP+/k5KStrS0rKystLW1lZUX+fN5be3t7QkLCokWLeqR3dnbGxsbOnDnTzc2turq6oaEhOztbKBSuWbNm1qxZ+FkKZmVlZWBggJd9fX0VFBRkZGTGjBlTWVnZX1AFBQUnJyeEkKura2lpKW5+TJw4scdDCXIhLS0tLCyMQqEoKyvjFiDe0tXVFSHE4XB0dXXxbPEcDod8g7+/tU+ePKmoqJg7dy5CyMTExNjY+Pr1632WU05OztnZGSFkbGzc43CysrJsbW1xtoGBgbdu3WpqampqaqquruZyuZmZmTY2NqampgihJUuWpKenCwQChJCtrS2TyaRSqTo6OtOnT+9RYDFrMzIy/P395eTkKBRKYGBgZmamaP28NmeEUElJSUtLy4wZMxBCwcHBuO16+fJle3t7FotFoVA+//xz0QP8999/i4uLQ0JCEELW1tbq6uo3b97sEVRM/V+7di0gIAA/IcQP/cTXZ3//UP/zP/8jLS09YsQIGxubsrKyf//9999///X09EQIrVy58uTJk6/NhEKheHt79/gX6F2Sy5cv+/j4SEpKqqurz5w5EyHk6Oh45MiR2bNnp6amfvnll+vXr9+zZ88Q/wiCUb8AGHYkoQoAAB+GqqoqQkheXl50ubOzEyGUnp6+cePGyspKfINI9hnQ0NDACwwGA78z81qvXr1asGDB1atX29raOjs72Ww2QRDV1dVmZmZ4A3wzOkASEhJ9vtlCpVLxIeD38js6OvCAQmpqagih/voD4FfIcLb41rxPTCbz//+AlpSUkZFpaGggew7U19c3NDRwOBx8TxwWFoYQ4vP53t7e+NXejo4O/KAJ327iosrKypLFJuP2t5bP5yspKZF3rkpKSjU1NX2WE5/KPg+Hz+eTr9lIS0vLysrW1NTk5+fjd+r4fP7Vq1fJiqXT6TgELpJoqXoXuM+1ouHIApP189qcccWS1Y4LjBMVFRXJbHscYHt7O5vNxn+2tLTU1NSInh3x9Z+WlpaQkNDV1dXd3Y2vefH12afa2tpvv/32n3/+oVAo5eXlYWFhfD6f7ChCo9FoNNpALvLeL0T1LkldXR1ZA1paWrhxdffu3bFjxyKE7ty54+HhMfQ/gmDULwCgoQIAAG+mubl5wYIFDg4ODx8+PHXqFP4tvz8jRox49eoVXq6oqOi9QVxcXHp6+sWLF6dOnWpkZNTV1UWhUFRVVcmfz3/77Tc6ne7t7S26l5SUFO7Y0NbWJvqzK4VCEfO8RRS+jauuru6vYANXX19PEASFQuno6GhtbRW9j7x48eKUKVPwjXJLSwu+12exWCdPnhysDtyjRo2qr6/HvavxvR1ukr1pJrj3EUKotbW1tbVVVVV1+/bt+GkDi8VydHQkn/wMSpnJ1hQusGj9DISiomJjYyN5Qba2tvZIfPHihej2LBaLTqeXl5eLJp44cQKfHfGePXsWHBx89+5dIyOjyspKMYWkUqnkeH3kZU+KjIxECN24cYNKpeIe7aLnrrOzs6yszNDQ8LW5DeQKZzAYTU1Nov930dHRycnJKioqGRkZd+/evXXrlru7O37EBAAAgwVe/QIA/Mc6Ozu7u7tbW1vv3Lmzf/9+hFBeXh6+U+yNy+W+fPly27Zte/fuxa919Rh5Ge9YUVERHx9fVVVVW1tbXFzs6+v74MGDhISExMTE4ODge/fuIYRkZGT+/fff1NTUjo4OLpd76dKl06dPr1q1asSIEW8xmvOUKVMoFMrmzZszMjKio6PJ9Nu3b+PX2/pEo9HwrTC5gA/hzz//xDe+JiYmSkpK5eXluLt2VlbWtGnTEELZ2dm4JwxCyM3NDfeL6OrqCg8Pv3PnzrucDjabraWllZycjE9EaWkpHossKSmpx826GDNmzLhx4waeSfPgwYOTJk2Sl5fPzs7GhXdycrpx40ZJSQlCKDc398svv3zHS2j27Nk8Hq+1tVUoFP7666+urq6i9TMQenp6UlJS58+fRwjt3bsXj1o2ceLEK1euVFVVCQSCw4cPi26vqanJ4XB4PB5CqKamxt/fv7m5mTw74jU0NNDpdDabLRAIdu3aJRQK29ra+txSQ0MDvwbZ1tbWuzd/XV2dmZkZlUq9f/9+Tk5Oc3OzlpaWtrb2kSNHEEJ79uz5+uuvRS8t8bmJN27cuNTUVKFQ+OzZs9OnTyOE1q1bN3bs2KysrNTUVDs7u9OnTw/9VsqbjmkGAICGCgDgU6ekpPT999/n5+fPnz9/3bp1U6dO3b17N9lNpYdvv/123LhxkZGRV65cwd0GOjo6RDcICwszMzMLDQ29ffv20aNHu7u7165dGx0dvWjRoo0bN65evTo8PBwP3rVgwQLcE72lpWX79u1KSkqBgYG6urr6+vo98hwIAwODrVu3Pn78ODQ01N3dHf3vD9VxcXHHjx/vby9PT08/P7/4+HgXF5fdu3fjfgtsNvvmzZtcLjcqKmrfvn0IofPnz69fvx4hlJOTQzZUyL4QGzdubGtr09fX19fX7+zsNDc3f5fTQaFQkpOTExISuFxuUFBQcnIyfv0pPDwcNy0GQlNT88CBAx4eHgYGBmlpaYcPH66oqJCUlMSvxqmqqh46dMjb21tPT2/x4sVz5sx5x0vIx8fH1dXV0tLS0NCQwWBERESI1s9A0Gi0/fv3h4aG6ujotLe3q6qqdnd3jxkzJiwsbOzYsSYmJnZ2dj1GMebxeImJiXp6era2tvb29nQ6nTw74pmamrq4uHC5XGtra2dnZzs7u/6K6uHhISMjY2lpOXfu3JkzZ/Z4Hyw8PHzPnj3Gxsbbt2/ftm3bvn37zpw5w+Px9uzZw2Kx/vzzT9xphLzGxOcm3uLFi6WkpHR0dBYtWhQYGIiv7a6uLklJybKyMtwDZ+iDUb8AGHYoeEQghBCfzx81alSfG73X8ZghLsSFuO87royMzEc/4eNQ0NTUJBAIlJSU/ud//sfGxiYhIWHgs0mS8vLyfH19B94kAODDIN8G3LBhQ2tr69atW4fiPQ3l/+5q4HsB4kLcjyAuPFEBAIBB8OLFCxUVFWdn52vXrm3ZskVSUvKNXj0SBa1KMNScPn3a0NCwtbW1ubk5JSVlwoQJw/Eo6uvr4VQCMLxIkm0XCQkJMe0n8a2rd1kLcSEuxP0AccH7pqqqmpSUFBkZ6eTkpKurm5SUJNqPGYBhzdXV9fz581wul0ql+vr6DuUxvsR8EtbV1cH3AsSFuMMrLtzZAADA4PD19fX19X3HTCwsLHAfdACGDiqVunv37t27d0NVAAA+JHj1CwAAAAAfPxj1CwBoqAAAwOAoKSl5o19w8ewcg35n0/v5BjlSbXZ29kBmEEcIXb9+HQ8FhhBycnLC4yN/MLdv3xYzLtORI0cYDMaaNWv62yA6Onr79u0frLQDqR86nd6j5vPy8nof444dO/AEI0wmU8yZ6uzsHD16NDnx4sB1d3cfO3ZsIFuSJXlHeFy42tra8PBw+Ih4UzDqFwDQUAEAgMGxb9++3g2VNxpT9X0gCIK8p4+Pjx9gQ4WcQqSjo6OoqGiwJmccIAsLi7///ru/tWlpaVFRUZs3b35t4T+AAdZPWVmZurr6YAW9efOmtbU1HtLqjeTn5x89evSDXZ/t7e3S0tIIocLCQiMjI/iIAABAQwUAAN7VgwcPKBRKTEyMjY2NrKzsqlWr0tPT1dTUNDU18fzlzc3NixYtGjlypIqKSmxsLEJo4cKFP//8c2FhIYVCaW9vV1JSmjdvnrOz88yZMxFCubm5dnZ28vLyenp6W7du7TFMVmdn55o1a7S1tZlM5vTp0x89eoTT9+zZo6ampqamtn//fgqFsm7duujoaAqFcvPmTXwXKCMjg597sFisa9eu4b0yMzNNTU2VlZVjYmIQQl5eXnw+39TUdO3atRcuXAgICEhJSZk9e3ZERISjo6OZmVlQUBAeIHXu3LlRUVHkvT5+2nPt2rUJEyZQKJTi4uLJkycbGhpaWVnhyRzv379vYWGxdu1aW1tbY2Pjy5cve3h4mJiYLF++/LVrEUInTpwwNTXlcrkODg5FRUWiFZKXl2djY4MQ8vT0jIqKcnV1NTc39/T0FAgEMTExWVlZW7du/eGHH4RCYWRkJJfL5XK58+fPf/nyJUKotbX18ePHZmZmCKHo6GhDQ0MjI6OwsLDOzk6EkKKiYkJCgqOjo46OTmpq6sKFC21sbCZNmtTc3Pzatfn5+ba2tgYGBubm5unp6bioZP2I35fNZj9//hwhFBsbq6WlZWFhQc5g2N7e7u/vr62tbWdnV1ZW1uNSzMjIMDc3NzQ0dHFxqaqqEj07r63hHvu+evXK3d39+vXrjo6Od+/etbCwmD9/Pj7LYs5Fn0e9efNmLS0tKyurxMREHR2dhoYGWVlZcnrNb775ZuXKlQihoqIiAwMDhNDDhw+NjY3hg+VN1dXVQSUAMMwQ/6uqqoroR1dXV1dX1/tYC3EhLsT9AHFF/9P/E//88w9CSEdH58yZM5aWlhQKxcfHJzU1VUZGxsHBgSCIFStWUKnUtLQ0/Ajl2rVr5eXlRkZGHA4nNzdXKBSqqqoyGIylS5emp6fX1tYymUwzM7Nz586FhYUhhA4dOkQQhKqq6rRp0wiCiIyMRAhFRUWlpaWpq6vjaRDLysokJCSsra3T09PxwME//PADvpH97rvvCIK4cOECQujo0aMEQZw7d66uro4gCGVl5eXLlwuFwqKiIhqN1tLSUlNTg6euJwjCxMTk5s2bBEG4u7vb29sLBIKuri4rK6vff/+dIIjc3NxHjx4RBPHq1SstLS28S0REBJ5F3tLSMjExkSCIW7duqaurd3R05OfnU6nU69evEwQxb948U1PTtra21tZWOp3+/Plz8WufPn3KZDJLSkoIgti3b9+4ceNE6z83N5fD4RAE4e3t7eDg0NnZ2d3dbWxsnJmZiQuPj5rH41laWjY3NwuFQn9//9WrV+OqmDt3LkEQqampxsbGjY2N3d3dHh4eO3fuxPWzZcsWHFRaWhoXYMqUKTweT/xagUBgZGSUlJREEERBQYGCgkJNTY1o/YjPWU5OrqKi4uHDh0wms6qqSigUBgQE4GPcvXu3nZ1dV1dXY2OjkZFRSEgIQRAMBqOioqKqqorJZObn5xMEERcX5+npietn/PjxRUVF4mu4z31PnDgxY8YMgiAePHggJyeXnJxMEESf52L79u0hISF9HvXDhw+VlJSqqqo6OjpcXFzwUcyePRvXMEEQurq6N2/eDAkJ+eyzz2xsbNzd3XV1dV1cXP766y8C/L/Ef9aJqTH4PoK4EHdoxoUnKgCAD2TWrFmurq6+vr4EQQQFBbm7u1tbWxcXFyOEjh8/bm1t7ebmFhoaOmrUKB6Pp62tLSsrKy0tbWVlhafBZjKZe/bsmTVrVmpqamNj4/fff+/s7Pzzzz/LysomJyeLBjp8+LCxsfG6devc3NyWLVtWUlJy586d7OxsoVC4Zs2aWbNmrVu3Dm+pq6trY2Nz5swZ/ORkxIgRbm5uCCFnZ2clJSW8zYIFCygUCpfLpdPp5I/cvXl4eOBBG52dnfEjGisrK/z7919//WVvby/64/2///5bXFwcEhKCELK2tlZXV8e7KCoqTpw4ESHE4XAmTZokLS0tIyPDYrGqq6vFr83KyrK1tcWdNAIDA2/dutXU1NRnOd3d3Wk0GpVK5XK5Pd5by8jI8Pf3l5OTo1AogYGBmZmZos+C0tLSAgMDGQwGlUpduHDhqVOn8F6urq64SLq6urgAHA6HfFjR39onT55UVFTMnTsXIWRiYmJsbHz9+nXRcK/NGSF0+fJle3t7FotFoVA+//xzMtHLy0tSUpLBYJD9gsiHYzY2NqampgihJUuWpKenCwSCpqam6upqLpcrvob73JfMmUKhCIVCPOabmHPR51FfuXLFwcGBxWJJSUmRR+Hv78/j8fDTMIFAMH78+AMHDjg4OKSkpKSmpo4bNy4jI8PBwQE+VQAAHzdJPBMkQkgoFJLLPfSX/u5rIS7Ehbj/bdwPSVVVFSEkLy8vutzZ2UkQRE1NTW1tLZ1ORwi1tbU9ffq09+66urp4Ad9ea2pqIoSkpKSUlZXxW0DkU+Lnz5+TL8aoqakhhJ4/f15bW0v+ifcl7wi//PLLioqKrKys6dOnKygo9IhLpkhISIjpgaCoqEhu3+ONo6ysLNzHo76+vqGhgcPh3L59u729nc1m4w3wgxplZWU5OTmcQqVSZWVlyWWBQECj0cSs5fP5ZEdhaWlpWVnZmpoaBoPRu5y4/vs8HNFMlJSUampqcMsBP7bi8/mnT5/es2cPQkggEOAziBDCpepdJPFr+Xy+kpISboKS4cj6GUjOuD7Jaicblj0S8VGQB3j16lUdHR38J51Or6mpuXnz5uTJk0Uj9lfg3vv2uABwL5c+zwVZgN5HXVdXRxZeS0sLL7i5uS1evLisrOzUqVN+fn54l+rqajU1te7ubhqNBrcvb/FpqaysDN8LEBfiDq+4MI8KAOA/RqFQVFVVNTU1k5KScIqMjEzvzahUKl7AzYxnz54hhDo6Ompra/Hv3GRu6urqeK1oqwbfLOJHExUVFeT2fn5+K1euPHbsWH5+/qpVq976KMjX3xsaGnoMLpSdnf3tt98ihC5evDhlyhSEEIvFotPp5eXlopsVFBS8dfRRo0bh3j4IodbW1tbWVrIh8UaZkLfUtbW1qqqqfD6/paUF352zWKzIyMivv/56UE76qFGj6uvrhUIhvrnH4cj6GSBFRcXGxka8TD7s6jMRw+PCpaam9jg7Axksrs99e1zGrz0XfR51R0cH+ciFvDJlZWXd3NyOHz9+6tSpQ4cOPX78ODw8/N69ex4eHi9fvnzx4oWHh8exY8fIlhUYCLJBCAAYLmBmeogLcT+JuEOcp6fn/v37b9++LSEhER0dvXr16oCAABkZmeLi4tTUVNyBnuTh4bFq1aro6Gh5eflTp061tbUFBweLbhAUFBQVFbVlyxYDA4M9e/aYmZl99tlnTCaTQqFs3rxZSkrq559/Fr1jdnR03L59O41Gw+99IYTOnz8/bty4Pm9raDRad3d3S0uLnJwcjUYj74lPnjy5bNkyCoWSnp7+ww8/IIRu376toKBAp9MFAgFuXJGPVjQ1NTkcDo/HmzdvXk1NzVdffZWYmPguFThjxoxvvvmmtLRUT0/v4MGDkyZNkpeXLyoqevLkSY/aE2P27NmxsbFhYWHS0tK//vqrq6trdnY27s+DEHJzc/vxxx9DQkLk5eUTExOlpKSCgoLeusBsNltLSys5Odnf3z8vL6+0tNTOzi4iIuKNhhebOHHiunXrqqqqRi9SUssAACAASURBVI0aRY4ZPWHChJSUlOXLlzc1NaWlpYm+H+Xk5BQeHl5SUqKvr5+bm3v06NFdu3ZlZ2fjTk3i9bkvjUZramrqMZZDn+dCzFGXlpZu3Lixrq5OQUHhwIEDZD7z5s1btmwZjUb77LPPEEIxMTFpaWnffffdvn37DA0N4b0v+F6AuBD3U4gLfVQAAP+92NhYf3//sLCwJUuWjB8/3tvbGyG0YMECgiC+/vrrlpYW0Y2VlZUzMzNlZWW9vb1zcnLi4+N7zAf//fffr169+pdfflmwYIGVldXp06epVKqBgcHWrVsfP34cGhqKuy6QP4H7+/vz+XwnJyfyXamgoKCHDx/2WVQGgzF16lRtbe1bt255enr6+fnFx8cjhOzt7SdPnmxgYGBjY+Ph4YEQiouLO378uOjYvjk5OeQyj8dLTEzU09OztbW1t7fHr729NU1NzQMHDnh4eBgYGKSlpeG79r/++ku0SfZaPj4+rq6ulpaWhoaGDAYjIiJC9GmDm5ubl5eXlZUVm81OSUmZPn36uxSYQqEkJycnJCRwudygoKDk5GRFRUXR+hmIMWPGhIWFjR071sTExM7ODr85gIeP09LScnV19fHxEX2dQFVV9dChQ97e3np6eosXL54zZ05FRYWkpCR+IVC83vsihMaPH//8+fPRo0e/9lyIOWpra+vAwEBzc3N7e3tPT0/yspwxY0Zra6ufnx/+8/r167j/TG5u7vjx4+FD4y3AqF8ADD8wagHEhbgw6tcnorGxEY/lhScVSUhIwOlnz55F/zve19txd3fHI30B8BYEAgFeuHTpkrW1NZluaGhYUFAA9QOjfkFciAujfgEAwMfsxYsXKioqzs7O165d27Jli6Sk5NSpU1taWpKSkr755ht1dfUej2Xe4kcfqGTwFmpqaphMZmFhIULoyJEjEyZMwOmHDx9WV1c3MTGBKgIAfLKgMz0A4JOgqqqalJQUGRnp5OSkq6ublJRkaGhYUVGxYMECFouVlJQ0YsQIqCXw4Y0cOTIuLm7WrFkCgWDs2LE//fQTQsjOzq6+vv706dNQP4NIRUUFKgEAaKgAAMBQ5Ovr2+OxyejRo9vb2989ZzGDQQHwWosXL168eLFoyrVr16BaBl2P4fgAAEMfvPoFAAAAAAAAgIYKAAAghBCaO3fuUBhSuaCgQHT+R6y0tJT8SVt01CbxoqOjt2/fjhDq7OwcPXq0UCj8kAcSFxe3cOHC/tYuW7aMwWCkpaX1t4GTk9O9e/c+TFEHUj+3b9/Gk7uL2rFjR+9jZDKZlZWVeXl5vbfv8+z08Msvv8yfP/9DnqmkpCQ8fgMeQxk+Cj4YGPULgGEHZqaHuBD3k44L+pSent7R0WFnZ0cQxJo1awY4YUh2dvbOnTsRQjdv3rS2tsaT+n0wy5YtE3Ou//jjj2vXrpmZmfW5tqOjo6ioyMLC4sMUdSD1Y2FhgQdnGyzk2fnPFRYW4uZWU1MTOSI2GCxi/gtqa2vhewHiQtzhFReeqAAAPoS//vrrs88+k5OTGzt2LPmwQlJS8vjx4ywWS01NLSUlBScmJibq6OjIyck5ODiUlZUhhLy8vDQ1NXfv3s1gMPT19e/du+fu7i4nJ+fv74/H2nr8+PH06dPl5eU5HM65c+dwPrm5uXZ2dvLy8np6elu3bsVbzp07NyoqqkfZaDRaVFSUrq7u6NGjL1y4kJOTExUVtWPHjrVr13p5efH5fFNT04qKCnl5+S1btkydOtXQ0JD8bZ7FYuHDaW1tffz4MW4JkNOPZGRkmJubGxoauri4VFVVIYR27twZHBzs7+9vbm7u6up65syZmTNncjico0ePvnatUCiMjIzkcrlcLnf+/PkvX74UPYrdu3eHh4cjhBQVFfft2zd9+nQ9Pb2YmBiEkKenZ2Njo6+v75kzZ/Lz821tbQ0MDMzNzdPT0/G+165dmzBhAoVCKS4unjx5sqGhoZWV1Y0bNxBC9+/ft7CwWLt2ra2trbGx8eXLlz08PExMTJYvX/7atQihEydOmJqacrlcBweHoqIiss3g6Ogoft+8vDwbGxuEUHt7u7+/v7a2tp2dHb4eEEIXLlzQ19c3NDTctGkTOfEIKTo62tDQ0MjIKCwsrLOzU/TsEATx/fff6+rqamlpkZPMCASCOXPmqKurjx079unTp/jisbKy4nA4JiYmly5dGsiR9j7X/Z2v8vJyHR0d+EwAAIDXg3GgIS7EhXlU3rfq6mo5OTlbW9vMzEwrKysmk/nq1Ss/Pz8pKSl3d/f4+HgFBQVVVVWCIAoKCigUir+/f05ODp7SkSAIvOWXX36JfxFXUVH57bff5s2bhxC6dOmSUCi0sLDQ0tK6detWcHAwg8Fobm6ura1lMplmZmbnzp0LCwtDCB06dIggiNzc3EePHomWLT8/f8SIEUeOHCEIYt++fRMnTiQIYvny5bGxsQRB1NTUjBgxAm/JYDAiIyMJgnj+/LmcnNzTp08Jgjh37hyem+XcuXNz587FW44fP76oqKiqqorJZObn5xMEERcX5+npSRBEfHy8mppaQ0NDd3e3pqZmSEgIQRCXL1/mcrmvXcvj8SwtLZubm4VCob+//+rVq0UP5KeffsLbKysrf/fddwRBVFZWSklJtbS04MJXVFQIBAIjI6OkpCRc1QoKCjU1NQRBRERE7N27lyAIS0vLxMREgiBu3bqlrq7e0dGRn59PpVKvX79OEMS8efNMTU3b2tpaW1vpdPrz58/Fr3369CmTySwpKcF1O27cONH6Eb9vbm4uh8MhCGL37t12dnZdXV2NjY1GRkYhISHd3d3q6urnz5/HayUkJCoqKu7du4e3T01NNTY2bmxs7O7u9vDw2Llzp+jZOXny5Pjx41tbW+vq6jQ0NG7evBkfH6+kpPTw4UNcDFx1Y8eO/e233wiCSEpKwpUvvrR9nuve5ysrK8vd3V1DQ8Pd3d3Z2ZnD4SxduhQmP/lg86iImZQGvo8gLsSFeVQAAJ+o06dPt7S0fPvtt05OTsePHz969ChuPnV2du7cuTMsLMzT0/PFixcNDQ36+vp8Pv/XX3+dMmWKkZFRQUEBzqGzs3P9+vUrVqyQlpbW0dEJDAxctGgRQqi4uPjRo0d5eXn+/v7W1tbffvttU1PTuXPnUlNTGxsbv//+e2dn559//llWVjY5ORkhZGVlZWBg0KN4UlJSn3/+OULIxsamsrJSzIF4eXkhhNTU1CwtLW/duoUQcnZ2VlJSEn2K0tTUVF1dzeVyMzMzbWxsTE1NEUJLlixJT08XCAQIIVtbWyaTSaVSdXR08PzuHA4H/wYvfm1GRoa/v7+cnByFQgkMDMzMzOyvnD4+PgghDQ0NOTm5Fy9ekOlPnjypqKiYO3cuQsjExMTY2Pj69etk4f/999/i4uKQkBCEkLW1tbq6+s2bN/EjGjwnOofDmTRpkrS0tIyMDIvFqq6uFr82KyvL1tYWdx0JDAy8detWU1MTWT+vzRm7fPmyl5eXpKQkg8Fwd3dHCJWUlLS0tMyYMQMhFBwc3KOvS1paWmBgIIPBoFKpCxcuPHXqlOjZOXPmjJ+fn4yMDG6cWFtb4zo3MjISvQCuXbsWEBCAEJo8eTL5GEdMafs8173Pl6Oj45EjR2bPnp2amvrll1+uX79+z5498PnwwcCoXwAMOzA8MQDgvXv+/DlCSFVVFSGkq6urq6uL06lUqra2Nvrf+Q06OjqEQuGCBQuuXr3a1tbW2dnJZrPJLfFNhpycHM5HXl4eN2Dwjfi2bdvi4+Pxxk+fPm1ubkYI4V7yUlJSysrKuAx9UlBQwAsSEhK4LdEfRUVFcpeGhgbRVdnZ2fjRTU5OzuTJkxFCfD7/6tWr5Es+dDq9pqYGHwJ5ULKysniBjCtmLZ/PJ++0lJSUcG59wpXT+4j4fL6SkhL5rhTOpL6+vqGhgcPh3L59u729nazzlpaWmpoaZWXl3kUiS0Wj0cSsFS2wtLS0rKxsTU1Nfn4+rp8+D7ZHbSCE6uvryWonC8xkMkWzFT12Pp9/+vRp3AAQCAT4aiHPDp/PJ/clz3vvCyAtLS0hIaGrq6u7u5tsCIk/0t7nus/zdffu3bFjxyKE7ty54+HhAR8OAAAADRUAwH9JTU0NIYQfC/zzzz8XL17EP433FhcXl56efvHixalTpxoZGeEHLwPJfPHixV999RV5U4h/R3/27Blu/9TW1uJfu99RXV0dvhltaGgQ/XWWz+e3tLTgVeSP9ywWy9HRcRCnWBk1ahTZOKmtrcW34G+aQ319vVAoxB3ZcSYXL16cMmUKLjCdTi8vLxfdhXyo9XYFvnr1Kl5ubW1tbW1VVVXdvn07rp8BUlRUbGxsxMu4USqa0tzc3NraKro9i8WKjIz8+uuv+zw7onVYWVnZo5GDPXv2LDg4+O7du0ZGRpWVlQPpT9Lnue59vqKjo5OTk1VUVDIyMu7evXvr1i13d3f8CAt8AHV1dSwWC+oBgGEEXv0CALx3s2bNkpGR2bp1a1ZW1uLFi9etW0f+ON0DvumsqKiIj4+vqqqqra0tLi4Wn7m+vr6ZmdnZs2efPn3K4/HmzJlTXV3t4eHBZDKjo6MvXLjw1VdftbW1BQcHI4Ru37792gwRQjQaDd8K02i07u7ulpYWnI47tZeVld2/f3/ChAkIofPnz9fX12dnZ0+dOhVvk52dPW3aNISQk5PTjRs3SkpKEEK5ublffvnlO1bj7NmzeTxea2urUCj89ddfXV1dEUKXLl3Ky8sbYA5sNltLSwu/BZeXl1daWmpnZ5eVlYULrKmpyeFweDweQqimpsbf3x8/mHprM2bMuHHjRmlpKULo4MGDkyZNkpeXJ+tngCZMmJCSktLV1VVbW4uHV9bT05OSkjp//jxCaO/evVQqVXR7Nze333///dWrVwihxMTEw4cPi54dFxeXY8eOvXz5sqGhwcHB4dGjR70jNjQ00Ol0NpstEAh27dolFArb2trEF7LPc937fK1bt27s2LFZWVmpqal2dnanT5+GVsqHVFtbC5UAADRUAADg/6Gurp6WltbW1ubm5vby5ctLly7hfh29hYWFmZmZhYaG3r59++jRo93d3WvXrhWfOYVCOXHihLa2tru7e2JiYmBgoLGxsbKycmZmJu6On5OTEx8fj+ekj4uLO378+GsL7OLisnv37oCAAAaDMXXqVG1tbdwjRUNDw8zMbPLkyT/99BN+khMUFPTw4UPyKUpFRYWkpCRepaqqeujQIW9vbz09vcWLF8+ZM+cdq9HHx8fV1dXS0tLQ0JDBYERERCCE9u3bd+bMmQHmQKFQkpOTExISuFxuUFBQcnKyoqJiTk4O2XLg8XiJiYl6enq2trb29vZ0Ov1dCqypqXngwAEPDw8DA4O0tLTDhw+L1s8ALVq0aOTIkVpaWq6urj4+Pt3d3TQabf/+/aGhoTo6Ou3t7aqqqqLjWrq5uXl5eVlZWbHZ7JSUlOnTp5NnByHk7e3t6upqYmJiZma2dOlS3NrswdTU1MXFhcvlWltbOzs729nZvfYRUJ/nus/z1dXVJSkpWVZWJn7WFwAAAAghCh4lAyFUXV3d3yNR/B3Q39Rs77IW4kJciPsB4tJoNPI/Hbw1JpNZWFiooaEBVQHAEL2noVDEfNYVFhaamJjA9wLEhbjDKC48UQEAgIGC9h4AwxeM+gXAsAMNFQAAAAAAAMCQQyEH729ubu7vdWQ8OCMeJWZw10JciAtxP0BcDQ0NeBQAAPj472ko/3dX01tVVVV//aPg+wjiQtyhGRf6qEBciPvxx4U+KgCAT6ShIuaz7vLlyw4ODvC9AHEhLoI+KgAAAAAAAADw1qChAgAAAICPn4qKClQCANBQAQAAAAAYWmDULwCGHclByYVGo0FVgv5A7wgAAAAAAPDfNFTgZhT0h0KhQCUAAAD4z9XV1fXXCRgAMDTBq18AAAAA+PjV1tZCJQAADRUAAAAAAAAAeCeSeNxihJBQKCSXe+gvfSBrAXgf19Vrr7r3dD1/fHEBAOBT+MZBCCkrK8P3AsSFuMMrLjxRAQAAAMDHT0lJCSoBgOFFkpwDUkJCQsw8lEjsLJUAvPWV857WvuP1/PHFBQCAT/wbB74XIC7EHXZx4YkKAAAAAD5+dXV1UAkADC/QUAEAAADAxw9G/QIAGioAAAAAAAAAAA0VAAAAAIDXUVFRgUoAABoqg2nZsmUMBiMtLW2A2x8+fHggm92+fVtPT+/timRnZ6erq0sQBJnC4/EoFEp2dvYHrpy3OIqCgoIZM2awWKyRI0daW1tnZWUNfN8B1i0AAAAwBCkrK0MlAAANlcH0xx9/XLt2zd3dfSAbEwSxZs2a124mEAgsLCz+/vvvty6VQCC4ceMG+WdycrK6uvr7qwShUNhn+lschZeXl5eX1/Pnz/l8/urVqz09Pevr6wexbgEAAAAAABgqDZX79+8jhNauXWtra2tsbHz58mUPDw8TE5Ply5fjDY4cOcLlctls9uTJkysqKhBCnp6eUVFRrq6u5ubmnp6eAoEAISQtLV1dXY13wcuenp6NjY2+vr5nzpzJzc21srLicDgmJiaXLl3Cm/3555+Ghoaampqff/55R0eHl5cXn883NTWtqKjondvdu3ctLCzmz5/v6OiYl5dnY2ODENq5c2dISEhAQICNjY2VldXTp08RQpmZmQYGBsbGxjt37tTQ0CgvL0cIsVisa9eu4QynT5+elJSElxsbG+/fv29oaIj/LC4unjx5sqGhoZWVFdmY6V0D5eXl9vb2+vr6bDY7NjYWIbR58+alS5fi7cllBQWF2NhYZWXllpaW3jm/6VF0dXU9fvzYzc1NQkKCQqH4+vreu3ePwWBYWVmdPHkSh05PT7e0tOzs7Pz88885HI6Ojk5AQEBbW5to3fYuyf379y0sLMRcAwAAAMB/C0b9AmDYGYSZ6bHZs2fHxsb6+/uHhYXl5uYSBDFq1KjIyMgRI0YsWbKksLCQzWYvWbIkOjp67969VCo1Ozs7KytLQkLC3Nw8JyfHycmpd56nTp1iMpnZ2dmampqfffbZV199FRgYyOPxQkNDi4qKnj9/HhoaeuvWrdGjR3t4eGzfvn3//v3nzp0rKCjos4Q0Gq20tHTt2rV+fn63b9/GiVQqNS0traCggMViLV26NDEx8ccff1ywYMHBgwdnzJixYcMGPp+PB3U+fPiwsbExebChoaE7d+6UlJRMSUlxc3N78OABXjV37tzQ0NBFixbl5uZ6eHg8efKkubm5dw3ExcVNnz49MjKyqakpJCSkqampvzLX19fX19dTKJTeOZObDfAoaDTa7Nmz3dzcvv7666lTp6qpqenr6yOE/P39k5KSfHx8cJ37+fmdPn26urq6tLSUIIjVq1ffvXtXtG7Hjh3boyRUKrWgoGD37t29rwEEM9MP7bgAAPAxEfOJV1tbC98LEBfifqIz00+cOBEhxOFwJk2aJC0tLSMjw2KxqqurlZSU+Hw+m81GCE2ePLmsrAxv7+7uTqPRqFQql8utrKx8bf7Xrl0LCAgQzSQrK2vChAk6OjpUKvWPP/5YuXKl+BwoFIpQKPT19e2Rbmtry2KxEELGxsaVlZWlpaWtra0zZsxACC1dupSsOGdnZ3JSW2VlZUtLy8zMTIQQj8ebN28eTv/333+Li4tDQkIQQtbW1urq6jdv3uyzBtTU1LKzs2/duiUvL3/y5EkGg9Ffmb29vSkUSp85v8VRnDhx4osvvkhMTNTV1bWwsMAPUubOnXvhwoWmpiaBQJCenj5nzhwWi/XPP/+cPXu2s7MzLi7O1taWDNRfSRQVFfu8BuBbEwAAAAAAvIVBmJmeSqWKLsvKypLLAoFAKBT+9NNPFy5cQAg1NDRoaWnhtfLy8mRc/OqXeGlpaQkJCV1dXd3d3bjPBp/PZzKZeC0O+urVK/GZKCoqSkj0bJv1KEldXR3ZIGGxWFJSUn1m5e/vf+zYMSsrq/Ly8gkTJuBEPp/f3t6O2yQIoZaWlpqamj5rICIigkqlLly4kM/nR0REiGll4c5/feYsJyf3pkdBo9HCwsLCwsLa2tpSUlKCgoJGjx49fvz48ePHp6Sk6Ojo6OrqstlsNpu9Y8eOuLi4gICAOXPm7NixgwzUZ0mUlZXJwvS4BhDMTD804gIAwCdyW9PfKhUVFfhegLgQd3jFfe93Nn/88cepU6euXr3KZDJ///13MSNHUalUPJRWZ2dnZ2en6Kpnz54FBwffvXvXyMiosrJSR0cHITRq1Kiamhq8QUNDQ3Nzs4yMjPjcKBTKawvMYDDIF7FevHjRoyQkDw+Pb775Jjk5WfQRDYvFotPpuE8Licfj9a4BSUnJNWvWrFmzpqSkZMqUKQ4ODmSBe7S4cJn7zJl8gW2AR1FRUVFQUDBz5kyEkIyMTEBAwNGjR/Py8saPH+/v7//HH38YGBj4+fnhvXx8fHx8fBobG/38/Pbu3RsYGCjmGPt73Q4AAAAYImDULwCGnfc+6lddXZ2Ojg6TyWxoaDh8+HBzc3N/W2poaBQWFiKEjh8/3qNF0dDQQKfT2Wy2QCDYtWuXUChsa2tzdHS8cePGw4cPBQLB4sWLjx07RqPRuru7W1paxOcmnp6enkAguHLlCkJo165dZNvu/PnzogNkycnJTZkyZevWreR7XwghTU1NDofD4/EQQjU1Nf7+/s3NzX3WwLx5886fP48QGj16tIKCglAoJAvc1taWkZHRo1R95vymR9Ha2urn53fq1CmhUEgQxJUrV3Jzc3F3fG9v7xs3bpw8eRK3u3bt2rVhwwaCIBgMhqamplAoJOv2TUsCAAAAAADAUGyo+Pn51dTUGBgYeHt7R0dHP336dN26dX1uGRUVtXTp0qlTp1ZXV6uqqoq+D2Zqauri4sLlcq2trZ2dne3s7BwdHTU0NBITEz08PDQ1NaWlpVeuXMlgMKZOnaqtrX3r1i0xuYk3YsSI3bt3f/7552PGjNHS0pKTk8PtnKCgoIcPH4pu6e/vz2QyzczMRBN5PF5iYqKenp6tra29vT2dTu+zBsLDwyMjI3V1dU1MTObMmWNlZeXh4SEjI2NpaTl37tyZM2f2LnDvnN/0KLhc7p9//hkXFzdy5MiRI0euWrXq4MGDY8aMQQgpKipOmTJFV1cXv5nm7+9/584dHR0dNpv96tWrpUuXitbtG5UEAAAAGApg1C8Ahh0K+bpRdXV1f12fcVfs/t4q6+7uptFoohMgDnf4WCgUikAgGDFixMuXL8lOFx/xUSxZsmTMmDHLli0b5CuMQunv2njtdfXWa9/xev744n5k/6EAAPCm3zgIocuXLzs4OMD3AsSFuMMorgR8rvVmbW29f/9+hNDvv/9uYmIyHFspb3oUhYWFZ8+enT9/Ppx9AAAAAAAwFEBDpQ+7du365ZdftLW1f/nlFzG9/z+ao1izZs20adN++eUXBQUFOPsAAAA+SioqKlAJAAwvMJ5pHyZOnEhO4PgpHMXmzZs3b94M5x0AAMBHDEb9AmD4NVTefWZ6mPcaiAcztg7luAAA8Cl848D3AsSFuMMxLrz6BQAAAICPn+gcAwCAYWEQZqYH4LUX2YdfCzPFAgAAfOOIqqurg+8FiAtxh1dceKICAAAAAAAAGHKgoQIAAACAjx+M+gUANFQAAAAAAIYcGPULgGFn0F5qp1AoUJsADE0ODg7wHwoA+BQ+66ASAICGSk9dXV39dY7Bw42J6TpTXV3NYrHeYt93Wfv+4ra1ta1YsWLPnj00Gu1TON6BxIV/s/9cdnb2x3ddQVyIC3Ehbu+1YtTV1fUXFwAwNMGrX4MsISHh7t27v/zyC1QFAAAAMHTU1tZCJQAADZVP2qZNmxwcHH744QeoCgAAAAAAAKChMiRs3749ODh4x44dixYt2rZtG1QIAAAAMETAqF8ADDuUqqoqvNTc3Eyn0/vcSCgUIoQkJCQGfe1HFtfAwCA3N9fQ0LCkpMTS0rKkpOTjPl6IC3EhLsSFuBAX4kJciAtx31NcSbJjGXTme8ect2/fvnDhQg6Hs379ej09vcWLFyclJYWHh3+sxwtxIS7EhbgQF+JCXIgLcSHu+4s7aMMTgw0bNlRUVCCEvv/+e/ynhoZG74YKAAAAAD48GPULgGEH+qgMju3bt4eEhCgoKJAp8vLy0FMFAAAAGCJg1C8AoKHyidqwYcOGDRvw8qZNm3onAgAAAAAAAKCh8kFlZ2fv37+ffJzy448/4gV5efmDBw9mZWVBFQEAAAD/LRj1C4BhB/qoDAJHR8f+Vvn6+kL9AAAAAP85ZWVlqAQAhhd4ojL41q9fD5UAAAAAAAAANFSGFjzqFwAAAACGjrq6OqgEAIYXSTxuMUJIKBSSyz30l/7uayEuxIW4EBfiQlyIC3E/QNza2lqoZ4gLcYdXXHiiMviio6OhEgAAAAAAAHgXkuQckBISEmLmoURiZ6l8l7UfX9yoqChyhOJP4XghLsSFuBAX4kLcoR9XRUUF6hniQtzhFReeqAAAAADg4wejfgEw7EBDZfDBqF8AAAAAAABAQ2XIgVG/AAAAgKEGRv0CABoqAAAAAABDTm1tLVQCANBQ+dSJ6UkPAAAAAAAAgIbKf+PHH3+ESgAAAACGFBUVFagEAKChAgAAAAAwtMCoXwAMOzAz/eDHjYyMFLMN1DPEhbgQF+JCXIgLcSEuxIW4r10LT1QG37p166ASAAAAgCGlvr4eKgGA4QVmpoe4EBfiQlyIC3Eh7scft66uDuoZ4kLc4RVXcli3sd56LUKIxWJ94FM7ZOMCAAAAAAAw1MCrXwAAAAD4+MGoXwBAQ2Wo27Fjx8KFCxFC+fn5mpqaEydOHMQ8eygqKvLw8GAwGHQ63dbWNjMzE6czmczKysp3iVhYWOju7s5kMuXk5MaNG3fy5Emc3t7ePm7cOBUVlerqari4AQAAABKM+gUANFQ+ja/cbwAAIABJREFUqHPnzvW+I++RKBAI+tz3r7/+Gj9+/I0bN95T2SorK+3s7PT09B48eFBdXb148WJfX98rV668e85lZWV2dnYmJib379+vrKz85ptvlixZ8ttvvyGESkpKnj59+uLFCwkJiYyMDIIgRHfk8/m9EwEAAAAAAICGyuDo7Oz87bffzM3NExISpKSk+kzctm1bcHCwhYXF+vXr29vb/f39tbW17ezsysrKEEJZWVkxMTGXLl1ycXEpLy+3t7fX19dns9mxsbEIoaKiIrLLR1xcnL6+PofDsbW1xftKS0uTDSFyubm5eebMmerq6nZ2dvhpSVxc3IQJE+Li4rS1tel0+hdffHHs2DEmk0keBUEQK1euZLPZOjo6QUFBeFy2zMxMMzMzfX19ExOTs2fP9pkSExMzY8aMmJgYbW1tRUVFPz+/X375Ze3atfX19Z6eno2NjWPGjGloaNi3b5+5ufmhQ4c6OztxRBqN1jsRAAAA+BTU1dVBJQAADZX3qKmpaevWrVwuNycnh8fjnTlzRklJqc9EGo2WkZGRkpISHR196NChioqKx48fZ2RkZGdnI4ScnJwiIiK8vLzOnj0bFxc3ffr0kpKSe/fu3blzp6mpSVNTMyUlBSFUW1sbExNz9+7dx48fL1q06Pz58/0VLCMjY9u2bc+fP9fX19+4cSNC6MqVKz4+PqLbzJo1y9zcnPzzzJkzmZmZDx8+fPTo0b179/DrW+Hh4Xv27CkpKUlKSjp16lSfKZcvX/b19RXN2cfHh8/nV1dXnzx5cvTo0QUFBVwu9/Tp08ePH79y5YqBgcHmzZsbGxsVFRV7J8L/AAAAgE9BbW0tVAIAw8swG/UrNDS0s7Pz6tWrmpqa4hMpFMrYsWPZbDa+s/fy8pKUlGQwGO7u7jU1NaJ5qqmpZWVlTZ8+3crKiuzs4ebmhhCSk5MjCOLYsWO+vr5BQUFiCmZnZ2dkZIQQmjdvXnh4OEKosbFRVVVVzC6zZs2aMmWKtLQ0QsjGxgY/rlFTU+PxeGpqamPGjNm/f3+fKb1zptFoKioqdXV18vLyoulGRkaHDh169uxZeHj44sWLjx8/3l8iAAAAAAAAQ6uhMrxmpndzc/vuu+9Wr169evVqCwsLMYlIpNtcfX29oqIiXlZSUurRUImIiKBSqQsXLuTz+REREStXriRXycjI5OTkxMbGrl271srKKjExUVdXt8+ijho1Ci8oKio2NDQghFRUVMT3mK+trf3222//+ecfCoVSXl4eFhaGEDp27NimTZscHBwYDMaOHTucnJx6p4waNerZs2c9Kqq2tnbkyJHt7e09ojx48GDr1q25ublRUVF9JnZ3d8PMqRAX4kJciAtxP/q4ysrKUM8QF+LCzPTv0dy5c4uLi11dXUNCQmbMmHHx4sX+EhFCFAqFbDyQ7zi9ePGiZ1tNUnLNmjUPHjy4evXqzz//fPfuXdG1lpaWx48f5/P548eP/+qrrxBCVCoV90fv7Owke3rgxglCqLGxETeQHBwcfv/9d9GseDzen3/+Sf4ZGRmJELpx48bff/89a9YsssETHx9fWVkZFxfn5+cnFAp7p0ydOpXH44nmnJKSoq6uzuVyRRMvXbo0c+bMoKAgZ2fn4uJif3///hIBAACAj56SkhJUAgDDy/CbmV5SUjIgICAgIODixYtxcXFqamrGxsa9E0V3mTBhQkpKyvLly5uamtLS0hwcHETXzps374svvnB2dh49erSCgoJQKGxubs7JyXFzc/v777+3bt2alJQkLS1tYGCQl5eHENLQ0CgsLFRTUzt+/DjZFrp69erTp0+1tbWPHz9ub2+PEPrmm2/Mzc0XLVq0du1aVVXVP//8c+XKlaK9XOrq6iZMmEClUu/fv5+TkzNnzpzW1tapU6eePHlSU1PT0NBQKBS2trY6OjqKpiCEIiIixowZs3r16q+++kpBQSE7O3vFihW7du0iC4MQKi4u3rJly6pVqxwdHcUnktULM6dCXIgLcSEuxIW4EBfiQlyYmX4QTJs2bdq0af0l5uTkkImLFi26evWqlpaWlpaWj49PVVWV6C7h4eGhoaGhoaESEhKff/65lZVVUVGRl5dXd3f3uHHjdHR0uFwulUpVU1PDXUSioqKWLl2qpaXl4uKiqqoqEAgEAsGsWbOWL19eWFiora2dnJyMEGKxWDdv3lyzZo21tXVnZ6e1tfWZM2esra1F4wYGBh48eHDcuHF4jDJbW9ulS5dOnTq1u7tbVlb20KFDdDq9R4qEhISmpibO2dzcvKOjw8zMbP/+/bhTDcnAwKB31/8+EwEAAIBPQV1dHYvFgnoAYBihkLNqVFdX9/cPjN8b668N9C5r3yUuGCxD8/xCXIgLcSEuxIW4gxj38uXLPV6pgHqGuBB3iMf95GamBwAAAAAAAAx90FABAAAAwMdPRUUFKgEAaKh8IOLH1X3tqLvk7PKDm3N3d7dop/YPGfetjxcAAAD46JGTFgAAoKHy6Vq/fj1UAgAAAAAAANBQGVq+//57qAQAAABgSKmrq4NKAAAaKgAAAAAAQ0ttbS1UAgDDC4WcVKS5uZlOp/e5EZ5nUEJCYtDXfpRxt23btmrVqk/neCEuxIW4EBfiQtyhH/fRo0dcLhfqGeIO8bgw28//01AZvvOoDNm4NBqNrNVP4XghLsSFuBAX4kLcoR+3sLDQxMQE6hniDou4AINXvwAAAADw8YNRv8AnYseOHQsXLkQI5efna2pqTpw4cRDz7KGoqMjDw4PBYNDpdFtb28zMTJzOZDIrKyvfJWJhYaG7uzs0VAYfjPoFAAAAAADe3blz53rPMNEjUSAQ9LnvX3/9NX78+Bs3brynslVWVtrZ2enp6T148KC6unrx4sW+vr5Xrlx595zLysrs7OxMTEygoTL4YNQvAAAAYKiBUb/AMNLZ2fnbb7+Zm5snJCRISUn1mbht27bg4GALC4v169e3t7f7+/tra2vb2dmVlZUhhLKysmJiYi5duuTi4lJeXm5vb6+vr89ms2NjYxFCRUVF5FtncXFx+vr6HA7H1tYW7ystLU02hMjl5ubmmTNnqqur29nZ4aclcXFxEyZMiIuL09bWptPpX3zxxbFjx5hMJnkUBEGsXLmSzWbr6OgEBQXht90yMzPNzMz09fVNTEzOnj3bZ0pMTMyMGTNiYmKgoQIAAACAjx+M+gWGhaampq1bt3K53JycHB6Pd+bMGSUlpT4TaTRaRkZGSkpKdHT0oUOHKioqHj9+nJGRkZ2djRBycnKKiIjw8vI6e/ZsXFzc9OnTS0pK7t27d+fOnaamJk1NzZSUFPx/ERMTc/fu3cePHy9atOj8+fP9FSwjI2Pbtm3Pnz/X19ffuHEjQujKlSs+Pj6i28yaNcvc3Jz888yZM5mZmQ8fPnz06NG9e/dOnjyJEAoPD9+zZ09JSUlSUtKpU6f6TLl8+bKvry9CCHrwDL5Nmzbh8wcAAAAAAMDAhYaGdnb+f+3deUBM+/sH8GdmivZSaSFL1lJapAVdoVWlzVKyE7LdrjVLdrJcXPsWCkVZQ/aKCGVfUtmXi5SZCkmqmfn9cfrNd+6UKXvl/frrdJbPc85nzmnOM+ec5xSfP39eT09P+kgWi9WuXbtmzZoxZ/Y+Pj4yMjKqqqqenp5v3rwRb1NXV/f06dNOTk7t27dnsgUi8vDwICJFRUWhUBgVFdW7d+/BgwdLWTFbW1tDQ0Mi6tu374QJE4goPz9fW1tbyiLu7u5du3aVk5MjIhsbG+Zyja6u7u7du3V1dU1NTcPCwiocI2oZV1S+v3nz5qETAAAAqhVNTU10AlR/Hh4e169fnzJlys2bN6WPJLESEbm5ufXq1WOG1dXVJdoMDg52cXEJCAho0KDBP//8Iz5JXl4+MTExMTGxRYsWjo6OT548+dyKaWlpMQP16tXLy8tjjinpT8xzudyxY8daW1vb2NgcOnSIqcgcFRXFZrPt7OyMjIxOnz5d4RgtLa2XL18iUQEAAIDfAqp+QY3g5+d3//59Nze3YcOGOTs7JyQkfG4kEbFYLFHykJ+fzwxnZ2dLtCkjIzN16tTbt2+fP39++fLl169fF59qbm6+Z8+enJwca2vroKAgIuJwOMybNoqLi4uLi5nZmOSEiPLz85mjyc7OLjIyUryp3bt379+/X/RnSEgIEV28eDElJcXd3V2U8KxZs+bFixfLli3z9fUVCATlx3Tr1m337t1EJMM810JEAoFANCzhc+O/fWqtjBsSEiJlHvQz4iIu4iIu4iIu4iIu4lY4XkZGRkZGpl+/fv369UtISFi2bJmurm6bNm3KjxRfqkOHDgcOHBgzZszbt28PHTpkZ2cnPrVv376DBg1ycXFp1KiRioqKQCAoKChITEz08PBISUlZunTprl275OTkWrVqxVyxadiw4d27d3V1dffs2SPKhc6fP//s2bMmTZrs2bOnc+fORDRx4kQTE5Phw4dPmzZNW1t7//7948ePF3/KhcfjdejQgcPh3Lp1KzExsU+fPoWFhd26ddu3b5+enp6BgYFAICgsLHRwcBAfQ0TBwcGmpqZTpkzBMyrf34wZM9AJAAAA1Upubq7o3hWAGsHe3t7e3v5zIxMTE0Ujhw8ffv78+caNGzdu3LhXr15ZWVnii0yYMGHUqFGjRo1is9kDBgxo3759Zmamj49PaWmplZVV06ZNW7duzeFwdHV1mUdEFixYEBgY2LhxY1dXV21tbT6fz+fz3d3dx4wZc/fu3SZNmkRHRxORjo7OpUuXpk6damlpWVxcbGlpGRcXZ2lpKR534MCBW7dutbKyYmqUderUKTAwsFu3bqWlpQoKCuHh4UpKShJj2Gy2np4e0zLeTI+4iIu4iIu4iIu4tT9uUlKSxM/M6GfEJbyZvnrDMyrf3/z589EJAAAAAABIVKoXVP0CAACoblD1CwCJCgAAAEC1g6pfUIOUlpZKfxZf9Ob4L132K6Zu3LixWbNmpqam+fn5PzMuSXnh4/y4kdhLvk5Xfwv03leb6b4JnQAAAADwCx07dkxJSYmp7qWlpZWQkKCvry89QfoRpD3B09PyT3xOX6GnJfrgK+2/shqdAAAAPwKPx/vcQ88AIHL48GE/Pz9HR8fly5czY3x8fH7VyqDUAAAAANR+XC4XnQBQYQ5/8ODBnJyc6dOnE1GrVq0+fPggKytbHdYNz6gAAAAAAPyOHj582Lp169TU1O7duzNjDAwMqkmWQlV8Mz3ATyPaCfGGWsRFXMRFXMT9jnE1NDTQz4iLuOnp6fv27YuPjz937hwR1a9fX/TYSaVP8P/87cWtXwAAAFD7qaurV8O1+js+CB8NfM40l3Xfq6n3798rKysT0bhx42xtbdetK2tZUVGxOveAjOiNmGw2G2/HhOqwR0r5U/rM4irdn3/QVMRFXMRFXMRF3C+Ki9pFUKH9V1Z/+/58586dtWvXxsbGnj592sTEhIgSEhJq0HGEZ1QAAACg9uPxeOgE+B2UlJSkpaUxw/Hx8RYWFnfu3GGylBoHiQoAAADUfqj6BbXe48eP3d3dVVVV09PTmTHjx48fMWKElpZWDd0iJCoAAAAAADXS8+fPo6OjmWEejzdq1KjCwsI+ffrUjq3DQykAAABQ+2lqaqIToDb59OlTx44duVxuUFBZSQZLS0uqQsWwGqQ6XlGJjYmVGHPqyKk+zr7iY6YHzdj4z6YKF0+7meZi0/3HrV5mWibTvnmTdiYNTU0amhrpGDMDEiv5OZfOXXr96jURha8PnzVhVtVDXzp3yUjHWKJ/3G179PcYUPVGOrWxff7k+c/sMQAAgF9OQ0MDnQA1XWpqanBwcF5eHhEJhcKwsLBnz55NmDChtm5vtUtUhELhigX/fEsLBsYGu4/u+tKlBALBly5y49n12y9vxSUfqVO3zu2Xt26/vLXnZExVFozauis7K5uI/Ab7TZk75YuC6jTUidt/VPRnxp2MDwUfvrHPv67HAAAAAOCn6dGjR1BQkIaGhqqqKhHJycm1a9eudm/yL0hUMu/e87Hv+c/Clf179O/R2ePKxSvjBv/p0dlzwdQFRBQ09K9cbq6nnVfWy6xJIyd97rKJSIfWHffs2DPcd7iLTffNqzYTUWZaZl83/3dv37VrapHLzWVmWxSyiMl/Nq3c7G7bo8cfPRZMW1hSXEJEVi2sw1aHdTK0LSwsDF8f3r2Dq4u1S/8e/f999i8R3bmR1sfZ18XaxaOzZ+qFy5VuXfn2JdrcsnbrhbMXgkcHnz4aHx0RvXT20gq3goi2rNlib+HQx9l37869jpZOzMjmLZs9f/Kcm1P2ROCxg8esOlmJcrwls5Y4W7k4WjpND5rBXPh7eO+hv1u/bub2A70GvXj+gpnzwtmLnnZeHQ07ifcYEe0Mi5w5fuaU0cF9Xf37OPu++vcVET199HSwzxB32x59nH1vXLmBfxMAAFAToeoX1DgHDx4cOHBgTEzZ7+AREREpKSlTpkxhs3+Xh8x/wZvpORz2w8yHMxeHjJ/x1+RRUxZOD405ES0UCv8w7jxy/Mi5y+acTzx/KCmWiAaPGqykrFRJpsVhZ73MCosJy87KdrZ2GTC87CYoFVUVy46WSfFJ3n7eRJR48syqrSsTTyQePXB097FdCooK4wMmxOyI6R/QX0ZW5m3+24uZF/Jz8zevDou/elpRSTE2JjY58ULfIX7zguf1D+jv2cfj6MFj84PnxyUfkbIy5dt383aTaDNg7LAje4/MWzHX1MI0fH3457bi1YusbevDDycdUlVT/XNIEIfDYebk8wX23bsdiz0+cMQAoVB4+ujpv2b8FbkliojOnk66cPbi4XOHWCyWX3e/U3Gnu3u6TA6cMmbyaAdXh63rts0Lnr959yYienT/UezZg08fPfXq6i3qMeajSTx55tDZWE0tzblT5u2N3Bs0LWhS4GTfQb69+/e6cyPtzyF/nrp8UraO7I/bPfBmesRFXMRFXMT9EXG5XG7N2l74zZ3Zfe16YY6np6enpyezq6iqqlblvL02Hb+/JiFTUVMxtzQnosZNG1nYtKsrV1dOXk5TS1N0oYBhbGbctHnTSltzcnciIm1dbXkFeR6XJz7+zMmzRJR+O53D4bQxaZN44oxHHw9lFWUOh9Ozn0/CsQQiYrFYjm6OLBZLXkGehBS3Py4/N9/L16vvED8i2nloh3tPNyKy6mjJXGORmqhItl9hm1XZimspVy07tNfU0pStI9ujdw/xOV293Y4eOEpEN67cbKzfWF2z7KbbLo520cd315WrW6duHRML0xfP/s16kZX1MsvB1YGIBo4YsHJL2T11Pn29WSyWfgt9BUUF8R4jInNLc00tTSJq3qpZdlZ21ousp4+e9vT3IaK25sZaOvVvXr2J/x0AAAAAP1TXvhZ79+7t37//7/xC9l/zZnp5BfmyoByOnHzZMIfD4fP5Fc7PYrMlJpWWlMrIlF1kUFRSFG2CgP+/R03sXbr9PefvT0WfEk4kdvd0IaJcLu/MqTMx22OISMAXaNQvO8VXq6dGRHLyctv2bQ1bvWVl6CojU6M5y2brNdZLPHlmd/ju0pJSPp8vFAilb1f59itss8JlJbYiPy9fVU2VGaPbUEd8zrbmxu/fvX/2+Nnx2OOu3m6i8Xm8vGXzlz++/5jFYr3896X/UH8eN1dJpeySlKysrKxs2ZUQ0XUqiR6TWA0+X8Dj8oo/FTtbuzAjPxZ+zOPl/eg9Usqf0mf+TwqONx8jLuIiLuIirhhNTc3qub01V2xMrJevl/gY8ybt+KV8IuLz+czNIAbGBlV8gldC2s20SYGTT6Qc37F558PMB/NWzCs/zwi/ESnnU8XDEdGFjGRlFWXpjZeWlp44dMK9p3v1P03/zY/fmnHkaOtqvXrxqrS0VLQBj+4/snPoLH0pNXU1YzPjlOSUhGMJi9ctJiJNLc2Rf40cOEKyRhaLxWIGDNsarghbXlJSsmH5hkUhi2ctmRnyV8jeU3ubt2r2+tVrJ0tn6RErbF+izXU71lZlk5VUlN+/L2CGmRJh4ly9XU8eOZl0Oilo2p/pdzKYkauXrCGiqLhIDofDFBPT0FR/m/dWIBCw2eyS4pJ/n/3brGWzL+p5TS1NBUWF01dO4YcNAACo0VD16/tiqh9JJCo3nl0noudPnnt28WKGv1pVKv1sji57rLebuf0/W1aYWphWsfEHGQ8O7ztS/RMVqHbP4sjIyvBL+YWFhUwy/fTRUyIyNjPW0dVZOvvvt3lv3797v2H5hlxubhenLpW25uTuuD/qQElJiYFRayLq6tw1bn8cUyZr7869EnV+b127FTQ06FPRJ1lZ2SbNmgoFgndv3ykoKjRqosfn86O2RAkEgqKPRVLClW+/fJvMNr5/+176mrc1a3v14tX83PySkpL9UQckprp5u0ZHxLQxMRR/hic/L7+VQUsOh5N5915q8uXCD4W6eroN9Boc3nuYiKK3xyyeteRLPw6dBjqNmjY6evAYEeVycyePmlL4oRCHDQAAQK33vaofla8zVL6GUElxydSx01ysXRwtnaaMDi76WCSq9CNSxeo+SfFJ3l193G17BPYb9Sb7DRG9/PflQK9B3Tu4Olu5hK0O+1DwYezgcTcu3xjWOwCfMhKVL6Osomxta+XY3unOjTsRGyJOHD5JRGw2e0PU+uys146WTt3M7W9cvbllzxbRTUpSOLg6JJ1OcvFwFiUSDq72fZx9na1cTh+L72jX8T+5gXnbBo0autm6O1u57N25Z+LMiS0NWna2/8PN1t3Xxc+2m20763YBfQKkJyoS7Zdvk4gcuttPHDkpamuUtETF3Nijj4d3N59BXoPtu9uLrvkw9Fvoa9TXcPVyFR85aOTA6O0xPTp77Ni8Y8rcyXt37j17OunvjUujI2I6t7U7ffT0rCUzv+IT+XvD0n0797rYdO/vMaC9jYWCogIOGwAAqHFQ9etLMdWPujjZRR6JNDAyWDg9dNnGv/ecjDm09/Cb7Ddzl82RrSN7KClWt6Hu4FGDRedaEkR1hmLPxua8zonZEUNiNYS2H4xYv3zDx8KPZ06e4eZwj6ccP5l6or52fdHdIuImBU5283GLSz4yc/HMCcMnMjmPBG4Od+qYaUs3LIlLPmJja71g2gIiCl8f0dGu4/FLx/bF7717O10gEATPmWJuZb517xZ8ytXcL7j1q6VBS9GtRGMmjRaNFxXUCosJYwaWbVommqrTQGfVtlXlW7uQnlx++ETKcWZAXVP91ov/PPw9ImjEiKARFbbAZrOD504J/u+LTUJXh4qGrW2tJdonosb6jcUvbpZvv3yboyaOGjVxVKVbMXHmhMmzJxHR5YtXVFRViKhD5w4dOndgpu49tYcZsOpoGXl4JxGZW5qLr5h9d3tmIPr47ir2mP9Qf/+hZb9eiIabNm8afiAchwoAANRoXC4XnfClxKsfqagq15WrS0RM9SOdBv97gNbYzPhzLYjqDBFRz34+Eesj+gf0p3I1hDS1NB8/eHwu4ZyNrQ1z8pN2M028nQqr+1h2tJQ8LTx70cTCpKVBSyLqM7DPPwtX8vn8+tr1L5271KlLRyNTI1FhIUCiAl8vl5vrYtN919GoFq1bHN5z2Ky9KfoEAAAAfqYvrX5U0flMxXWMJGoItbNuN3VecMT6iODRU509nKfOC5Zop4rVfXK5vGsp10Rvn1NQVMjj5Q0bO5TDYc+aMJvH5Q0bO2zQyIH4ZJGowDdR11SfPHvS6P5j+AJ+m7ZtJs2aiD4BAAD4apqamuiEX9Dtn6ljVJ5TDyenHk7v3r6bNHLSnh17LGwsJNqpSnUfTS3NDp07rIlYLTE+YFxAwLiAZ4+fDek51LJDe3wuNQUbXVBt9R7Q+9SVkwnX4tdErFZTV0OHAAAAfDVU/fq+Kqx+VJ70OkYikVsi1y1bLxQKlVWUtXW1BQKBxAxVrO7Twa7DzSs3nz1+RkR3bqSFzlhERJMDJycnJjONKCorCgQCGVmZgncFQqEQnyMSFQAAAACoVSqsflRhoiKljpGIm7db+q27jpZOzlYuHwoKfQf5lp+nKtV9NOtrLlg1/69h411sus+ZPId5xH/gyEGrl6xxsnT2tPN08XAxNjM2aWeSk51j384Bn2M1x8rKymKGCgoKlJT+V+s27OrsnpZ/ooPgZ9p/ZfXw9nOZYebXFDa74lxa+tTy+3PVl0VcxEVcxEXcWhk3KytLV1e3um3v1utzcboFlZ4U/bbHr4yOTlnRhtevX4uGAX4V0U5YWlpKn3+DqfSp0vfnb2kZcREXcREXcWto3Hv37pmbm1fD7QWo9KTotz1+cesXAAAAAABUO0hUAAAAoPZD1S8AJCoAAAAA1Q6qfgHUOJ+9Ba0XJ5+uz0MHwc/Ui4M+AAAAAACpiQoRGdpOQQfBz5SRvBSdAAAAPwKPx0PRIICaBbd+AQAAQO3H5XLRCQBIVAAAAAAAAL6JjKiGt0AgQD1v+OVEO6H0vbHSfVXK/vwtLSMu4iIu4iJuDY2roaFRs7YXQMoe8pscvzLYCQAAAKDWU1dXr4ZrhdpF8Pl9A31AMqJ3QLLZbCnvoQT4aXuklD+lzyyu0v35B01FXMRFXMRFXMT9orioXQQVykheiuMIz6hATfXpYwk6AQAAqojH46ETAGoWJCpQI1OU6/HpSXsvoysAAKCKUPULoMbBvV5Qw1KUO+fv3TqXWVxU4j6iCzoEAAAAAIkKQHVJUYhIV7++brP66BYAAKgiTU1NdAJAzfKLb/2KP5P64mU2EfUaMGXL9tgvWvbm7XstzLzEx3B5+SyV9gUFhaIxEVFHHDxGf64FJd0/mOg/iFqjLi9eZjt7j5WpZy1Tz5ql0p4ZkKln/fZtQaWLl5aWRsUcJ6Kr19MltrTSBVkq7QcHzhEfOTIolKXSvuqVENduiukfMPMn99jnUpSrp9IiFx66cuoOk6UQkYXglqDDAAAaDklEQVSjEY5eAACoOg0NDXQCABKVL7BmU8yLVzm/Kvrj24ca6H7xr/J8Pv+L5j95cG1pXmppXmrDBlrJp7Yww6qqSpUueOfuw50xx4jIzKRVSkLEFwVVUJBLunC9qOiTKHVJTLoiL1/3l/TY901RiKhBMy1cToEaR0qpExkZGemFUHR0dL5u2W+ZWj3jAgAAEpWv4e0/ae6ize69/9Jv6zFvcdjfq3Z0dRtpYNHz1p37RPT+/YeBI2a1Mvcxsuqzcet+Ilryz/aTCSn9AkIOHE4kon9fZnd0GFpf38HbfxKTDNy5+7CT47BW5j4mHfyOHD/HRFm0PLxxGzezTv5HTyYzYzLvP5WpZy193VZt2D1szLx+ASE23Qa3txvw7HkWETUz8XyV9cayy0BmBYjo4JEzNt0GE9HRk8kmHfwMLHq69vwz6zWXiFasjRoyaq5ZJ/9ZCzc9ffaqs8vwlmbezUw8Fy0PJyKhUDh+6opmJp5NjXsMDpxT6YWL8u1LtPn+/QfPvhMvpNxy8Bh98/Z9G/vBn9uKUwkprcx92lj2XrVhd8PW3Z8+e0VEfL7A1sbsyPHzTLhTiakW5obFxWVrtWP30dbtejYz8eziOvLfF6+Z9Z+5YIN+W4/GbdyWr4ksS8kE/D6DpjZo5dLuj37iPXbrzn2zTv4h89fbdR/RytznZPwlZv6Ff281sOhp2L7X2ElLi4u/qSQX87h89JKjEikKw9K5LQ5dAAD4Iqj6BVDjyNSbFF7hhIv2X9wWh8O+fO1u3N6VDx49N7LqE7Ym5MzRTfMWh23Yum/jyumzFm4SCune9f25eW/b2w3sYNU2ePygndHHtqwNsbFsu2vviVMJKScPrpGVlTG28U1MumrfxdJ38LSZUwL69na+m/Goo+PQR7cOveHmLV21I+PKXm0tjQHDZzFx9RpoHYhaWsm6sdmHjialpcboaGsG/hW6OeLgwlllt4T18rQ/dDTJx6MbEcXGne3j4/g6m9t/+MzzJ8KM27RYviZyzMQlB6L+lpWROXoyOSUhvJm+3thJS5262YRMGfb2bcGwsfPevi04d/H6qcSU9Mt7WCyWVddB+2IT/Ho5f25lKmx/2ZpI8TYFAuGK0AlbdsSeOLDm6vX0z23FvBkjh46Zt3XtTGeHDnMWbc55kysjwyGi0lJ+Ly/78MjDvb0diCh638k+3g4x+08RUW7u25FBoXdTY5rp640MCl24bNvGldMPHE48nZiafnnPx4+fTDr27WRjSkSnElKTT20xbK3vP2yGeI9xOOy09EeL54xdMHN09L6T85ZscXbocOho0q69J1MTtyspyfcaELxx2/4/A/2+Yo/88P7j3QsP7iTfF89PhCQkIhaxmD8ObUjAoQs1zqhlfeXk5IqKiqTPZmtru3Llyg8fPmzYsCE6Orr8DLt27fL3909KSvrcDIzk5OQ5c+bEx8d/0UpGR0ePGDGiQYMGRFRaWurv7z9vXiWvosvNzb18+bKLi8vnVmnhwoWqqqpjx479un4Ttc/8AIQ3tSPuV8flcrl4Mz3ULHgz/Xe+9cvVqROLxWqur1daynd16kREzfX1mCsGh44ljR3Zh8Viaair9fK0j407K7Fsb28HFRUleXk5U+NWL15lP3n66t+X2X69nIjIyLB5m9bNLqTcSkq+3rmjuY62JovFGuDnyiyopKTg4WpX6bp1sjHV0dYkojYGzcQftOjtZX/s1AU+n19aWnr0ZHJvL/tTiak2lm2N27QgopFDfI4cP8fn81ksamdm0Exfj4h0tTXiz16+fDVNWVlh386lqqpK7i5/pCZGyMnVrVu3jo1l28dPX0pZkwrbL99mVbbi4eN/Cz8WOTt0IKLAoT6lpf+7La27Y8fUq2l5ee+Kij6dOX+N+TiISF1dNefRKWZDuthaMKsadyLZt6ejvLycurpq+uU9lu3aMLEMW+sTkY1lW4lHUxQV5VwcO5atxqtsIjp0NGlgXzdVVSUOhxMwyOvgkTNftwsdWH3qWvxdiasoLGKVZSn/n7QA1G52dnYVJiGFhYXLly+XMsO3c3JyyszMzMzMvHnz5tGjR+Pi4qR/Y12+fPnEiRNSVmnGjBlfnaUQkah9AAD43Xznql+KivJExOFwiEhBXo6IOBw2ny8gopw3uT37T2F+7//0qdjXx0liWRVlxbLkic3i8wU53Fz1eiosVtnpqXo9lTfcvNy8t/XUVERjJLMuFouImHCMkpJSJiIRKSspimYTn6eZvp5eQ+2LqbdLSkpbt2zaSE8n503u+Ys3mhr3ECVCb7h5RKShrsqMCR4/iMPhBIxbkPMmL3j8wPFj+nF5+ZNDVmXce8JisZ4+zxo7oo+UXqqw/fJtVrisxFbwct+K+kFHW7NOHVnRnHXqyLq7/LHvUIJ6PRWHLlZycnVFJxZ/r97J3K+Vl/++cSMdZpXUVJXLPggVJclP5L899p/VYLNEn+/hY0kbtu5jPgJtLfWv24X6THC9fS7z9vl7/8lVhGX5ChGJdgmAGqdOnTqhoaHHjh3Lzc3dtWuXmZlZRkbGmDFjWCxWUVHRggULunbtyswZHx+/cuXKuLi4jRs3RkREsFgsRUXFXbt2TZw48cGDB4MGDRowYAAzQ0ZGxujRo0tKSuTl5SMjI7W1tVks1vv375mDffDgwWlpaXJycidOnJCXlw8MDExPTxcIBJaWlqtXrxYIBIGBgRkZGR8+fGjfvv2mTZvE11ZJSalTp06ZmZndu3eXWFAoFOrq6np5eX369Ony5csfPnxo1KiRqakps0qxsbGLFi0iIjMzs/Xr18+ePVtNTW3cuHG6uroBAQEPHjx4/fr15s2b27Zte+7cueDgYOZC07p169q1a9e1a9fOnTtnZ2dfuXIlKCjIy8tr4sSJTPsTJ07831cX3piOuF8+VVNTs3pub40QfybVoFVTvYbaazfFpFxJi9wyv+rL3rx9r9fA4Ic3/1czydl7bMLZK0TE5/OZk0Yi4j1NqMoTvOUp6f6ReXUfl5cvEUUkdNm2WQs3Mf8VWSwWcyJxIGppVX7mjog6Mrhfj192mv7bH78yecuGMEOvX78Wf34x4/h3/gVLR1tj344lZiatqzi/lqZ6bt47gUDAZrOJiMvL19ZSLykpzX/7npkh+02uxCJqasoKCnIPH/9rYW7IjLmb8bixXuUPZfby7Hb42LmiT5/6+Dgwq+rQxSp293KJ2UQ/6svIyEydMHjqhMEPHj3v6hZo18liU/gBIroYv43D4QSMnV9pV1TYvkSbVeklVRUlUQGx7ByexJMh/r1dlqzcrqaqPLS/h2hkzP7TB4+cOX9ii5qacmTMsYioOCLSqq/OJGNE9OJlNpNkfunnGzJl2F+j/b9xP6krL2vp3Naks8HNs+lpFx6UpSv/zU08R9lrNVGXvrtL7M/imMuLn1v2W6YiLuJKb7moqKhdu3bTp0//559/wsLC1q1bFxgYOGnSpB49emRkZDg7Oz979kxiwTlz5mRmZqqpqcXHx798+XLGjBl37tzZvn276J6u0aNHz5gxw8HBYd26dfv37x89evSTJ08UFRWJ6MaNG7t27dLR0fH09Dx+/Hjnzp0NDAzCwsKYFOLmzZt169a9cuXKjRs3iGjr1q25uf/5p8rj8RISEjZu3MjlciUWNDMzy8vL6927t729/caNGzMzMydOnMis0rt378aOHXv79m11dfVhw4ZduXKFaY3D4eTl5Xl5eXXs2DEmJmbmzJmxsbFZWVmrV6+2tLSMjY2dN29ebGwsh8ORk5PbuHFjRkZGr169Bg4cOG7cOKZ9JLrwjVD161us2RQzbeIQvYba36W1kwfXMgN6Bq77di6xsfymR08f3z6kqaHG5eV/bobpk4ZOnzSUiPoHzDRu03zqhMFVbFkoFE6dvfYXJirw86p+eXTvvHHbfqFQWFJSOmHaims3MohIVlYmP/99hfM302/YWE8net8pJhd/+PiFrY1ZR2uTcxdvZL3m8vn8iKgjzJwFBYWHjyUxSd7gfj0mTP/n8ZMXRUWfYuPObos8PGygZ6Xr1tvbIf7s5WOnLvTytCcix67WF1NvP3j0nIiuXLv75+S/JebvO3T6idMXiahRQ20VZUWBQMDLzW9r1ILD4dy6cz/x3NWCD4VSwlXYfvk2ZWVl3r4tEAql3enUolkjvkBw7sJ1Ilq9MUZ0+YhhZ9vuydNXN2/fs+9i+b+Tj9z8po0bqKkp5+W9i4iKY6o5uzp1itpz4t27gry8d3auI+49fPbFn69r58iY4+/ffyCizeEHRJ/OV6crFo5GfsFu7R2N68jJSky9cuoODl2oiVgslqOjIxHp6+vn5uYKhcLLly87OTkRkaGhYUlJyevXryUW6d+/f7du3UJDQxs2bGhubl7+SzQ1NbVz585ENGbMmNGjRxNR06ZNmd8LTUxMmLSKCaehocHj8by9vf38/LKzs7lcbvPmzRUUFNzd3Tds2ODh4cGcxsXHx5uZmZmZmTk5OQUFBf3xxx/lF2R+mGTiSkhPT2/SpIm6ujqT/NjY2Ij/VNahQwcisrCwuHv3LhE1adJk8eLFvr6+69atE701nJlHV1dXInECgO9l1YbdQ0bN9R82w6SDn1uvoLgT57v3/LO5qefO6KNUhepH5WvtfJfqR+XrDFVYQ2jZ6p0tzbybm3p2chz2+MkL+v9KP+JNVaW6z/2Hz7q4jjSw6NnebsDF1FtEVFxcMmD4rOamnk2Ne/QLCPn4scin3+ScN7nG1r5M5SH4+X7etci500eOnbS0pbl3aSnf3eUPE+OWROTt3sV3yLQFIaMr/EaPDg8N/GvR3MVh8vJ1o8ND69VTqVdPZeyIPu3+6KeqohQ4rOfVGxlE9OJVjk+/KaV5qUS0fOFfM+at7+g4LP/t+zYG+lFb5lu3N6503Vq1aCIQCBro1G/YQIuItLU0wjfM7tl/SuHHImUlxTV/T5aYf8KYfqMmLB41YTGbzRrg59a+XZsJY/sNHDl7645DVhZGK0LHDxk9l3kevUIVtl++Tb1s7qvXbxoZusXuWvbZE/q6ddYvDx4wYpaaqvLogF6KivLid0ax2Wx3F9tPxSWi66pE5NvTKTLmeCtzH72GWovmjPXqO3HGvPXzQwJv3L5nZO0rFAqDRvl1sDJhMskvSVTs0tIftbcbWFJa2qpF423rZn37PiO6uiJxM9irRzlZj9/8VhWKH0bIVjpP/i9aN8StIoMAIYvFEh2MzG8Q4gesUChkLiCLW7Zs2ZMnT44fP+7j47Nw4cI2bdqUz1UEAkGFEWVlZcVni4iIuHnz5pEjRzgcTseOHYmoTp06ycnJ169fP3r0qIWFxblz54jIwcFh37594u2UX5CIOByOePtVWR+hUCgUClksFp/PZ7a0V69e+/bts7GxOXXqlOipfdFVKYmfaTZM2o3vbKh9utj/gqAcNvtkwqX0y3uVlRWaGnvExp09vn/1uQvXR/y5cICfm/TqR2s3xUjU2pkfEvjt1Y8qrDNUvobQ+DH+ocvDn6UdUVZWjIg6ciL+0ujhvSWaqmJ1H78h00cN6zV8sPeVa3e9/Cc9uXP48LFzr3O4D2/GCoXCKTNXX7+VGbYm5Pjpi2mpMb9k3zh2msYF+/3mB8j3TFT27fzfzid8d7VsP+jlzNS/UlZW3L5prsQis6YOnzV1OBGNC/Qt305boxYXTm+VWGTejMB5MwKZYeZGI4NWTZkshYjk5OouDx2/PHS8xFJjR/qOHekrMVyQdV40w62L//kKdHO2dXO2/VwLlhZGV5N2ik/taG0qflukl3sXIsr/96z4PC8yj0lpv3ybOtqaz+6WPcbKNF7hVvj2dPLt6cR894+ZuLSemoqMjIyoQ8S7gvlQ6mvWS0mMEI3MenCSGQidPSZ09piq9JheQ23Rthi3aSEaFl1a/b4qTFeuxd91H9EF33BQo7FYLGtr64SEBFdX17S0NEVFRW3t/9xW8eHDhxUrVoSEhIwePbq4uPjixYvGxsafPn0Sb4E5y/fw8AgPD3/58mVISMjTp0+bNGlSPlxOTk7z5s05HM6NGzcyMjKKi4tv375969atAQMGWFhYXL9+PS0trcL1LL+g+FQ2my2+SkZGRk+fPmXukQsMDOzZs6doEp/PP3fuXJcuXS5dumRiYiIUCnk8XsuWLYVC4a5duySa/Vz7APBddLIxVVNTJqKmjXWdutkQU/0ou6z60e5tC8WrH5m2bSWxrKjWzrUbGRVWP8p6zWWqHxHRAD/XlKt3SGr1I4k6Q1Nnr2HeVCFeQ+jajQxFBTmhUBi150Rvb/vP3ZElqu5DRAGDvJat3lk+UXn+7+v7D58zN91YWhg10K1/6fJtHW2NjHtPj526YG9nuWzhX0Qk5XYyqGGJytYdhyp9NgO+O+G7q5ZdBo4Y7D1iiE9kzHEjw2YKCnIslfbVYd0iw+b38+3+g9KVrMdvsh6/adRKF/sA1Gjr168fN27cqlWrioqKIiMjJaYqKip++vTJ2tpaSUmJzWZv2bJFR0eHxWJ17dp1xowZohYCAwOXLl0qJycXFRVFRPr6+szD9BL8/f19fHwcHByMjY2nT58+derUw4cPx8bGbtq0icPhNG7c2NHR8eDBg1VZ0MrKSjTV2tp69uzZqqqqDg4ORKSiorJhw4YePXqwWCxTU9Nu3bolJSUxcyopKZ04cSI0NDQ/P3/79u0sFmvq1KlOTk4aGhrBwcHDhg1bs2ZN+eii9puQKXYYgO9FUUGeGeBwOAoKX1v9iPWV1Y8q+EHkM3WMJGoIycvLJR7ZsGhFxLS5a9ubG25eNUO/acPyTVVa3SfnTW5RUXEzE8///1Xo4xtufi8v+5WLJy5bvbNfQEgfb8eVi/FoXC1KVIYN9KzK0yDw3a1eOinwr0ULl23Tqq8esWE2iV3Oqn3EH7W/k3z/N0xUDAIqfmYJD7XXiLiil6h4eXl5eXkRkaGhocSrTpKTy27mZs77FyxYsGDBAvEZ0tPTxWcwNDQUZQJlv18IhURka2srannlypXMwPXr10WzTZ48mYj2798vvqyfn5+fn+RPj02bNi2/oGhbTE1Ns7KyxFdJtHUMZv1LS0uFQuHixYvFW549e/bs2bOZ4adPnxLRuHHjmD/V1NSYJ3bE28d+hbjfEvfu3btGRkbVbXsfnI6tbl80P6H6UYVBK6wzVJ65qcGe7YtLSkrnLt4cFLz8cMyK8k1VWt1HR1tDSUn+aZrk87S9vOx7ednn57/3HTJt47b9A/u6/cIPwtWRJq6I/s2PXzZBDdfR2vT2pehnd+OunN1hbmrwO2wy86i9XW8rfPoAAFBFqPpVRT+h+lF5ldYxYqRcuePTb3JR0SdZWRnmAeMK1r8K1X30Gmo319fbvfckEb3h5vkPm1FQULh6Y/ScRZuFQqGqqpJeAy2BQCArI1Nayv/w4SP2il9FRvQmSClvmgT4aUQ7YaVvMOXIsn6fN7ZWOhvebF3949aCFyl805eNjExBQcG3/3PAfoW4v0/cX0V69aPyLzP7uupHEiqtY8SwsjBq2li3tUVPDoejq60ZtmZGRYlKlar77N62cGRQ6MyFG9gs9oSx/ZSUFPx7uwwZNbepcQ82m23Zrk3g0J5KSgrd7No3MXI/tm+VVRWKM/24k6Lf9jhilZSUVVLKycnR0tISTXhwup+h7RScN8PPlJG8tKVjlPgu+9WXJiX256ovWz3jiqp+tRhc8jtsL+IiLuIi7nePm5mZaWBgUN2298mZQTjdgkpPin7b41dGNKp2vDkVajqJnRBvXK7iDHizNeIiLuIirvSpPB4Pb6Ynou274gYHzsH5xheJDg/17en0y0+KfsPjF5kJAAAAwO9ikL/7IH939APUCHiYHgAAAGo/TU1NdAIAEhUAAACA6gVVvwBqHGm3fmUkL0UHAQAAAABANUpUDLvHiIbxwinE/flxAQAAviMej/e57yMAqJ5w6xcAAADUflwuF50AgEQFAAAAAADgm+CuGwAAAKj9UPXrJ0j58yQzoNe9hV735ugQ+EasrKwsZqigoEBJSanCmQQCARGx2ezvPhVxERdxqzI1P06XGVBzz0I/Iy7iIi7i1pq4b2+Nr02nlW/3mJYNyQpYsnwV9/QvWHavCTOg2vv2j17PooxsZkDOUPsLlkq8W7ZUN6Of05/1zFf95scRSygUMkN4yBtxEbfaxs3cwmIGDAKE6GfERVzERVzE/dK48+NGMgMz3Tf9uLgpQ0LF/7QJn/4Vy0os9SP6OSXQsCzWxoyqb2+KVdl3sc1lIfarnxMXz6gAAABA7cfj8dAJADULEhUAAACo/VD1CwCJCgAAAAAAABIVAAAAgMqg6hcAEhUAAACAakdDQwOdAIBEBQAAAAAAAIkKAAAAgFSo+gVQ48gwdYuJSCAQiIYlfG78t09FXMRF3Cq2LH029DPiIi7iIq70uFwuF/3MLPhD40qZ+Vu+6X5QP39db4iPxPH7Q+PiigoAAAAAAFQ7MqJ3QLLZbCnvoSSpb6n8lqmIi7iIW8WpUmZAPyMu4iIu4kqfqqmpiX4WX+SHfltJme2rv+l+RD9/XW+I/4nj94fGxRUVAAAAqP1Q9QugxkGiAgAAAAAASFQAAAAAfjpU/QJAogIAAABQ7XC5XHQCABIVAAAAAAAAJCoAAAAAUmlqaqITAJCoAAAAAFQvqPoFUOPgzfSIi7g1IG6ls6GfERdxERdxEbcqcfFm+m/vDbyZ/qfFxRUVAAAAqP1yc3PRCQA1C95Mj7iIW2PiEt5Mj7iIi7iI+7VTeTwe+pnwZvrv0Rt4M/1Pi4srKgAAAAAAUO0gUQEAAIDaD1W/AJCoAAAAAFQ7qPoFgEQFAAAAAAAAiQoAAABAZXg8HjoBAIkKAAAAQPXC5XLRCQBIVAAAAAAAAL7J/wHnB7figWBKZgAAAABJRU5ErkJggg==;" parent="1" vertex="1">
                    <mxGeometry x="195" y="50" width="1080" height="492" as="geometry"/>
                </mxCell>
                <mxCell id="3ND0S96goo_aaDMY6VBZ-6" value="" style="edgeStyle=orthogonalEdgeStyle;rounded=0;orthogonalLoop=1;jettySize=auto;html=1;" parent="1" source="3ND0S96goo_aaDMY6VBZ-4" target="3ND0S96goo_aaDMY6VBZ-5" edge="1">
                    <mxGeometry relative="1" as="geometry"/>
                </mxCell>
                <mxCell id="3ND0S96goo_aaDMY6VBZ-4" value="" style="rounded=0;whiteSpace=wrap;html=1;strokeColor=#b85450;fillColor=none;strokeWidth=3;" parent="1" vertex="1">
                    <mxGeometry x="530" y="250" width="210" height="20" as="geometry"/>
                </mxCell>
                <mxCell id="3ND0S96goo_aaDMY6VBZ-5" value="fileid: &amp;lt;http://www.test2.de/1a42c5b28e38a144bb72b65c5abced75#&amp;gt;" style="whiteSpace=wrap;html=1;rounded=0;strokeColor=#b85450;strokeWidth=3;fillColor=none;" parent="1" vertex="1">
                    <mxGeometry x="40" y="245" width="365" height="30" as="geometry"/>
                </mxCell>
                <mxCell id="2" value="" style="whiteSpace=wrap;html=1;fillColor=#ffffff;fontColor=#333333;strokeColor=none;" vertex="1" parent="1">
                    <mxGeometry x="1061" y="94" width="70" height="10" as="geometry"/>
                </mxCell>
            </root>
        </mxGraphModel>
    </diagram>
</mxfile>
